<?xml version="1.0" encoding="UTF-8"?>
<svg xmlns="http://www.w3.org/2000/svg" xmlns:xlink="http://www.w3.org/1999/xlink" width="31px" height="32px" viewBox="0 0 31 32" version="1.1">
  <!-- Generator: Sketch 64 (93537) - https://sketch.com -->
  <title>Group 4</title>
  <desc>Created with Sketch.</desc>
  <g id="Desktop" stroke="none" stroke-width="1" fill="none" fill-rule="evenodd">
    <g id="Module-States" transform="translate(-2835.000000, -1897.000000)" fill="#FFFFFF">
      <g id="Footer-Copy" transform="translate(1559.000000, 1754.000000)">
        <g id="Group" transform="translate(893.000000, 143.000000)">
          <g id="Group-4" transform="translate(383.714286, 0.939610)">
            <polygon id="Path" points="6.32236025 30.4637143 0.486335404 30.4637143 0.486335404 9.24942857 6.32236025 9.24942857"></polygon>
            <path d="M3.40434783,6.804 C1.52514783,6.804 -5.01820807e-14,5.28042857 -5.01820807e-14,3.402 C-5.01820807e-14,1.52357143 1.52514783,4.39648318e-14 3.40434783,4.39648318e-14 C5.28354783,4.39648318e-14 6.80869565,1.52357143 6.80869565,3.402 C6.80869565,5.28042857 5.28549317,6.804 3.40434783,6.804 Z" id="Path"></path>
            <path d="M29.6664596,30.4637143 L23.8304348,30.4637143 L23.8304348,19.656 C23.8304348,13.1605714 16.0490683,13.6523571 16.0490683,19.656 L16.0490683,30.4637143 L10.2130435,30.4637143 L10.2130435,9.24942857 L16.0490683,9.24942857 L16.0490683,12.6533571 C18.7647652,7.66607143 29.6664596,7.29771429 29.6664596,17.4285 L29.6664596,30.4637143 Z" id="Path"></path>
          </g>
        </g>
      </g>
    </g>
  </g>
</svg>
