<?xml version="1.0" encoding="UTF-8"?>
<svg xmlns="http://www.w3.org/2000/svg" xmlns:xlink="http://www.w3.org/1999/xlink" width="177px" height="60px" viewBox="0 0 177 60" version="1.1">
  <title>metlife-foundation_vert_logo_rgb</title>
  <g id="metlife-foundation_vert_logo_rgb" stroke="none" stroke-width="1" fill="none" fill-rule="evenodd">
    <path d="M162.59944,22.5853081 C162.59944,22.2224645 162.677821,21.854218 162.83601,21.4788626 C162.993343,21.1043602 163.223357,20.7597156 163.526623,20.4454976 C163.829319,20.1312796 164.211251,19.87109 164.67185,19.6654976 C165.132164,19.4601896 165.665444,19.3572512 166.271406,19.3572512 C166.877082,19.3572512 167.398676,19.4601896 167.834763,19.6654976 C168.27142,19.87109 168.634826,20.1312796 168.925551,20.4454976 C169.21656,20.7597156 169.434604,21.1043602 169.579681,21.4788626 C169.725614,21.854218 169.79801,22.2224645 169.79801,22.5853081 L162.59944,22.5853081 Z M172.234111,27.7359242 C171.845908,28.0262559 171.227976,28.3706161 170.380029,28.7698578 C169.530942,29.1685308 168.428469,29.3681517 167.071469,29.3681517 C165.689671,29.3681517 164.60487,29.0235071 163.817633,28.334218 C163.029826,27.6452133 162.623382,26.8416114 162.59944,25.9225592 L174.742609,25.9225592 L174.742609,25.0518483 C174.742609,23.6252133 174.561048,22.3131754 174.197357,21.1163033 C173.833667,19.9191469 173.293831,18.8917536 172.57956,18.0332701 C171.864435,17.1750711 170.98542,16.503981 169.943657,16.02 C168.901324,15.5365877 167.689401,15.2948815 166.307889,15.2948815 C164.926662,15.2948815 163.690227,15.543128 162.59944,16.0381991 C161.508937,16.5341232 160.587739,17.1932701 159.836415,18.0150711 C159.084807,18.8374408 158.509343,19.7985782 158.109739,20.8987678 C157.709565,21.9992417 157.509478,23.1418009 157.509478,24.3261611 C157.509478,25.6808531 157.721251,26.9198104 158.145937,28.0438863 C158.569768,29.1685308 159.187986,30.1299526 160.000304,30.9275829 C160.811768,31.725782 161.799662,32.3488152 162.96313,32.7958294 C164.126314,33.243128 165.43543,33.4669194 166.889623,33.4669194 C167.980126,33.4669194 168.949493,33.3636967 169.79801,33.1581043 C170.646242,32.9527962 171.379609,32.717346 171.997826,32.4511848 C172.615758,32.1855924 173.118541,31.9131754 173.506174,31.6350711 C173.894092,31.3575355 174.184816,31.1579147 174.378918,31.0367773 L172.234111,27.7359242 Z M114.287845,28.3527014 C113.947812,28.5944076 113.584406,28.8059716 113.197058,28.987109 C112.80914,29.1685308 112.348541,29.2595261 111.815831,29.2595261 C111.112391,29.2595261 110.597353,29.0357346 110.270145,28.5881517 C109.942937,28.1411374 109.779618,27.5061611 109.779618,26.6837915 L109.779618,19.9737441 L114.178966,19.9737441 L114.178966,15.8749763 L109.779618,15.8749763 L109.779618,11.3163981 L104.544295,11.3163981 L104.544295,15.8749763 L101.845971,15.8749763 L101.845971,19.9737441 L104.544295,19.9737441 L104.544295,26.3937441 C104.544295,27.4581043 104.653174,28.4249289 104.871502,29.2959242 C105.089546,30.1660664 105.453237,30.9096682 105.96229,31.5264455 C106.470773,32.1429384 107.137444,32.6269194 107.961734,32.9772512 C108.785454,33.3275829 109.803275,33.5033175 111.015483,33.5033175 C112.954217,33.5033175 114.748159,32.8501422 116.396454,31.5443602 L114.287845,28.3527014 Z M159.611531,9.81753555 C158.835411,9.16464455 157.975493,8.7056872 157.030068,8.43952607 C156.084928,8.17336493 155.151473,8.04028436 154.23056,8.04028436 C153.358101,8.04028436 152.503599,8.17962085 151.667338,8.45744076 C150.831362,8.73582938 150.086024,9.15895735 149.431609,9.727109 C148.777193,10.295545 148.250184,11.0146919 147.850295,11.8851185 C147.450121,12.7552607 147.250034,13.7954502 147.250034,15.0045498 L147.250034,15.8749763 L144.48701,15.8749763 L144.48701,19.9737441 L147.250034,19.9737441 L147.250034,32.8868246 L152.449159,32.8868246 L152.449159,19.9737441 L156.484816,19.9737441 L156.484816,15.8749763 L152.449159,15.8749763 L152.449159,14.9317536 C152.449159,14.085782 152.667203,13.4331754 153.103575,12.9733649 C153.539947,12.5144076 154.121681,12.2843602 154.848778,12.2843602 C155.308807,12.2843602 155.757435,12.356872 156.194092,12.5016114 C156.629894,12.6469194 157.030068,12.8527962 157.393758,13.1181043 L159.611531,9.81753555 Z M136.602386,32.8868246 L141.837425,32.8868246 L141.837425,15.8749763 L136.602386,15.8749763 L136.602386,32.8868246 Z M118.355995,32.8868246 L134.307372,32.8868246 L134.307372,28.4070142 L123.845845,28.4070142 L123.845845,8.69345972 L118.355995,8.69345972 L118.355995,32.8868246 Z M88.4495507,22.5853081 C88.4495507,22.2224645 88.5279324,21.854218 88.6861208,21.4788626 C88.8437391,21.1043602 89.0734686,20.7597156 89.3770193,20.4454976 C89.679715,20.1312796 90.0616473,19.87109 90.5222464,19.6654976 C90.9825604,19.4601896 91.5155556,19.3572512 92.1218019,19.3572512 C92.7274783,19.3572512 93.2487874,19.4601896 93.6851594,19.6654976 C94.1215314,19.87109 94.4849372,20.1312796 94.7759469,20.4454976 C95.0666715,20.7597156 95.285,21.1043602 95.4300773,21.4788626 C95.5757246,21.854218 95.6484058,22.2224645 95.6484058,22.5853081 L88.4495507,22.5853081 Z M98.0842222,27.7359242 C97.6963043,28.0262559 97.078087,28.3706161 96.2301401,28.7698578 C95.3813382,29.1685308 94.2788647,29.3681517 92.9215797,29.3681517 C91.5400676,29.3681517 90.4549807,29.0235071 89.668029,28.334218 C88.8799372,27.6452133 88.4737778,26.8416114 88.4495507,25.9225592 L100.59272,25.9225592 L100.59272,25.0518483 C100.59272,23.6252133 100.411159,22.3131754 100.047469,21.1163033 C99.6837778,19.9191469 99.143942,18.8917536 98.4296715,18.0332701 C97.7148309,17.1750711 96.8358164,16.503981 95.7937681,16.02 C94.7514348,15.5365877 93.5397971,15.2948815 92.158,15.2948815 C90.7767729,15.2948815 89.5406232,15.543128 88.4495507,16.0381991 C87.3590483,16.5341232 86.4378502,17.1932701 85.6868116,18.0150711 C84.9349179,18.8374408 84.3594541,19.7985782 83.9598502,20.8987678 C83.5599614,21.9992417 83.3598744,23.1418009 83.3598744,24.3261611 C83.3598744,25.6808531 83.5716473,26.9198104 83.9960483,28.0438863 C84.4198792,29.1685308 85.0380966,30.1299526 85.8504155,30.9275829 C86.6621643,31.725782 87.650058,32.3488152 88.8132415,32.7958294 C89.9764251,33.243128 91.2855411,33.4669194 92.7397343,33.4669194 C93.8305217,33.4669194 94.7996039,33.3636967 95.6484058,33.1581043 C96.4963527,32.9527962 97.2300048,32.717346 97.8482222,32.4511848 C98.4661546,32.1855924 98.9689372,31.9131754 99.35657,31.6350711 C99.7442029,31.3575355 100.035213,31.1579147 100.229314,31.0367773 L98.0842222,27.7359242 Z M55.9459662,32.8868246 L61.1810048,32.8868246 L61.7992222,17.1810427 L67.1075121,26.502654 L69.9429324,26.502654 L74.9604976,17.0721327 L75.6511111,32.8868246 L81.1406763,32.8868246 L80.0139758,8.69345972 L74.7783671,8.69345972 L68.5981884,20.0462559 L62.2720773,8.69345972 L57.0732367,8.69345972 L55.9459662,32.8868246 Z M139.219763,13.9296682 C137.602536,13.9296682 136.268623,12.5982938 136.268623,10.9848341 C136.268623,9.37137441 137.602536,8.04028436 139.219763,8.04028436 C140.877464,8.04028436 142.171473,9.33099526 142.171473,10.9848341 C142.171473,12.5982938 140.83699,13.9296682 139.219763,13.9296682 L139.219763,13.9296682 Z" id="Fill-1" fill="#0D9C90"></path>
    <path d="M23.6721111,14.0198104 C27.7898551,19.4590521 30.2339372,26.2350711 30.2339372,33.5823697 C30.2339372,35.3556398 30.08943,37.0947867 29.8158068,38.7907109 L41.7386522,38.7907109 C42.77557,38.7907109 43.6161063,37.9501422 43.6161063,36.9133649 L43.6161063,4.02597156 C43.6161063,2.80066351 42.4589082,1.89440758 41.2740628,2.20635071 C34.1541594,4.0814218 27.9916522,8.31412322 23.6721111,14.0198104" id="Fill-2" fill-opacity="0.61" fill="#0C6B68"></path>
    <path d="M17.5284155,38.7907109 C17.2545072,37.0947867 17.11,35.3556398 17.11,33.5823697 C17.11,26.2350711 19.5543671,19.4590521 23.6721111,14.0198104 C19.352285,8.31412322 13.1900628,4.0814218 6.07015942,2.20635071 C4.88502899,1.89440758 3.72783092,2.80066351 3.72783092,4.02597156 L3.72783092,36.9133649 C3.72783092,37.9501422 4.56865217,38.7907109 5.60557005,38.7907109 L17.5284155,38.7907109" id="Fill-3" fill-opacity="0.8" fill="#0C6B68"></path>
    <path d="M23.6721111,14.0198104 C19.5543671,19.4590521 17.11,26.2350711 17.11,33.5823697 C17.11,35.3556398 17.2545072,37.0947867 17.5284155,38.7907109 L29.8158068,38.7907109 C30.08943,37.0947867 30.2339372,35.3556398 30.2339372,33.5823697 C30.2339372,26.2350711 27.7898551,19.4590521 23.6721111,14.0198104" id="Fill-4" fill="#0C6B68"></path>
    <path d="M164.279372,46.7610427 C164.279372,46.42891 164.279372,46.1445498 164.279372,45.9088152 C164.279372,45.6727962 164.279372,45.4632227 164.279372,45.2792417 C164.279372,45.095545 164.274812,44.9212322 164.266261,44.7548815 C164.25714,44.5890995 164.244029,44.4099526 164.226643,44.2171564 L165.330826,44.2171564 C165.347928,44.4099526 165.361324,44.5842654 165.370159,44.7418009 C165.378995,44.8993365 165.387546,45.0693839 165.396382,45.2527962 C165.405217,45.4367773 165.409493,45.6466351 165.409493,45.8823697 C165.409493,46.1183886 165.409493,46.4027488 165.409493,46.7345972 C165.549725,46.4727014 165.746961,46.1752607 166.001203,45.843128 C166.254874,45.5112796 166.570111,45.2004739 166.947483,44.9121327 C167.324,44.6237915 167.775193,44.3837915 168.301063,44.1909953 C168.826932,43.9990521 169.431469,43.902654 170.114957,43.902654 C170.973449,43.902654 171.695986,44.0252133 172.28342,44.2694787 C172.870285,44.5148815 173.347986,44.86891 173.715952,45.3318483 C174.084203,45.7953555 174.346995,46.3544076 174.504614,47.0101422 C174.662232,47.6655924 174.741184,48.3958294 174.741184,49.1997156 L174.741184,56.2805687 L173.558333,56.2805687 L173.558333,49.5932701 C173.558333,48.7018009 173.479382,47.9587678 173.321763,47.364455 C173.16386,46.7701422 172.931565,46.2978199 172.625164,45.9480569 C172.318193,45.5985782 171.941676,45.3537441 171.494758,45.2138389 C171.048126,45.0739336 170.535652,45.003981 169.957053,45.003981 C169.185778,45.003981 168.519961,45.1612322 167.959319,45.476019 C167.398391,45.7905213 166.934372,46.192891 166.566121,46.6822749 C166.198155,47.1719431 165.922251,47.7139336 165.738411,48.3085308 C165.554285,48.903128 165.462222,49.4886256 165.462222,50.0653081 L165.462222,56.2805687 L164.279372,56.2805687 L164.279372,46.7610427 Z M145.464072,56.2805687 L146.646923,56.2805687 L146.646923,44.2171564 L145.464072,44.2171564 L145.464072,56.2805687 Z M145.227787,41.6997156 L146.883778,41.6997156 L146.883778,39.9688152 L145.227787,39.9688152 L145.227787,41.6997156 Z M136.854063,45.3187678 L134.435633,45.3187678 L134.435633,44.2171564 L136.854063,44.2171564 L136.854063,40.2312796 L138.036913,40.2312796 L138.036913,44.2171564 L142.032382,44.2171564 L142.032382,45.3187678 L138.036913,45.3187678 L138.036913,52.2944076 C138.036913,53.011564 138.089357,53.583981 138.194531,54.0122275 C138.299705,54.4410427 138.453048,54.7637915 138.65456,54.9824645 C138.855787,55.2011374 139.088367,55.3455924 139.351159,55.4152607 C139.614237,55.4852133 139.903251,55.5201896 140.218773,55.5201896 C140.656285,55.5201896 141.033372,55.4414218 141.348894,55.2838863 C141.664415,55.1266351 141.979937,54.8559242 142.295174,54.4711848 L143.031106,55.1789573 C142.680527,55.6339336 142.282063,55.9836967 141.835145,56.2279621 C141.388512,56.4727962 140.805638,56.5953555 140.087092,56.5953555 C139.614237,56.5953555 139.17587,56.5381991 138.772845,56.4247393 C138.369536,56.3107109 138.027792,56.1014218 137.747614,55.7951659 C137.46715,55.489763 137.248251,55.0785782 137.090633,54.5627488 C136.933014,54.0474882 136.854063,53.3874882 136.854063,52.5827488 L136.854063,45.3187678 Z M131.075198,50.1176303 C130.706947,50.0306161 130.247203,49.9563981 129.695111,49.8946919 C129.143304,49.8338389 128.437585,49.803128 127.579092,49.803128 C126.685256,49.803128 125.975546,49.9126066 125.449961,50.1309953 C124.924092,50.3496682 124.525343,50.6206635 124.254,50.943981 C123.982087,51.2675829 123.807082,51.617346 123.72813,51.9927014 C123.649464,52.3691943 123.609845,52.7055924 123.609845,53.0021801 C123.609845,53.8939336 123.903135,54.5365877 124.49057,54.9301422 C125.077435,55.3234123 125.826763,55.5201896 126.737986,55.5201896 C127.333401,55.5201896 127.894329,55.4152607 128.420198,55.2054028 C128.946068,54.995545 129.406097,54.716019 129.800285,54.3662559 C130.194473,54.0164929 130.505435,53.6189573 130.733454,53.1727962 C130.961188,52.7272038 131.075198,52.2770616 131.075198,51.8223697 L131.075198,50.1176303 Z M131.180372,56.2805687 C131.1627,56.036019 131.149589,55.7650237 131.141039,55.4678673 C131.131918,55.1707109 131.127928,54.7683412 131.127928,54.2616114 C130.812121,54.716019 130.461541,55.0962085 130.076188,55.4018957 C129.690551,55.7081517 129.300923,55.9487204 128.906449,56.1233175 C128.512261,56.2976303 128.113227,56.4204739 127.710488,56.4901422 C127.307179,56.5600948 126.939213,56.5953555 126.606589,56.5953555 C126.098106,56.5953555 125.589908,56.5427488 125.081995,56.4378199 C124.573512,56.332891 124.118043,56.1452133 123.715019,55.8739336 C123.31171,55.6032227 122.983077,55.2363981 122.729406,54.7726066 C122.475164,54.3093839 122.348329,53.7193365 122.348329,53.0021801 C122.348329,52.4254976 122.444097,51.8795261 122.637343,51.3636967 C122.830019,50.8481517 123.136705,50.4019905 123.557401,50.025782 C123.977812,49.6501422 124.521068,49.3529858 125.187169,49.1343128 C125.852986,48.9159242 126.659034,48.8064455 127.605314,48.8064455 C128.341246,48.8064455 128.998512,48.832891 129.576826,48.8852133 C130.15514,48.9378199 130.645667,48.9992417 131.048976,49.0686256 L131.048976,48.3872986 C131.048976,47.7227488 130.970024,47.1719431 130.812121,46.7345972 C130.654502,46.2978199 130.417932,45.9480569 130.102696,45.6855924 C129.787174,45.4234123 129.401536,45.24 128.946068,45.1350711 C128.490314,45.0304265 127.964444,44.9778199 127.369029,44.9778199 C126.370019,44.9778199 125.576797,45.1219905 124.989932,45.4106161 C124.402783,45.6989573 123.951874,45.9745024 123.636068,46.2366825 L123.005309,45.4234123 C123.337932,45.10891 123.876913,44.7770616 124.621966,44.4267299 C125.366734,44.0775355 126.273396,43.902654 127.342522,43.902654 C128.91956,43.902654 130.128918,44.2350711 130.970024,44.8993365 C131.81113,45.5638863 132.231826,46.6654976 132.231826,48.2033175 L132.231826,53.763128 C132.231826,54.1131754 132.231826,54.4410427 132.231826,54.7461611 C132.231826,55.0524171 132.240377,55.3194313 132.258048,55.5463507 L132.310778,56.2805687 L131.180372,56.2805687 Z M117.999145,46.3416114 C117.70101,46.0791469 117.394894,45.8607583 117.079087,45.6855924 C116.780952,45.5112796 116.395884,45.3537441 115.922744,45.2138389 C115.449319,45.0739336 114.906063,45.003981 114.292691,45.003981 C113.661932,45.003981 113.053121,45.1049289 112.465971,45.3054028 C111.878821,45.5064455 111.352952,45.8260664 110.888932,46.2628436 C110.424343,46.7001896 110.051816,47.2595261 109.771638,47.9411374 C109.491174,48.6230332 109.351227,49.4357346 109.351227,50.3800948 C109.351227,51.0617062 109.429894,51.70891 109.587797,52.3205687 C109.745415,52.9327962 109.995097,53.4745024 110.336841,53.9465403 C110.678585,54.4185782 111.120942,54.7945024 111.664198,55.0740284 C112.207169,55.3541232 112.873271,55.4940284 113.661932,55.4940284 C114.39815,55.4940284 115.037459,55.3583886 115.581,55.0873934 C116.123971,54.8163981 116.575164,54.48 116.934865,54.0776303 C117.29371,53.6758294 117.561063,53.251564 117.736353,52.8059716 C117.911357,52.3598104 117.999145,51.9625592 117.999145,51.6125118 L117.999145,46.3416114 Z M118.051589,56.2805687 C118.033918,56.036019 118.020807,55.7081517 118.012541,55.2972512 C118.00342,54.8866351 117.999145,54.5146919 117.999145,54.1825592 C117.718681,54.6725118 117.368386,55.0740284 116.947976,55.3888152 C116.579725,55.6862559 116.115135,55.9618009 115.554778,56.2151659 C114.993565,56.4685308 114.319198,56.5953555 113.530536,56.5953555 C112.601643,56.5953555 111.795594,56.4335545 111.112391,56.110237 C110.428903,55.7869194 109.8637,55.3455924 109.416783,54.7856872 C108.97015,54.2263507 108.636957,53.5660664 108.418058,52.8059716 C108.198589,52.0453081 108.089425,51.2280569 108.089425,50.3536493 C108.089425,49.3748815 108.242768,48.4879621 108.549454,47.6917536 C108.855855,46.8969668 109.285386,46.2193365 109.837478,45.6594313 C110.38957,45.1003791 111.046551,44.6675829 111.808705,44.3616114 C112.57143,44.0559242 113.407976,43.902654 114.319198,43.902654 C114.827111,43.902654 115.295976,43.9637915 115.725507,44.0860664 C116.154754,44.2086256 116.544382,44.3397156 116.895246,44.4793365 C117.263213,44.6365877 117.631179,44.8293839 117.999145,45.0563033 L117.999145,38.7907109 L119.155773,38.7907109 L119.155773,53.763128 C119.155773,54.2701422 119.155773,54.6938389 119.155773,55.0350711 C119.155773,55.376019 119.173159,55.7911848 119.208502,56.2805687 L118.051589,56.2805687 Z M95.1766908,46.7610427 C95.1766908,46.42891 95.1766908,46.1445498 95.1766908,45.9088152 C95.1766908,45.6727962 95.1766908,45.4632227 95.1766908,45.2792417 C95.1766908,45.095545 95.1724155,44.9212322 95.1635797,44.7548815 C95.154744,44.5890995 95.1413478,44.4099526 95.1242464,44.2171564 L96.2281449,44.2171564 C96.2455314,44.4099526 96.2586425,44.5842654 96.2677633,44.7418009 C96.276314,44.8993365 96.2848647,45.0693839 96.2939855,45.2527962 C96.3025362,45.4367773 96.3070966,45.6466351 96.3070966,45.8823697 C96.3070966,46.1183886 96.3070966,46.4027488 96.3070966,46.7345972 C96.4470435,46.4727014 96.6442802,46.1752607 96.8985217,45.843128 C97.1524783,45.5112796 97.467715,45.2004739 97.8448019,44.9121327 C98.2213188,44.6237915 98.6727971,44.3837915 99.1983816,44.1909953 C99.7242512,43.9990521 100.328787,43.902654 101.012275,43.902654 C101.870768,43.902654 102.593589,44.0252133 103.181024,44.2694787 C103.767889,44.5148815 104.245304,44.86891 104.613556,45.3318483 C104.981522,45.7953555 105.244314,46.3544076 105.401932,47.0101422 C105.559836,47.6655924 105.638502,48.3958294 105.638502,49.1997156 L105.638502,56.2805687 L104.455652,56.2805687 L104.455652,49.5932701 C104.455652,48.7018009 104.376986,47.9587678 104.219082,47.364455 C104.061464,46.7701422 103.828884,46.2978199 103.522483,45.9480569 C103.215797,45.5985782 102.838995,45.3537441 102.392077,45.2138389 C101.945444,45.0739336 101.432971,45.003981 100.854657,45.003981 C100.083097,45.003981 99.4172802,45.1612322 98.8566377,45.476019 C98.2959952,45.7905213 97.8316908,46.192891 97.4637246,46.6822749 C97.0954734,47.1719431 96.8198551,47.7139336 96.6357295,48.3085308 C96.4516039,48.903128 96.3598261,49.4886256 96.3598261,50.0653081 L96.3598261,56.2805687 L95.1766908,56.2805687 L95.1766908,46.7610427 Z M81.4046087,44.2171564 L82.5874589,44.2171564 L82.5874589,50.9047393 C82.5874589,51.7959242 82.6615652,52.5392417 82.8106329,53.1338389 C82.9594155,53.7281517 83.1828744,54.2001896 83.4810097,54.5496682 C83.7785749,54.8994313 84.1468261,55.1442654 84.5849082,55.2838863 C85.0229903,55.4240758 85.5314734,55.4940284 86.1097874,55.4940284 C86.8628213,55.4940284 87.520087,55.3362085 88.0810145,55.0217062 C88.641942,54.7072038 89.101686,54.3048341 89.4611014,53.8154502 C89.8199469,53.3260664 90.0875845,52.7840758 90.2628744,52.1894787 C90.4375942,51.5954502 90.5256667,51.0093839 90.5256667,50.4324171 L90.5256667,44.2171564 L91.7085169,44.2171564 L91.7085169,53.7366825 C91.7085169,54.0867299 91.7085169,54.3750711 91.7085169,54.6022749 C91.7085169,54.829763 91.7085169,55.0350711 91.7085169,55.2184834 C91.7085169,55.4018957 91.7125072,55.5770616 91.721628,55.7428436 C91.7304638,55.9094787 91.7435749,56.0883412 91.7612464,56.2805687 L90.6570628,56.2805687 C90.6393913,56.0883412 90.6262802,55.9134597 90.6177295,55.7562085 C90.6086087,55.5989573 90.600058,55.4280569 90.5912222,55.2446445 C90.5826715,55.0612322 90.5781111,54.8559242 90.5781111,54.628436 C90.5781111,54.4015166 90.5781111,54.1131754 90.5781111,53.763128 C90.4375942,54.0250237 90.2452029,54.3227488 89.9997971,54.6545972 C89.7543913,54.9870142 89.4477053,55.2972512 89.0800242,55.5855924 C88.7117729,55.8739336 88.2691304,56.1147867 87.7526667,56.3067299 C87.2353478,56.4992417 86.635372,56.5953555 85.9521691,56.5953555 C85.0931063,56.5953555 84.3748454,56.4727962 83.7965314,56.2279621 C83.2182174,55.9836967 82.7490676,55.6293839 82.3902222,55.1661611 C82.0308068,54.7029384 81.7765652,54.1478673 81.6277826,53.5006635 C81.479,52.8543128 81.4046087,52.1198104 81.4046087,51.2980095 L81.4046087,44.2171564 Z M155.437068,55.5201896 C156.137657,55.5201896 156.794923,55.3802844 157.408295,55.1004739 C158.021382,54.8209479 158.551812,54.4450237 158.998729,53.9727014 C159.445647,53.5006635 159.795657,52.9458768 160.049899,52.3074882 C160.303855,51.6696682 160.431261,50.9832227 160.431261,50.2487204 C160.431261,49.549763 160.299865,48.8812322 160.036787,48.2425592 C159.773995,47.6047393 159.41914,47.0408531 158.972222,46.5511848 C158.525589,46.0618009 157.995159,45.677346 157.382072,45.3972512 C156.768415,45.1177251 156.120271,44.9778199 155.437068,44.9778199 C154.718237,44.9778199 154.056981,45.1177251 153.452444,45.3972512 C152.847623,45.677346 152.322039,46.0529858 151.875406,46.5250237 C151.428488,46.9967773 151.077623,47.5521327 150.823667,48.190237 C150.569425,48.8286256 150.442589,49.5147867 150.442589,50.2487204 C150.442589,50.9658768 150.573986,51.638673 150.836778,52.2682464 C151.09957,52.8975355 151.45471,53.4571564 151.901628,53.9465403 C152.348261,54.4362085 152.878121,54.8209479 153.491778,55.1004739 C154.10515,55.3802844 154.753295,55.5201896 155.437068,55.5201896 Z M155.437068,56.5953555 C154.578005,56.5953555 153.771957,56.4290047 153.018353,56.096872 C152.265034,55.7650237 151.603208,55.3100474 151.034014,54.7333649 C150.464251,54.1561137 150.017618,53.4836019 149.693546,52.7138389 C149.368903,51.9446445 149.20701,51.123128 149.20701,50.2487204 C149.20701,49.3748815 149.368903,48.5533649 149.693546,47.7836019 C150.017618,47.0144076 150.464251,46.3416114 151.034014,45.7643602 C151.603208,45.1873934 152.265034,44.7329858 153.018353,44.4008531 C153.771957,44.0687204 154.578005,43.902654 155.437068,43.902654 C156.295275,43.902654 157.101609,44.0687204 157.855213,44.4008531 C158.608531,44.7329858 159.270072,45.1873934 159.839836,45.7643602 C160.409029,46.3416114 160.855947,47.0144076 161.180304,47.7836019 C161.504377,48.5533649 161.666556,49.3748815 161.666556,50.2487204 C161.666556,51.123128 161.504377,51.9446445 161.180304,52.7138389 C160.855947,53.4836019 160.409029,54.1561137 159.839836,54.7333649 C159.270072,55.3100474 158.608531,55.7650237 157.855213,56.096872 C157.101609,56.4290047 156.295275,56.5953555 155.437068,56.5953555 Z M72.8108454,55.5201896 C73.5114348,55.5201896 74.1687005,55.3802844 74.7820725,55.1004739 C75.3954444,54.8209479 75.9255894,54.4450237 76.3725072,53.9727014 C76.8194251,53.5006635 77.1697198,52.9458768 77.4239614,52.3074882 C77.6776329,51.6696682 77.8050386,50.9832227 77.8050386,50.2487204 C77.8050386,49.549763 77.6736425,48.8812322 77.4108502,48.2425592 C77.148058,47.6047393 76.7929179,47.0408531 76.346,46.5511848 C75.8993671,46.0618009 75.3689372,45.677346 74.7558502,45.3972512 C74.1421932,45.1177251 73.4943333,44.9778199 72.8108454,44.9778199 C72.0920145,44.9778199 71.4307585,45.1177251 70.8262222,45.3972512 C70.221401,45.677346 69.6958164,46.0529858 69.2491836,46.5250237 C68.8022657,46.9967773 68.451401,47.5521327 68.1974444,48.190237 C67.9434879,48.8286256 67.8163671,49.5147867 67.8163671,50.2487204 C67.8163671,50.9658768 67.9477633,51.638673 68.2108406,52.2682464 C68.4733478,52.8975355 68.8284879,53.4571564 69.2754058,53.9465403 C69.7223237,54.4362085 70.2518986,54.8209479 70.8655556,55.1004739 C71.4789275,55.3802844 72.1273575,55.5201896 72.8108454,55.5201896 Z M72.8108454,56.5953555 C71.9520676,56.5953555 71.1457343,56.4290047 70.3924155,56.096872 C69.6388116,55.7650237 68.9772705,55.3100474 68.4077923,54.7333649 C67.838314,54.1561137 67.3913961,53.4836019 67.0673237,52.7138389 C66.7426812,51.9446445 66.5810725,51.123128 66.5810725,50.2487204 C66.5810725,49.3748815 66.7426812,48.5533649 67.0673237,47.7836019 C67.3913961,47.0144076 67.838314,46.3416114 68.4077923,45.7643602 C68.9772705,45.1873934 69.6388116,44.7329858 70.3924155,44.4008531 C71.1457343,44.0687204 71.9520676,43.902654 72.8108454,43.902654 C73.6690531,43.902654 74.4753865,44.0687204 75.2289903,44.4008531 C75.9823092,44.7329858 76.6441353,45.1873934 77.2136135,45.7643602 C77.7828068,46.3416114 78.2297246,47.0144076 78.5543671,47.7836019 C78.8781546,48.5533649 79.0406184,49.3748815 79.0406184,50.2487204 C79.0406184,51.123128 78.8781546,51.9446445 78.5543671,52.7138389 C78.2297246,53.4836019 77.7828068,54.1561137 77.2136135,54.7333649 C76.6441353,55.3100474 75.9823092,55.7650237 75.2289903,56.096872 C74.4753865,56.4290047 73.6690531,56.5953555 72.8108454,56.5953555 Z M55.9459662,38.7907109 L66.4605072,38.7907109 L66.4605072,39.9708057 L57.2077681,39.9708057 L57.2077681,46.5796209 L64.4362657,46.5796209 L64.4362657,47.7597156 L57.2077681,47.7597156 L57.2077681,56.2805687 L55.9459662,56.2805687 L55.9459662,38.7907109 L55.9459662,38.7907109 Z" id="Fill-5" fill="#0D9C90"></path>
  </g>
</svg>
