<svg width="150" height="150" viewBox="0 0 150 150" xmlns="http://www.w3.org/2000/svg"><title>Group 21</title><path d="M81.627 2.092c5.496-3.846 13.089-2.227 16.551 3.535a11.581 11.581 0 0 0 12.11 5.417c6.58-1.27 12.857 3.313 13.69 9.992.603 4.838 4.144 8.787 8.87 9.895 6.525 1.53 10.404 8.282 8.462 14.723a11.679 11.679 0 0 0 4.095 12.665c5.34 4.066 6.152 11.817 1.77 16.907v.003a11.684 11.684 0 0 0-1.386 13.24c3.234 5.896.834 13.31-5.23 16.17-4.393 2.073-7.038 6.673-6.629 11.533.568 6.705-4.622 12.5-11.32 12.633a11.6 11.6 0 0 0-10.725 7.827c-2.198 6.36-9.287 9.53-15.458 6.914a11.558 11.558 0 0 0-12.965 2.77h-.003c-4.579 4.912-12.34 4.912-16.92 0a11.56 11.56 0 0 0-12.965-2.77c-6.174 2.617-13.263-.554-15.461-6.914-1.59-4.605-5.87-7.73-10.721-7.827-6.7-.133-11.892-5.928-11.324-12.633.41-4.86-2.233-9.46-6.629-11.534-6.064-2.86-8.461-10.273-5.227-16.168a11.693 11.693 0 0 0-1.386-13.241v-.003c-4.382-5.09-3.573-12.841 1.768-16.907A11.684 11.684 0 0 0 8.69 45.654C6.746 39.213 10.626 32.46 17.15 30.93c4.73-1.108 8.267-5.057 8.87-9.895.834-6.679 7.11-11.263 13.691-9.992a11.58 11.58 0 0 0 12.11-5.417c3.465-5.762 11.054-7.381 16.55-3.535a11.554 11.554 0 0 0 13.256 0z" fill="#FFF" fill-rule="evenodd"/></svg>