<?xml version="1.0" encoding="UTF-8"?>
<!-- Generator: Adobe Illustrator 24.3.0, SVG Export Plug-In . SVG Version: 6.00 Build 0)  -->
<svg xmlns="http://www.w3.org/2000/svg" xmlns:xlink="http://www.w3.org/1999/xlink" version="1.1" id="Layer_1" x="0px" y="0px" viewBox="0 0 766.1 259.9" style="enable-background:new 0 0 766.1 259.9;" xml:space="preserve">
<style type="text/css">
	.st0{fill:#44A091;}
</style>
<g>
	<path class="st0" d="M626.1,45.9c0,0.5,0,1,0,1.4c0,45.2,0,90.3,0,135.5c0,1.2-0.3,1.6-1.6,1.6c-2.9-0.1-5.8,0-8.8,0   c-7,0-12.4-5.2-12.5-12.2c0-0.1,0-0.3,0-0.7c-0.7,0.8-1.3,1.4-1.8,2c-5.9,6.3-13.4,9.9-21.8,11.4c-11.3,2-22.3,1-32.8-3.8   c-14.5-6.7-23.3-18.1-26.8-33.5c-2.7-11.8-2.2-23.6,2.4-34.9c6.6-16.1,18.7-25.7,35.6-29.2c9.3-2,18.7-1.7,27.8,1.4   c6,2,11.3,5.4,15.6,10.1c0.2,0.2,0.4,0.5,0.5,0.8c0.1-0.1,0.2-0.1,0.3-0.2c0-0.4,0-0.8,0-1.2c0-15.7,0-31.3,0-47c0-0.4,0-0.9,0-1.3   C610.2,45.9,618.1,45.9,626.1,45.9z M572.9,165.4c0.3,0,0.8,0,1.4-0.1c11.9-0.8,20.5-6.4,25.5-17.2c3.1-6.7,3.5-13.9,2.2-21.1   c-1.5-8.5-5.6-15.4-12.9-20.1c-5.9-3.8-12.5-5.1-19.4-4.5c-8.8,0.8-16,4.5-21.2,11.7c-5.7,7.9-6.9,16.8-5.4,26.2   C545.5,155.4,557.3,165.4,572.9,165.4z"></path>
	<path class="st0" d="M702.8,104.6c-2.1,0-4.1-0.5-6.2-0.4c-6.5,0.2-12.6,1.5-17.9,5.4c-5.7,4.3-8.7,10.2-10,17c-0.6,3-0.8,6-0.8,9   c0,12.1,0,24.1,0,36.2c0,7.1-5.4,12.5-12.5,12.5c-3.4,0-6.7,0-10.1,0c-0.9,0-1.2-0.2-1.2-1.2c0-11.6,0-23.2,0-34.9   c0-21.2,0-42.5,0-63.7c0-1,0.2-1.3,1.3-1.3c6.8,0.1,13.5,0,20.3,0c0.8,0,1.1,0.2,1.1,1c0,4.4,0,8.9,0,13.3c0.2,0.1,0.2,0,0.3-0.1   c5.1-7.5,12.3-11.7,21-13.8c4.4-1.1,9-1.5,13.5-1.6c0.4,0,0.8,0.1,1.2-0.1C702.8,89.6,702.8,97.1,702.8,104.6z"></path>
	<path class="st0" d="M366.9,171.4c-5.9,7.1-13.3,11.4-22.1,13c-17.3,3.3-33.2,0.3-46.7-11.6c-7.5-6.7-12.1-15.2-14.2-24.9   c-2.6-12.2-2.3-24.3,2.5-35.9c6.4-15.4,18.1-24.7,34.3-28.4c9-2.1,18.1-2,27.1,0.7c6.3,1.9,11.9,5.2,16.6,9.8   c0.4,0.4,0.7,0.8,1.3,1.4c0.1-0.7,0.2-1.1,0.3-1.6c0.9-6.2,6-10.6,12.2-10.6c3.4,0,6.8,0,10.2,0c0.9,0,1.2,0.2,1.2,1.2   c0,10.6,0,21.2,0,31.7c0,22.3,0,44.6,0,66.8c0,1.1-0.3,1.4-1.4,1.3c-3.6-0.1-7.1,0.3-10.7-0.2c-6.1-0.8-10.5-5.9-10.5-12   C366.9,172,366.9,171.8,366.9,171.4z M366.2,133.8c0-0.5,0-1,0-1.4c0-0.4-0.1-0.8-0.1-1.2c-0.4-6.4-2.1-12.3-6.1-17.4   c-6.6-8.5-15.5-11.9-26.1-11.4c-9.1,0.5-16.4,4.3-21.8,11.6c-3.6,4.8-5.3,10.3-5.7,16.2c-0.5,6.2,0.1,12.3,2.6,18   c5,11.2,16.1,17.8,28.5,17.1c9.1-0.5,16.7-4,22.3-11.2C364.5,148.2,366.1,141.2,366.2,133.8z"></path>
	<path class="st0" d="M429.4,96c1.1-1,2-2,3.1-2.9c5.9-5.4,12.9-8.5,20.6-9.9c8.3-1.5,16.6-1.6,24.8,0.7c14.9,4.1,24,13.8,27.3,29   c0.9,4.3,1.3,8.8,1.3,13.2c0,19,0,37.9,0,56.9c0,1.1-0.2,1.5-1.4,1.4c-3.1-0.1-6.2,0-9.4,0c-7.8,0-13-5.2-13-13   c0-14.4,0-28.7,0-43.1c0-3.7-0.5-7.3-1.7-10.8c-2.6-7.7-7.9-12.3-15.8-13.9c-6.2-1.3-12.4-0.9-18.4,1.4   c-8.6,3.4-13.4,9.9-15.4,18.8c-0.7,3.1-1,6.3-1,9.5c0,12.9,0,25.9,0,38.8c0,6.9-5.5,12.4-12.4,12.4c-3.3,0-6.6-0.1-9.8,0   c-1.2,0-1.5-0.2-1.5-1.5c0.1-13.8,0-27.6,0-41.4c0-18.9,0-37.8,0-56.8c0-1.2,0.3-1.4,1.5-1.4c3.5,0.1,7-0.3,10.4,0.2   c6.3,0.8,10.6,5.7,10.7,12.1C429.4,95.7,429.4,95.8,429.4,96z"></path>
	<path class="st0" d="M287.8,184.3c-7.2,0-14.2,0.1-21.2,0c-3.8-0.1-6.9-1.9-9.2-4.9c-7.2-9.4-14.4-18.7-21.6-28.1   c-0.2-0.2-0.4-0.5-0.6-0.7c-7.4,9.6-14.8,19.1-22.2,28.6c-2.6,3.4-6.1,5.2-10.4,5.1c-6.1,0-12.2,0-18.2,0c-0.4,0-0.8,0-1.4,0   c0.8-1.1,1.5-2,2.2-2.9c12.2-15.6,24.3-31.2,36.5-46.7c0.6-0.8,0.5-1.2,0-1.9c-11.9-15.9-23.7-31.8-35.6-47.7   c-0.4-0.6-0.8-1.1-1.4-1.9c2.4,0,4.6,0,6.8,0c4.4,0,8.8,0,13.2,0c4.3,0,7.8,1.7,10.3,5.3c6.7,9.3,13.4,18.6,20.1,28   c0.6,0.8,0.8,0.8,1.4,0c6.7-9.3,13.4-18.7,20.1-28c2.5-3.5,6-5.3,10.3-5.3c6.3,0,12.6,0,19,0c0.1,0.5-0.3,0.7-0.5,1   c-12.1,16.2-24.3,32.4-36.4,48.6c-0.6,0.7-0.5,1.2,0,1.9c12.8,16.2,25.5,32.5,38.2,48.7C287.4,183.7,287.5,183.9,287.8,184.3z"></path>
	<path class="st0" d="M119.3,127.6c-8.5-14.7-16.8-29.1-25.3-43.7c1.1-0.4,2.1-0.5,3.2-0.5c14.7,0,29.4,0,44.1,0   c1.1,0,2.1,0.2,3.3,0.5C136.2,98.4,127.8,112.9,119.3,127.6z"></path>
	<path class="st0" d="M62.7,137c17.1,0,34,0,51,0c0,0.5-0.3,0.8-0.5,1.1c-8,13.9-16.1,27.8-24,41.6c-0.6,1-0.9,0.9-1.5,0.1   c-1.6-2.1-2.8-4.5-4.1-6.7c-6.7-11.6-13.4-23.2-20.1-34.8C63.2,137.9,63,137.5,62.7,137z"></path>
	<path class="st0" d="M124.8,130.6c0.9-1.6,1.7-3.1,2.6-4.6c7.3-12.7,14.7-25.3,22-38c0.7-1.2,0.8-1.3,1.6-0.1   c2,2.7,3.5,5.7,5.2,8.6c6.4,11,12.7,22,19.1,33c0.2,0.3,0.4,0.6,0.4,1C158.8,130.6,141.9,130.6,124.8,130.6z"></path>
	<path class="st0" d="M144.5,183.8c-1.1,0.4-2.2,0.5-3.3,0.5c-14.6,0-29.3,0-43.9,0c-3.5,0-3.6-0.2-1.9-3.1   c7.7-13.4,15.5-26.8,23.2-40.2c0.4-0.6,0.6-1.1,1.1-0.1c8,13.9,16,27.8,24.1,41.7C144.1,183,144.3,183.3,144.5,183.8z"></path>
	<path class="st0" d="M124.8,137c17.1,0,34,0,50.9,0c0.1,0.5-0.3,0.9-0.5,1.2c-7.6,13.2-15.2,26.3-22.8,39.5   c-0.4,0.7-0.9,1.4-1.4,2.1c-0.9,1.1-0.9,1.1-1.6-0.1c-3-5.2-6-10.4-9-15.5c-5-8.7-10.1-17.4-15.1-26.1   C125.2,137.7,125,137.4,124.8,137z"></path>
	<path class="st0" d="M113.9,130.7c-17.1,0-34,0-51,0c-0.2-0.4,0.2-0.7,0.3-0.9c7.7-13.3,15.3-26.5,23-39.8c0.5-0.8,1.1-1.6,1.6-2.4   c0.5-0.7,0.8-0.7,1.2,0.1c1.8,3.2,3.7,6.4,5.6,9.6c6.2,10.7,12.4,21.5,18.6,32.2C113.5,129.9,113.6,130.2,113.9,130.7z"></path>
</g>
</svg>
