<?xml version="1.0" encoding="UTF-8"?>
<svg xmlns="http://www.w3.org/2000/svg" xmlns:xlink="http://www.w3.org/1999/xlink" width="45px" height="32px" viewBox="0 0 45 32" version="1.1">
  <!-- Generator: Sketch 64 (93537) - https://sketch.com -->
  <title>Group 3</title>
  <desc>Created with Sketch.</desc>
  <defs>
    <polygon id="path-1" points="0 0 45 0 45 32 0 32"></polygon>
  </defs>
  <g id="Desktop" stroke="none" stroke-width="1" fill="none" fill-rule="evenodd">
    <g id="Module-States" transform="translate(-2608.000000, -1897.000000)">
      <g id="Footer-Copy" transform="translate(1559.000000, 1754.000000)">
        <g id="Group" transform="translate(893.000000, 143.000000)">
          <g id="Group-3" transform="translate(156.000000, 0.000000)">
            <mask id="mask-2" fill="white">
              <use xlink:href="#path-1"></use>
            </mask>
            <g id="Clip-2"></g>
            <path d="M17.8977273,22.7532903 L17.8977273,9.24670968 L29.6590909,16.0002581 L17.8977273,22.7532903 Z M44.0596023,4.99690323 C43.5421023,3.02993548 42.0172159,1.48103226 40.0811932,0.955354839 C36.5719602,0 22.5,0 22.5,0 C22.5,0 8.42803977,0 4.91880682,0.955354839 C2.98278409,1.48103226 1.45789773,3.02993548 0.940397727,4.99690323 C0,8.56180645 0,16 0,16 C0,16 0,23.4379355 0.940397727,27.0030968 C1.45789773,28.9700645 2.98278409,30.5189677 4.91880682,31.0449032 C8.42803977,32 22.5,32 22.5,32 C22.5,32 36.5719602,32 40.0811932,31.0449032 C42.0172159,30.5189677 43.5421023,28.9700645 44.0596023,27.0030968 C45,23.4379355 45,16 45,16 C45,16 45,8.56180645 44.0596023,4.99690323 L44.0596023,4.99690323 Z" id="Fill-1" fill="#FEFEFE" mask="url(#mask-2)"></path>
          </g>
        </g>
      </g>
    </g>
  </g>
</svg>
