<?xml version="1.0" encoding="UTF-8"?>
<svg xmlns="http://www.w3.org/2000/svg" xmlns:xlink="http://www.w3.org/1999/xlink" width="371.878416px" height="37.2394914px" viewBox="0 0 371.878416 37.2394914" version="1.1">
  <title>Bank_of_America_logo</title>
  <g id="Logos" stroke="none" stroke-width="1" fill="none" fill-rule="evenodd">
    <g id="Artboard" transform="translate(-218.121584, -231.753200)" fill="#0D9C90" fill-rule="nonzero">
      <g id="Bank_of_America_logo" transform="translate(218.121584, 231.753200)">
        <path d="M337.428013,37.2394914 C348.274467,27.942531 363.511152,18.9038195 371.878416,15.6498834 C370.587172,14.8234869 368.57283,13.6355419 366.30024,12.3442974 C355.505436,15.9081323 342.90289,23.8105486 331.643238,32.7459606 C333.55428,34.1921544 335.568621,35.689998 337.428013,37.2394914 L337.428013,37.2394914 Z" id="Path"></path>
        <path d="M332.469634,11.982749 C330.868491,11.2080023 329.112399,10.4849054 327.769504,9.86510799 C323.689172,11.8794494 318.369244,14.9267864 311.654773,19.730216 C313.100967,20.5049627 314.65046,21.4346587 316.303253,22.3643548 C321.468231,18.542271 326.684859,14.9267864 332.469634,11.982749 L332.469634,11.982749 Z" id="Path"></path>
        <path d="M342.128143,7.54086789 C340.165451,6.45622251 333.34768,3.92538328 328.647551,2.8407379 C327.253006,3.3572357 325.290315,4.1319824 323.947421,4.70012999 C325.651863,5.16497801 332.004786,6.86942075 337.428013,9.60685909 C338.822557,8.93541195 340.785249,8.10901547 342.128143,7.54086789 Z" id="Path"></path>
        <path d="M319.040691,6.86942075 C312.997667,9.65850887 306.644744,13.4805926 303.184209,15.7015331 C304.423804,16.2696807 305.663398,16.7345287 307.367841,17.5609252 C315.012009,12.3959472 321.003383,9.24531063 323.379273,8.21231503 C321.67483,7.59251767 320.073687,7.17931943 319.040691,6.86942075 Z" id="Path"></path>
        <path d="M346.673324,5.93972471 C348.067868,5.47487669 349.669011,5.06167845 351.063555,4.64848021 C347.034872,2.94403746 341.973194,1.13629516 337.428013,0 C336.704916,0.20659912 334.535625,0.774746701 333.037782,1.23959472 C334.587275,1.70444274 339.700603,2.89238768 346.673324,5.93972471 Z M321.209982,25.360042 C322.862775,26.3413878 324.618868,27.6842821 326.32331,28.8205773 C337.634612,20.0401147 348.790965,13.2739935 361.031963,9.45190975 C359.32752,8.57386349 357.829676,7.79911679 355.918634,6.86942075 C348.584366,8.72881283 336.033469,13.7388415 321.209982,25.360042 Z" id="Shape"></path>
        <path d="M0,34.5537029 L8.26396481,34.5537029 C12.447597,34.5537029 14.4102886,32.3844121 14.4102886,29.3370751 C14.4102886,26.8578856 13.1190441,25.2050927 10.4332556,24.6885949 C12.8091455,24.1204473 13.8937908,22.6742534 13.8937908,20.5566125 C13.8937908,17.8708239 11.9310992,15.7015331 7.74746701,15.7015331 L0.0516497801,15.7015331 L0.0516497801,34.5537029 L0,34.5537029 Z M7.17931943,26.5479869 C8.72881283,26.5479869 9.81345821,27.3227337 9.81345821,28.8722271 C9.81345821,30.52502 8.78046261,31.1964672 7.17931943,31.1964672 L4.49353087,31.1964672 L4.49353087,26.4963372 L7.17931943,26.4963372 L7.17931943,26.5479869 L7.17931943,26.5479869 Z M6.66282163,19.0071191 C8.21231503,19.0071191 9.29696041,19.6785662 9.29696041,21.2280596 C9.29696041,22.777553 8.26396481,23.4490001 6.66282163,23.4490001 L4.49353087,23.4490001 L4.49353087,19.0071191 L6.66282163,19.0071191 L6.66282163,19.0071191 Z M31.0931676,15.6498834 L26.4446874,15.6498834 L19.3686675,34.5537029 L24.0687975,34.5537029 L25.360042,30.6283196 L32.177813,30.6283196 L33.4690575,34.5537029 L38.2208372,34.5537029 L31.0931676,15.6498834 L31.0931676,15.6498834 Z M28.7689275,20.195064 L30.989868,27.1677843 L26.4446874,27.1677843 L28.7689275,20.195064 L28.7689275,20.195064 Z M61.7731369,15.6498834 L57.4862052,15.6498834 L57.4862052,28.3040795 L49.4288395,15.6498834 L44.62541,15.6498834 L44.62541,34.5537029 L48.9123417,34.5537029 L48.9123417,21.9511565 L56.9697074,34.5537029 L61.7731369,34.5537029 L61.7731369,15.6498834 Z M81.5550027,34.5537029 L75.3570291,24.9468438 L75.3570291,34.5537029 L70.7601987,34.5537029 L70.7601987,15.6498834 L75.3570291,15.6498834 L75.3570291,24.7402446 L81.245104,15.6498834 L86.3584323,15.6498834 L80.1604587,24.7402446 L86.9265798,34.5537029 L81.5550027,34.5537029 L81.5550027,34.5537029 Z M103.196261,25.1017931 C103.196261,28.8722271 105.468851,31.1964672 108.412888,31.1964672 C111.356926,31.1964672 113.629516,28.8722271 113.629516,25.1017931 C113.629516,21.3313592 111.356926,19.0071191 108.412888,19.0071191 C105.468851,19.0071191 103.196261,21.3313592 103.196261,25.1017931 Z M98.3411812,25.1017931 C98.392831,19.5752666 102.266565,15.2366851 108.412888,15.2366851 C114.559212,15.2366851 118.432946,19.5752666 118.484595,25.1017931 C118.432946,30.6283196 114.559212,34.9669011 108.412888,34.9669011 C102.266565,34.9669011 98.392831,30.6283196 98.3411812,25.1017931 Z M124.785869,34.5537029 L129.382699,34.5537029 L129.382699,27.1161345 L135.374074,27.1161345 L135.374074,23.5006499 L129.382699,23.5006499 L129.382699,19.265368 L136.613668,19.265368 L137.440065,15.6498834 L124.785869,15.6498834 L124.785869,34.5537029 L124.785869,34.5537029 Z M158.874723,15.6498834 L154.226243,15.6498834 L147.150223,34.5537029 L151.850353,34.5537029 L153.141598,30.6283196 L159.959369,30.6283196 L161.250613,34.5537029 L166.002393,34.5537029 L158.874723,15.6498834 Z M156.550483,20.195064 L158.771424,27.1677843 L154.226243,27.1677843 L156.550483,20.195064 Z M193.273477,15.6498834 L187.9019,15.6498834 L182.995171,25.8765398 L178.088442,15.6498834 L172.716865,15.6498834 L172.716865,34.5537029 L176.848847,34.5537029 L176.848847,21.8995067 L182.943521,34.5537029 L189.038195,21.8995067 L189.038195,34.5537029 L193.325127,34.5537029 L193.273477,15.6498834 L193.273477,15.6498834 Z M202.208889,34.5537029 L215.121334,34.5537029 L215.121334,30.9382183 L206.805719,30.9382183 L206.805719,26.7029363 L213.365241,26.7029363 L213.365241,23.1907512 L206.805719,23.1907512 L206.805719,19.265368 L214.398237,19.265368 L215.224634,15.6498834 L202.208889,15.6498834 L202.208889,34.5537029 Z M232.630609,34.5537029 L237.640638,34.5537029 L232.940508,26.5479869 C235.522997,25.82489 236.762592,24.0171477 236.762592,21.3830089 C236.762592,17.9741235 234.696601,15.7015331 230.04812,15.7015331 L222.765501,15.7015331 L222.765501,34.6053526 L227.259032,34.6053526 L227.259032,27.1677843 L228.498627,27.1677843 L232.630609,34.5537029 Z M229.170074,19.1620684 C231.081116,19.1620684 232.062462,19.9884649 232.062462,21.5896081 C232.062462,23.1907512 231.081116,24.0171477 229.170074,24.0171477 L227.207382,24.0171477 L227.207382,19.1620684 L229.170074,19.1620684 L229.170074,19.1620684 Z M244.510059,34.5537029 L249.106889,34.5537029 L249.106889,15.7015331 L244.510059,15.7015331 L244.510059,34.5537029 Z M271.729493,29.4920244 C269.9734,30.7316191 268.423907,31.1448174 266.822764,31.1448174 C263.310579,31.1448174 260.831389,28.7172777 260.831389,25.1017931 C260.831389,21.4863085 263.258929,19.0587688 266.667814,19.0587688 C268.217308,19.0587688 269.766801,19.4719671 271.471244,20.7115618 L271.471244,16.4246301 C269.921751,15.5465838 268.114008,15.1850353 266.099667,15.1850353 C259.850043,15.1850353 255.92466,19.5236169 255.87301,25.0501433 C255.92466,30.6283196 259.746744,34.9152513 266.099667,34.9152513 C268.217308,34.9152513 270.02505,34.5537029 271.677843,33.6756566 L271.677843,29.4920244 L271.729493,29.4920244 L271.729493,29.4920244 Z M288.567321,15.6498834 L283.918841,15.6498834 L276.842821,34.5537029 L281.542951,34.5537029 L282.834196,30.6283196 L289.651967,30.6283196 L290.943211,34.5537029 L295.694991,34.5537029 L288.567321,15.6498834 L288.567321,15.6498834 Z M286.243081,20.195064 L288.464022,27.1677843 L283.918841,27.1677843 L286.243081,20.195064 Z" id="Shape"></path>
      </g>
    </g>
  </g>
</svg>
