<?xml version="1.0" encoding="UTF-8"?>
<svg xmlns="http://www.w3.org/2000/svg" xmlns:xlink="http://www.w3.org/1999/xlink" width="298px" height="63.6px" viewBox="0 0 298 63.6" version="1.1">
  <title>Synchrony_Financial_logo(1)</title>
  <g id="Logos" stroke="none" stroke-width="1" fill="none" fill-rule="evenodd">
    <g id="Artboard" transform="translate(-190.000000, -348.000000)" fill="#0D9C90" fill-rule="nonzero">
      <g id="Synchrony_Financial_logo(1)" transform="translate(190.000000, 348.000000)">
        <path d="M137.7,28.7 L137.7,45.8 L133.8,45.8 L133.8,28.7 C133.8,23.5 131.7,21.1 127.1,21.1 C121.7,21.1 118.8,25.1 118.8,29.1 L118.8,45.9 L114.9,45.9 L114.9,17.7 L118.8,17.7 L118.8,20.8 C120.7,18.8 123.7,17.3 127.3,17.3 C134,17.3 137.7,21.4 137.7,28.7 M184.4,17.3 C180.7,17.3 177.8,18.8 175.9,20.8 L175.9,5.3 L172,5.3 L172,45.8 L175.9,45.8 L175.9,29 C175.9,25 178.7,21 184.2,21 C188.8,21 190.9,23.4 190.9,28.6 L190.9,45.8 L194.8,45.8 L194.8,28.7 C194.8,21.4 191.1,17.3 184.4,17.3 M242.9,31.6 L242.9,32 C242.9,40.2 237.1,46.3 229.4,46.3 C221.9,46.3 215.9,40 215.9,32 L215.9,31.6 C215.9,23.5 221.7,17.3 229.5,17.3 C237.3,17.4 242.9,23.3 242.9,31.6 M238.9,32 L238.9,31.6 C238.9,25.4 235,21.1 229.5,21.1 C224,21.1 219.9,25.5 219.9,31.7 L219.9,32.1 C219.9,38.2 223.9,42.6 229.4,42.6 C235,42.5 238.9,38.2 238.9,32 M259.8,17.3 C256.1,17.3 253.2,18.8 251.3,20.8 L251.3,17.7 L247.4,17.7 L247.4,45.9 L251.3,45.9 L251.3,29 C251.3,25 254.1,21 259.6,21 C264.2,21 266.3,23.4 266.3,28.6 L266.3,45.8 L270.2,45.8 L270.2,28.7 C270.2,21.4 266.5,17.3 259.8,17.3 M155.1,42.5 C149.6,42.5 145.6,38.1 145.6,32 L145.6,31.6 C145.6,25.5 149.6,21 155.2,21 C159,21 162.1,23.1 163.6,26.4 L167.8,26.4 C166,20.9 161.2,17.3 155.2,17.3 C147.5,17.3 141.6,23.4 141.6,31.6 L141.6,32 C141.6,40 147.5,46.3 155.1,46.3 C161.6,46.3 166.8,41.9 168.2,35.5 L164.1,35.5 C162.9,39.8 159.5,42.5 155.1,42.5 M213,17.3 C209.3,17.3 206.4,18.8 204.5,20.8 L204.5,17.7 L200.6,17.7 L200.6,45.9 L204.5,45.9 L204.5,29 C204.5,25 207.3,21 212.8,21 C213.8,21 214.8,21.1 215.6,21.4 L215.6,17.5 C214.7,17.4 213.9,17.3 213,17.3 M74.4,29.6 C68.1,28.6 67,27.4 67,25.2 C67,22.8 69.5,21.1 73.2,21.1 C77,21.1 79.2,22.5 79.8,25.5 L79.8,25.7 L84,25.7 L83.9,25.2 C83.1,20.2 79.3,17.5 73.3,17.5 C67.3,17.5 63,20.8 63,25.3 C63,31.2 68,32.5 73.5,33.4 C78.7,34.3 80.3,35 80.3,38.1 C80.3,40.9 77.7,42.7 73.7,42.7 C68.2,42.7 66.6,39.8 66.1,37.3 L61.9,37.3 C62.4,42.9 66.9,46.4 73.7,46.4 C80,46.4 84.4,42.9 84.4,38 C84.5,31.8 79.7,30.5 74.4,29.6 M294,17.7 L285.5,40.8 L275.5,17.7 L271.4,17.7 L283.3,45.7 L279.6,56.7 L283.7,56.7 L298,17.7 L294,17.7 Z M107.5,17.7 L99,40.8 L89,17.7 L84.9,17.7 L96.8,45.7 L93.1,56.7 L97.2,56.7 L111.5,17.7 L107.5,17.7 Z" id="Shape"></path>
        <path d="M12.3,31.8 L0,31.8 L0,63.6 L12.3,63.6 L12.3,31.8 Z M30.4,0 L30.4,63.6 L18.1,63.6 L18.1,0 L30.4,0 Z M48.4,0 L48.4,31.8 L36.2,31.8 L36.2,0 L48.4,0 Z" id="Shape"></path>
      </g>
    </g>
  </g>
</svg>
