<?xml version="1.0" encoding="UTF-8"?>
<svg xmlns="http://www.w3.org/2000/svg" xmlns:xlink="http://www.w3.org/1999/xlink" width="1884px" height="722px" viewBox="0 0 1884 722" version="1.1">
  <title>TEALRTX</title>
  <g id="Page-1" stroke="none" stroke-width="1" fill="none" fill-rule="evenodd">
    <g id="TEALRTX" fill="#0D9C8F">
      <path d="M309,0 C309.333,0 309.667,0 310,0 C322.877,71.9294 335.544,143.929 348,216 C339.624,217.075 331.291,218.409 323,220 C310.649,148.414 297.982,76.9142 285,5.5 C292.988,3.33747 300.988,1.50413 309,0 Z" id="Path"></path>
      <path d="M412,1 C419.71,1.67394 427.377,2.67394 435,4 C422.667,76 410.333,148 398,220 C390.378,218.409 382.711,217.076 375,216 C387.658,144.387 399.991,72.7201 412,1 Z" id="Path"></path>
      <path d="M193,38 C229.67,100.702 266.003,163.702 302,227 C293.87,231.567 285.87,236.401 278,241.5 C276.865,242.249 275.865,242.083 275,241 C239.08,178.83 203.414,116.496 168,54 C169.248,52.0414 170.915,50.5414 173,49.5 C179.893,45.8924 186.559,42.0591 193,38 Z" id="Path"></path>
      <path d="M532,41 C539.07,43.4052 545.403,47.0719 551,52 C515.157,115.029 478.823,177.696 442,240 C435.964,236.319 429.964,232.652 424,229 C460.012,166.306 496.012,103.639 532,41 Z" id="Path"></path>
      <path d="M96,113 C151.274,158.935 206.274,205.268 261,252 C262.083,252.865 262.249,253.865 261.5,255 C253.772,262.891 246.606,271.225 240,280 C184.687,233.855 129.52,187.521 74.5,141 C74.544,139.221 75.2107,137.555 76.5,136 C82.8352,128.167 89.3352,120.5 96,113 Z" id="Path"></path>
      <path d="M631,121 C632.871,121.359 634.371,122.359 635.5,124 C638.525,127.524 641.358,131.191 644,135 C589.226,181.894 534.226,228.56 479,275 C474.655,270.653 470.655,265.986 467,261 C468.148,259.351 469.481,257.851 471,256.5 C524.818,211.844 578.151,166.677 631,121 Z" id="Path"></path>
      <path d="M888,174 C938.334,173.833 988.668,174 1039,174.5 C1071.88,175.458 1101.55,185.458 1128,204.5 C1153.38,226.42 1167.21,254.253 1169.5,288 C1172.05,313.603 1167.05,337.603 1154.5,360 C1144.17,376.334 1131.34,390.334 1116,402 C1145.33,450.003 1175.17,497.67 1205.5,545 C1205.98,545.948 1206.15,546.948 1206,548 C1169.67,548.167 1133.33,548 1097,547.5 C1075.37,508.08 1053.87,468.58 1032.5,429 C1016.08,428.008 999.577,427.675 983,428 C983,468 983,508 983,548 C951.333,548 919.667,548 888,548 C888,423.333 888,298.667 888,174 Z M983,247 C998.367,246.663 1013.7,247.163 1029,248.5 C1058.42,253.348 1073.09,270.682 1073,300.5 C1073.15,331.02 1058.15,348.687 1028,353.5 C1013.04,354.855 998.036,355.355 983,355 C983,319 983,283 983,247 Z" id="Shape"></path>
      <path d="M1178,174 C1287.67,174 1397.33,174 1507,174 C1507,201 1507,228 1507,255 C1469,255 1431,255 1393,255 C1393,352.667 1393,450.333 1393,548 C1359.33,548 1325.67,548 1292,548 C1292,450.333 1292,352.667 1292,255 C1254,255 1216,255 1178,255 C1178,228 1178,201 1178,174 Z" id="Path"></path>
      <path d="M1884,545 C1884,546 1884,547 1884,548 C1845,548.167 1806,548 1767,547.5 C1741.79,505.914 1716.96,464.081 1692.5,422 C1669,463.667 1645.5,505.333 1622,547 C1584,548.333 1546,548.333 1508,547 C1551,482.333 1594,417.667 1637,353 C1597,293.667 1557,234.333 1517,175 C1556,173.833 1595,173.667 1634,174.5 C1655.54,212.082 1677.21,249.582 1699,287 C1720.78,249.617 1742.44,212.117 1764,174.5 C1802,173.833 1840,173.833 1878,174.5 C1837.33,235.5 1796.67,296.5 1756,357.5 C1798.53,420.178 1841.2,482.678 1884,545 Z" id="Path"></path>
      <path d="M29,217 C97.512,240.835 165.512,265.835 233,292 C226.89,303.831 222.056,316.164 218.5,329 C151.173,303.836 83.673,279.169 16,255 C19.5363,242.058 23.8696,229.391 29,217 Z" id="Path"></path>
      <path d="M392,722 C391.333,722 390.667,722 390,722 C380.385,664.978 370.552,607.978 360.5,551 C350.12,607.28 339.953,663.613 330,720 C322.818,720.876 315.651,720.543 308.5,719 C294.539,716.908 280.706,714.241 267,711 C277.498,650.344 287.665,589.678 297.5,529 C267,582 236.5,635 206,688 C188.007,679.343 171.007,669.177 155,657.5 C187.879,600.891 220.046,544.057 251.5,487 C201.833,529 152.167,571 102.5,613 C89.6774,600.018 78.1774,586.018 68,571 C120.828,525.675 173.828,480.509 227,435.5 C161.365,458.88 95.6984,482.38 30,506 C24.0826,490.916 18.7492,475.583 14,460 C81.6945,434.212 149.695,409.212 218,385 C228.752,439.251 259.752,476.751 311,497.5 C370.272,516.221 422.105,504.055 466.5,461 C504.659,417.712 515.159,368.379 498,313 C571.333,311.667 644.667,311.667 718,313 C720.396,328.549 721.396,344.216 721,360 C721.14,373.726 720.474,387.393 719,401 C680.665,400.833 642.332,401 604,401.5 C639.927,414.475 675.76,427.642 711.5,441 C706.295,468.28 697.295,494.28 684.5,519 C644.533,503.68 604.366,489.18 564,475.5 C596.778,502.644 629.278,530.144 661.5,558 C662.167,559 662.167,560 661.5,561 C647.457,581.549 631.624,600.715 614,618.5 C613,619.167 612,619.167 611,618.5 C575.333,588.167 539.667,557.833 504,527.5 C503.168,526.812 502.502,526.979 502,528 C525.883,569.381 549.55,610.881 573,652.5 C566.785,657.958 560.119,662.958 553,667.5 C538.867,675.984 524.367,683.817 509.5,691 C482.581,644.83 455.914,598.497 429.5,552 C438.422,604.612 447.089,657.279 455.5,710 C434.558,715.756 413.391,719.756 392,722 Z" id="Path"></path>
      <path d="M0,371 C0,363.667 0,356.333 0,349 C0.983418,345.202 1.316751,341.202 1,337 C73,337 145,337 217,337 C216.546,344.851 215.88,352.684 215,360.5 C215.733,367.666 216.4,374.833 217,382 C145,382 73,382 1,382 C1.314971,378.129 0.981638,374.462 0,371 Z" id="Path"></path>
    </g>
  </g>
</svg>
