<?xml version="1.0" encoding="UTF-8"?>
<svg xmlns="http://www.w3.org/2000/svg" xmlns:xlink="http://www.w3.org/1999/xlink" width="32px" height="26px" viewBox="0 0 32 26" version="1.1">
  <!-- Generator: Sketch 64 (93537) - https://sketch.com -->
  <title>Twitter</title>
  <desc>Created with Sketch.</desc>
  <g id="Desktop" stroke="none" stroke-width="1" fill="none" fill-rule="evenodd">
    <g id="Module-States" transform="translate(-2765.000000, -1901.000000)" fill="#FFFFFF">
      <g id="Footer-Copy" transform="translate(1559.000000, 1754.000000)">
        <g id="Group" transform="translate(893.000000, 143.000000)">
          <path d="M345.080547,7.75197591 C343.9159,8.25526648 342.678463,8.61475974 341.368235,8.75855705 C342.714858,7.96767187 343.733924,6.70944544 344.207062,5.23552306 C342.969624,5.95450959 341.586606,6.49374948 340.130797,6.78134409 C338.929755,5.559067 337.255575,4.76818182 335.399419,4.76818182 C331.832688,4.76818182 328.957466,7.6081786 328.957466,11.1312126 C328.957466,11.6345032 328.993861,12.1377937 329.103047,12.605135 C323.75295,12.3175404 319.021572,9.90893549 315.818793,6.06235757 C315.272865,6.99704005 314.945308,7.96767187 314.945308,9.15399964 C314.945308,11.3469085 316.07356,13.2881722 317.82053,14.4385506 C316.765069,14.4026013 315.782398,14.1150067 314.908913,13.6476654 L314.908913,13.7195641 C314.908913,16.8112062 317.129021,19.3995577 320.077034,19.9747469 C319.531105,20.1185442 318.948782,20.1904428 318.366458,20.1904428 C317.966111,20.1904428 317.565764,20.1544935 317.165416,20.0825949 C317.966111,22.5990477 320.368195,24.4684127 323.170627,24.504362 C320.986914,26.2299297 318.184482,27.5241054 315.163679,27.5241054 C314.654146,27.5241054 314.144613,27.4881561 313.63508,27.4162574 C316.473907,29.2137238 319.895057,30.0046089 323.534579,30.0046089 C335.399419,30.0046089 341.877768,20.2982908 341.877768,11.8861484 L341.877768,11.0593139 C343.115205,10.1605808 344.207062,9.04615166 345.080547,7.75197591 L345.080547,7.75197591 Z" id="Twitter"></path>
        </g>
      </g>
    </g>
  </g>
</svg>
