<svg id="Layer_1" xmlns="http://www.w3.org/2000/svg" viewBox="0 0 300 300"><style>.st0{fill:none}.st1{fill:#f9b88c}</style><title>Group 277</title><path class="st0" d="M12.3 208.8c-3.5-6.5-7.5-11-11.8-13.7v5.7c.5.3.9.6 1.4 1 7.6 6.1 13.6 18 17.6 31.7 5.2 17.6 6.7 37 8.3 56.7.2 3.1.5 6.2.8 9.3h.8c-1.9-12.9-2.2-26.9-3.6-39.6-2-18.9-6.2-37.6-13.5-51.1zm254.9 9.7c-4.6 3.4-9.1 5.4-14.1 4.7-4.9-.7-9.7-3.7-14.7-3.8-4-.1-8.2 2-11.3 7-2.9 4.6-5.3 10.2-8 15.2-3.1 5.7-6.8 13.7-11.3 14.8-3.4.9-7-.9-9.8-4.6-3.9-5-7.3-10.3-12.2-11.3-4.3-.9-8.6.3-12.8.7-3.9.4-8 .2-11.6-2.7-3.3-2.7-6.1-8.1-8.7-12.9-6.1-11.8-10.7-26.1-15.4-39.9-5.3-15.6-10.4-32.7-17.6-45.5-3.4-6-7.7-11.2-12.3-13.5-5.6-2.8-11.4-.6-16.9 1.9-9.9 4.6-20 11.5-30.4 10.9-3.5-.2-8.5-1.1-11.3-5.5-1.5-2.4-2.6-7.2-3.5-10.6-1.1-4.3-2.1-8.7-3.1-13.1-3.4-16.6-8.2-31.7-16.5-41-4-4.5-8.5-7.2-13.1-7.8-4.1-.5-8.1.6-12.1 2.1v4.1c5.9-2.1 11.9-3.1 17.9.3 7.5 4.3 13.7 14 18.2 26.1 2.5 6.9 4.3 14.5 5.9 22.2 1.1 5.2 2.2 10.4 3.5 15.4 1 3.6 2 7.9 3.9 10 4.1 4.6 9.4 5.1 14 4.6 5.5-.6 11-2.9 16.3-5.5 9.3-4.6 20.1-12.5 29.6-5.2 7.6 5.9 13.1 16.4 18 28.9 6 15.5 11.3 32 17.1 47.7 2.4 6.4 4.9 12.6 7.8 18.3 2.8 5.7 6.1 12.1 9.9 14.9 7.8 5.6 16.4-.3 24.4 1.9 4.2 1.1 7.5 5.5 11 9.9 4.1 5.1 9.6 7.1 13.9 1.9 4.1-5 7.6-12.6 11-19.4 1.9-4 3.9-8.3 6.4-10.9 7.9-8.3 16.4-1.7 24.8-1 10.4.9 20-10.6 29.5-17.6 5.1-3.7 10.5-6.9 15.9-7.2v-5.3c-.8 0-1.5.1-2.3.3-10.6 1.8-20.2 13.2-30 20.5z"/><path class="st0" d="M.5 202.8v3.5c.5.4 1.1.8 1.6 1.3 7.5 6.6 13.3 19 17.2 32.9 5 17.8 6.3 37.2 7.9 56.9.1.7.1 1.4.2 2.1h.3c-1-10-1.4-20.3-2.3-29.7-2.9-28.5-11.3-57.2-24.9-67z"/><path class="st0" d="M27.8 239.4c-2.1-18.6-6.5-36.9-14-49.7-4-6.9-8.5-11.2-13.3-13.2v7.1c1.3.6 2.7 1.5 4 2.5 7.3 5.8 13.1 17.1 17 30 5.2 17 6.7 35.9 8.5 55 .9 9.8 2 20 4.8 28.6h3.9c-1.1-1.7-2-3.7-2.9-5.9-6-15.4-6-36.6-8-54.4z"/><path class="st0" d="M13.2 204.1c-3.8-7-8-11.7-12.7-14.2v3.5c.9.5 1.8 1.2 2.7 1.9 7.5 6.2 13.3 18.2 17.3 31.8 5.1 17.4 6.5 36.5 8.1 56 .5 5.6 1 11.2 1.9 16.5h.9c-3-14.2-3.2-31-4.8-45.6-2.1-18.5-6.3-36.7-13.4-49.9zm254.9 19.8c-4.7 3.5-9.3 5.7-14.4 5.2s-10-3.4-15.1-3.3c-3.9.1-8 2.2-11 7-2.8 4.3-5 9.8-7.6 14.6-3.1 5.9-6.7 13.8-11.1 15.7-3.4 1.5-7.3-.1-10.3-3.5-4.1-4.8-7.6-10.2-12.6-11.2-4.3-.8-8.6.3-12.9.6-3.9.3-8 .1-11.6-3-3.3-2.8-6.1-8.2-8.7-13-6-11.6-10.7-25.4-15.4-38.9-5.5-15.7-10.7-33.1-18.2-45.7-3.4-5.8-7.7-10.7-12.2-13-5.7-2.9-11.6-.6-17.2 2-10.1 4.7-20.5 11.7-31.1 10.3-3.3-.5-7.9-1.7-10.6-6.1-1.5-2.5-2.6-7.7-3.5-11.1-.9-3.7-1.7-7.4-2.5-11.2-3.7-17.2-8.2-33.3-16.6-43.4-3.9-4.7-8.3-7.7-12.9-8.5-4.1-.8-8.2.2-12.3 1.7v2.8c5.9-2 11.7-2.7 17.6.9 7.5 4.6 13.7 14.7 18 27.2 2.4 6.9 4.1 14.4 5.5 22.2 1.5 8.3 2.7 17.7 6 24.2 7.1 14 20 7.3 28.6 3.4 5.2-2.4 10.4-5.1 15.6-7.4 4.7-2 9.7-3.2 14.4-1.1 8.2 3.5 14.6 14.6 19.7 26.7 6.2 14.9 11.5 31.1 17.3 46.6 2.5 6.6 5 13 7.8 19 2.7 5.7 5.8 12 9.2 16 7.7 9.1 17.5 2.5 25.9 4.2 4 .8 7.2 4 10.5 8 1.9 2.3 3.9 4.8 6.2 5.6 2.2.8 5.2.7 7.3-.9 4.5-3.5 8.3-12.2 11.6-18.8 2.1-4.2 4.1-8.9 6.6-12.3 7.1-9.6 15.8-4.7 23.7-3.4 10.7 1.8 20-8.1 29.6-15.3 5.7-4.2 11.8-8.1 17.9-8.4v-4.1c-.7 0-1.3.1-2 .2-10.2 1.8-19.7 12.4-29.2 19.5z"/><path class="st0" d="M265.9 230.2c-4.8 3.2-9.6 4.2-14.7 3.2-5-1-10.1-3.5-15.1-2.1-3.5 1-6.7 3.7-9.3 8.3-2.9 5.1-5.4 11-8.2 16.2-2.9 5.4-6.5 12.8-10.9 13.4-4 .5-7.2-1.1-10.6-5.2-4.2-5-8-8.8-13.1-9.1-4.4-.3-8.8.9-13.2.8-3.8-.1-7.7-1.1-10.9-4.9-3.3-3.8-6.2-9.7-8.8-15.1-6.1-12.5-10.9-27.1-16-41-5.5-15.2-10.9-32.4-18.9-43.2-4.1-5.5-9.1-9.5-14.1-9.9-5.7-.4-11.4 2.6-16.9 5.3-9.3 4.5-19.7 11.3-29.4 8.4-3.7-1.1-7.1-4.1-9.5-9.8-2.5-5.9-3.7-13.5-5-20.6-3-17.4-7.6-33.4-15.8-43.8-3.6-4.5-7.6-7.7-11.8-9-4.4-1.4-8.8-.5-13.2 1V80c5.6-1.8 11.2-2.3 16.9 1.2 7.6 4.7 13.8 15.1 18.2 27.7 2.4 7 4.1 14.7 5.4 22.7 1.5 8.5 2.7 18.1 6 24.8 6.8 14 19.3 8.4 27.8 4.7 5.2-2.2 10.4-4.9 15.6-7.2 4.8-2.1 9.7-3.6 14.5-1.9 8.4 2.8 15.2 13.7 20.5 25.8 6.4 14.8 11.9 31.1 17.8 46.5 2.5 6.5 5.1 12.8 7.9 18.7 2.7 5.7 5.8 11.9 9.2 16 7.7 9.2 17.5 2.9 25.9 4.5 4 .8 7.2 3.8 10.6 7.7 2.1 2.4 4.3 4.9 6.8 5.3 2.1.4 4.8.2 6.8-1.3 4.5-3.6 8.3-12.3 11.6-19 2.1-4.2 4-8.9 6.5-12.3 2.6-3.6 5.8-4.7 9-5.3 4.9-1 9.4-.7 14.4.4 5.3 1.2 10.1.3 15.1-3 4.8-3.2 9.5-7.1 14.2-10.5 5.8-4.2 12.1-8.2 18.4-8.4v-7.4c-1.5 0-3 .3-4.5.7-10.3 3.2-19.5 13.4-29.2 19.8zM13.6 199.1c-3.9-7-8.3-11.5-13.1-13.8v2.7c1.2.6 2.3 1.4 3.5 2.3 7.4 6.1 13.1 17.7 17 30.9 5.1 17.2 6.6 36.1 8.3 55.4.7 7.7 1.4 15.6 2.9 22.8h1.7c-4.8-15-4.9-34.6-6.8-51.3-2-18.1-6.3-36.1-13.5-49zM.5 207.9v6.7c.4.3.9.7 1.3 1.1 7.4 6.8 13.1 19.3 16.9 33 4.4 16 5.9 33.2 7.3 50.7h.4c-.6-7.6-1-15.2-1.6-22.4-2.6-27.9-10.6-58.4-24.3-69.1z"/><path class="st0" d="M36.7 286.9c-6.1-14.5-6.2-35.5-8.3-52.9-2.2-18.2-6.7-36.2-14.2-48.6-3.3-5.5-7.2-9.7-11.4-12-.8-.4-1.5-.8-2.3-1v2.2c1.5.6 3 1.5 4.5 2.6 7.4 5.7 13.2 17 17.2 30.1 5.2 16.9 6.7 35.6 8.5 54.7.9 9.8 2.1 20.1 4.9 28.6 1.2 3.5 2.6 6.5 4.3 8.9h6.9c-3.9-2.3-7.4-6.3-10.1-12.6zM259.4 33c-3.4 3.6-7.1 4.4-10.7 1.5-4.1-3.2-7.3-9.3-10.9-14-2.5-3.3-5.3-6.8-8.4-8-2.7-1-5.2.3-7.6 2.7-4.4 4.2-8.2 10.4-12.5 15-3.5 3.8-7.6 7.1-11 1.2-1.3-2.3-2.2-5.3-2.8-8.6.7 5.3 1.6 10.6 3.4 14.4 4.4 8.9 10.8-.9 14.8-6.2 3.6-4.7 7.2-10.6 11.5-12.7 9.5-4.9 16.4 15.8 24.5 21.7 5.1 3.8 9.8-.8 13.8-7.1s7.4-13.9 10.9-21.2c1.8-3.8 3.7-7.6 5.7-11.1h-2.9c-2.3 4.6-4.5 9.5-6.7 14.2-3.4 6.6-6.9 13.7-11.1 18.2z"/><path class="st0" d="M259.2 27.4c-3.6 3.9-7.4 4.4-11.2 1.1-4.1-3.6-7.3-10-11-14.9-2.4-3.2-5-6.6-7.9-7.7-2.7-1-5.2.4-7.5 2.6-4.6 4.5-8.6 11-13.1 15.7-3.4 3.5-7.3 6.1-10.5.3-1.8-3.3-2.8-8-3.4-12.8.6 5.8 1.3 11.4 3 16 3.9 10.8 10.2 2.6 14.5-2.7 3.7-4.7 7.4-10.4 11.7-13.2 9.3-6 16.4 12.8 23.8 20.1 10.2 10.2 18.8-11.1 24.9-24l3.6-7.5h-2.2c-1.3 2.9-2.6 5.8-4 8.7-3.1 6.8-6.5 13.8-10.7 18.3zM.5 248.3c6.6 7.5 11.5 19.3 15 32 1.7 6.2 2.9 12.6 3.9 19.2h.7c-3-23-9.3-46.4-19.6-58v6.8z"/><path class="st0" d="M.5 259.6c5.8 7.9 10.3 19.2 13.4 31.5.7 2.8 1.3 5.6 1.9 8.4h1c-3.2-17.9-8.5-34.6-16.3-44.6v4.7z"/><path class="st0" d="M.5 253.4c6.5 8 11.3 20.2 14.6 33.4 1 4.2 1.9 8.4 2.6 12.7h.7c-3.2-19.8-9-39.1-18-49.7v3.6z"/><path class="st0" d="M.5 239.9c7 7.7 12.3 20.5 15.8 34.4 2.1 8.1 3.5 16.6 4.5 25.2h.8c-2.7-25.6-9.4-53.3-21.2-65.8v6.2zM260 43.9c-3.6 3.9-7.5 5-11.4 2-4-3.1-7.3-8.8-10.9-13.1-2.6-3.1-5.3-6.4-8.4-7.4-2.5-.8-4.8.3-7.1 2.4-4.4 4.1-8.1 10.3-12.3 15-3.3 3.9-7.4 8-11.1 3-1.7-2.4-2.8-6-3.6-9.8.7 5.2 1.6 10.4 3.5 14.1 4.4 9 10.5-.2 14.6-5.6 3.6-4.7 7.1-10.6 11.3-13.2 9-5.5 16.4 12.4 23.8 18.8 10.2 8.8 19.1-12.7 25.4-25.1 4.7-9.4 9.9-18.9 16-24.6h-4.7c-1 1.3-1.9 2.6-2.8 4.1-7.7 12.2-13.4 29.8-22.3 39.4z"/><path class="st0" d="M.5 216.2v4.1c.2.2.4.3.6.5 7.5 7 13.2 19.7 17 33.7 3.9 14.2 5.5 29.5 6.7 45h.4c-.3-4.8-.6-9.5-1-14.1C21.7 258 13.9 227.5.5 216.2z"/><path class="st0" d="M.5 221.9v5.4c.3.2.5.5.8.7 7.4 7.5 12.9 20.4 16.6 34.6 3.1 11.8 4.6 24.2 5.7 36.9h.5c-.2-2.6-.4-5.1-.6-7.6-2.4-27.4-9.9-58-23-70z"/><path class="st0" d="M.5 228.8v3.4h.1c7.5 7.7 13 21 16.7 35.6 2.6 10.2 4.1 20.8 5.1 31.7h.5c-2.3-27.1-9.4-58-22.4-70.7zm130 24.5c-6.2-14-12.9-29.4-22.2-36.1-5.4-3.9-10.8-4.9-16.5-3.3-5.8 1.7-11.5 5.1-17.3 7.4-8.4 3.4-18.4 6.8-26.6 0-8.5-7.1-10.4-24.8-12.4-40.3-2.3-18-6.3-35.2-13.7-47.6C15.6 123 8.2 118.8.5 119.3v4.2c4.2-.3 8.5.9 12.6 4.2 7.6 6.2 13.5 18.1 17.3 31.8 2.1 7.3 3.5 15.1 4.6 23.2 1.3 9.4 2.1 19.1 4.1 28 4.3 18.6 14.2 22 23.9 20.5 5.6-.9 11.1-3.1 16.5-5.6 5.4-2.4 10.9-5.5 16.5-5.8 20.3-1.2 32.6 35.5 44.5 61.1 3 6.4 6 12.5 9.2 18.6h2.3c-.9-1.8-1.8-3.5-2.7-5.3-6.6-13-12.6-27-18.8-40.9zM258.9.5h-4.1c-1.8.9-3.6.8-5.2 0h-5c.5.7 1 1.3 1.5 1.9 4.7 5.1 9 3.1 12.8-1.9zM92.5 299.1c-.8.1-1.6.2-2.5.4h8.4c-1.9-.5-3.9-.6-5.9-.4z"/><path class="st0" d="M105.8 233.1c-5.8-3.2-11.3-3.3-17.2-1.2-5.8 2.2-11.5 5.4-17.3 7.5-8.2 2.9-17.9 5.2-25.6-2.7-8.1-8.3-9.7-26.7-11.5-42.4-2.2-18.4-6.1-36-13.4-48.9C14.9 135.2 8 130.3.5 130.2v4.3c3.7.1 7.3 1.3 10.9 4.3 7.5 6.2 13.4 18 17.2 31.6 4.6 16.1 5.3 33.8 8.2 50.9 7.9 46.3 37.1 21.2 54.4 16.8 9.3-2.4 18.4 2.5 25.8 13.3 8.1 11.6 14.4 27.3 21.2 41.4 1.1 2.3 2.2 4.5 3.3 6.8h2.7c-5.3-10.7-10.3-21.9-15.5-32.9-6.3-13.8-13.3-28.3-22.9-33.6z"/><path class="st0" d="M104.6 241.1c-11.9-5.8-23.2 3.5-34.8 7.3-8.2 2.6-17.9 4.4-25.3-4.3-7.8-9.1-9.2-27.6-11-43.2-2.1-18.3-5.9-35.9-13.2-49C14.7 141.8 7.8 136.5.5 136v6.3c3.6.3 7.2 1.7 10.7 4.7 7.3 6.4 13 18.2 16.8 31.5 2.2 7.8 3.8 16.2 4.9 24.9 1.2 9.4 1.9 19 3.5 28.1 1.5 8.7 4 16.6 8.2 21.3 4.1 4.7 9.1 6 13.8 6 11.1 0 21.3-7.7 32.1-10.6 9.2-2.5 18.3 1.9 25.8 12.2 7.9 10.8 14.2 25.5 20.8 39.1h3.5c-4.2-8.7-8.4-17.6-12.6-26.3-6.6-13.7-13.8-27.4-23.4-32.1z"/><path class="st0" d="M131.4 246.8c-6-14-12.4-29.4-21.3-37-5.1-4.3-10.4-6-15.9-4.9-6.1 1.2-12.1 4.9-18.1 7.4-8.6 3.6-18.8 7.7-27.3 1.1-8.3-6.4-10.4-23-12.4-38-2.4-18-6.2-35.1-13.7-47.6-6.4-10.8-14.1-15-22.2-14.1v4.3c4.3-.4 8.6.4 12.8 3.7 7.4 5.7 13.2 16.8 17.2 29.8 2.3 7.4 3.9 15.3 5.1 23.6 1.3 9.5 2.2 19.4 4.3 28.4 4.3 18.3 14.1 21.4 23.7 19.8 5.7-.9 11.3-3.3 16.8-5.8 5.3-2.4 10.6-5.3 16-5.7 20.1-1.4 32.2 35.5 43.8 61.2 4.2 9.2 8.5 18.1 13 26.6h2.8c-2.2-3.8-4.2-7.8-6.3-11.8-6.5-13-12.4-27.1-18.3-41z"/><path class="st0" d="M149.7 280.4c-6.5-13-12.2-27.2-18.1-41.2-5.9-14.1-12.2-29.7-20.9-37.4-5.1-4.6-10.6-6.4-16.2-5.3-6.1 1.3-12.1 4.9-18 7.5-8.6 3.7-18.9 8-27.4 1.2-8.1-6.5-10-23.1-12.1-37.9-2.4-17.6-6.6-34.2-14-46-6.6-10.5-14.3-14.1-22.4-12.9v3.8c4.5-.6 9.1.1 13.5 3.5 7.4 5.6 13.3 16.8 17.3 29.8 2.2 7.3 3.8 15.1 5 23.2 1.3 9.1 2.2 18.5 4.2 27.1 4.5 18.6 14.9 20.7 24.4 18.6 5.6-1.2 11.1-3.6 16.5-6.1 5.3-2.4 10.5-5.3 16-5.4 20-.5 31.9 37.6 43.3 63.3 5.1 11.7 10.6 22.8 16.4 33.2h3.5c-.8-.9-1.6-2-2.3-3.2-3.1-4.9-5.9-10.3-8.7-15.8z"/><path class="st0" d="M169.7 295.5c-3.9-.6-7.7-2.6-10.9-7.4-3.1-4.7-6-10.3-8.7-15.8-6.4-12.8-12-27-17.7-40.9-5.8-14.2-11.9-30-20.5-38.4-4.8-4.7-10-7.1-15.4-6.4-6.1.8-12.1 4.4-18 7.1-8.7 3.9-19.1 8.8-28 2.9-8.5-5.6-10.7-21.8-12.8-36.7-2.6-18.2-7.1-35.4-15.2-46.9-6.7-9.5-14.2-12.1-21.9-10.6v4.5c4.6-.8 9.2-.3 13.8 3 7.2 5.2 13.1 15.7 17.2 28.2 2.4 7.3 4.1 15.2 5.4 23.4 1.4 9.1 2.2 18.6 4.4 27.1 4.5 17.8 14.5 19.7 23.7 17.7 5.7-1.2 11.2-3.7 16.8-6.3 5.4-2.5 10.8-5.4 16.4-5.5 8.6 0 16.5 8 22.7 19.1 7.5 13.5 13.5 30 20 45.1 5.1 11.8 10.4 23.1 16.3 33.5 1.7 3 3.5 5.4 5.3 7.2h31.2c-3.5-2.5-6.9-4-10.9-4-4.4 0-8.8.8-13.2.1zm-69.3-21.6c-11.7-3.6-23 6.4-34.5 9.3-8.3 2.1-18.1 2.2-25.1-8.2-7.4-11-8.4-30.6-10-46.9-1.9-18.8-5.4-37.1-12.5-51.2-4.9-9.7-11-16.1-17.8-18v5.4c2.7.8 5.3 2.3 7.9 4.7 7.4 6.8 13 19.2 16.7 33 4.7 17.4 5.4 36.3 7.8 55 1.2 9.5 3.1 19 7 25.6 3.7 6.2 8.6 9.1 13.4 10 11.3 2.2 21.9-5.2 32.8-9.2 9.1-3.4 18.5-1.4 26.6 7.6 2.3 2.5 4.4 5.4 6.5 8.6h4.8c-6.7-12.4-14.1-22.8-23.6-25.7z"/><path class="st0" d="M100.5 284c-12-3.6-23.3 6.4-35 9.3-8.3 2.1-18 2-25-8.3-7.7-11.3-8.7-31.8-10.4-48.8-1.9-19-5.3-37.6-12.2-52-4.7-9.7-10.7-16.4-17.3-18.7v5.3c1.6.6 3.2 1.4 4.8 2.5 7.4 5.4 13.4 16.4 17.5 29.2 5.3 16.5 6.8 34.7 8.7 53.3.9 9.5 2.1 19.5 5 27.6 2.7 7.6 6.8 12.6 11.4 15.1.6.3 1.3.6 1.9.9H67c4.4-1.3 8.7-3.4 12.9-5.4 9.7-4.7 19.4-6.7 28.9 1 1.6 1.3 3.1 2.8 4.6 4.4h4.7c-5.3-7.5-11-13.4-17.6-15.4z"/><path class="st0" d="M75.2 297.8c-1.4.6-2.8 1.2-4.2 1.7h14.6c5.8-2 11.5-2.4 17.2 0h8.6c-5.4-5.5-11.3-8.7-17.8-8.4-6.3.3-12.3 4-18.4 6.7zm28-38.9c-12-5.1-23.3 4.4-35 7.9-8.2 2.4-18 3.6-25.3-5.7-7.8-9.9-9-29.1-10.8-45.2-2-18.5-5.6-36.4-12.7-50-5.2-10-11.8-16-18.9-17.2v2.8c3.4.6 6.8 2.3 10.1 5.5 7.2 6.9 12.6 19.1 16.3 32.7 4.6 17.1 5.1 35.9 8 54.1 1.4 9.1 3.7 17.7 7.9 23.2 3.8 5 8.5 6.9 13 7.4 11.5 1.2 22.1-6.8 33.3-10.2 9-2.7 18.1.7 25.8 10.3 5.5 7 10.3 15.9 14.9 25.1h2.6c-1.6-3.2-3.2-6.4-4.8-9.7-7-13.6-14.5-26.8-24.4-31z"/><path class="st0" d="M103.9 250.9c-12-5.4-23.2 3.9-34.9 7.6-8.2 2.5-17.9 3.9-25.3-5-7.8-9.4-9.1-28.2-10.9-44-2.1-18.3-5.8-36-12.9-49.3-5.4-10.1-12.1-15.7-19.4-16.5v3.7c3.5.4 7 2 10.4 5.1 7.4 6.7 13 19 16.7 32.7 4.6 16.9 5.1 35.6 8.1 53.4 1.5 9.1 4 17.3 8.4 22.3 4.1 4.6 8.9 6 13.6 6.2 11.4.3 21.9-7.8 33-10.7 9.1-2.3 18.1 2.1 25.5 12.2 6.4 8.7 11.8 19.9 17.2 31h2.9c-2.8-5.7-5.6-11.5-8.4-17.2-6.9-13.6-14.2-27-24-31.5z"/><path class="st0" d="M101.8 265.8c-12.1-4.4-23.6 5.8-35.5 8.9-8.2 2.1-17.9 2.4-24.8-7.6-7.3-10.6-8.4-29.9-10.1-46-2-18.6-5.5-36.5-12.5-50.4-5-10-11.5-16.3-18.5-17.9v4.6c2.8.6 5.5 2 8.2 4.4 7.3 6.4 13 18.4 16.8 31.8 4.8 17.2 5.6 36 8.1 54.6 1.3 9.3 3.2 18.5 7.1 24.8 3.7 5.9 8.4 8.5 13.1 9.4 11.2 2.1 21.8-5.2 32.7-9.2 9.3-3.4 18.7-1.3 26.8 8 4.4 5 8.3 11.4 11.9 18.2h3.2c-.7-1.3-1.4-2.6-2-3.9-6.8-13.5-14.4-26-24.5-29.7zm193.9 12.1c-10.7 1.2-20.7 9.4-31 13.9-5.4 2.3-10.8 1.2-16.2 1.6-4.6.4-9.9 2.6-14.2 6.2h7.8c2.1-.9 4.1-1.6 6.2-1.8 5.7-.7 11.4.5 17.1-2 4.9-2.2 9.8-5.2 14.7-7.6 6.2-3.1 12.9-5.9 19.5-5.4V278c-1.4-.3-2.6-.2-3.9-.1zm.3-33.5c-10.7 1.9-20.6 11.3-30.8 16.8-4.9 2.6-9.7 2.2-14.8 1.5-5.1-.7-10.1.4-15 2.6-7.3 3.3-11 15.8-16 25.4-1.5 2.9-3.1 6.1-4.9 8.7h3.7c1.3-2.4 2.5-4.8 3.6-7.3 2.1-4.5 4-9.5 6.4-13.7 2.2-3.8 4.8-5.9 7.6-7.1 4.7-2.1 9.4-3.5 14.2-3 5.5.6 10.6.9 16-2.1 4.8-2.7 9.6-6 14.4-8.9 6.1-3.7 12.6-7.2 19-7V244c-1.1.1-2.3.2-3.4.4z"/><path class="st0" d="M296.2 258.4c-10.6 1.4-20.5 10.2-30.7 15.5-5.1 2.6-10.1 2.1-15.3 1.7-5.2-.4-10.5 1.2-15.5 4.1-5.3 3.1-8.7 11.7-12.2 19.8h2.2c1.2-2.9 2.5-5.7 3.9-8.3 2-3.7 4.5-5.8 7.2-7.3 4.5-2.4 9.1-4.2 13.8-4.1 5.7.2 11 .8 16.5-2.1 4.8-2.5 9.6-5.7 14.4-8.3 6.1-3.3 12.5-6.5 18.9-6.2v-4.9c-1-.1-2.1 0-3.2.1z"/><path class="st0" d="M265.4 255.9c-5 2.8-9.9 2.4-15.1 1.6-5.1-.8-10 0-15 2.1-7.4 3.1-11.2 16-16.3 25.6-3.1 5.8-6.4 12.6-10.9 13.5-2.2.5-4.4.9-6.6 0-1.8-.8-3.5-2.4-5.2-3.9-4.6-4.2-8.8-6.4-13.9-6.4-4.3 0-8.6.9-12.9.2-3.8-.6-7.6-2.5-10.6-7.1-3-4.5-5.8-9.8-8.4-15.1-6.1-12.4-11.5-26.2-16.9-39.7-6-15.1-12.2-32.3-21.1-41.5-4.6-4.7-9.7-7.3-14.9-6.9-6 .6-11.8 4-17.6 6.7-8.8 4.1-19.2 9.3-28.2 4.4-8.7-4.8-11.2-20.4-13.4-35.5-2.6-17.5-6.8-33.9-14.4-45.3-3.5-5.2-7.5-9.1-11.8-11-3.9-1.7-7.8-1.6-11.7-.7v4.1c4.9-1 9.8-.7 14.7 2.9 7.3 5.2 13.2 15.7 17.2 28.2 2.4 7.3 4.1 15.2 5.3 23.5 1.4 9 2.3 18.6 4.8 26.8 5.4 17.8 17.1 16.5 26.4 13.6 5.4-1.7 10.8-4.3 16.2-6.8 5.1-2.4 10.3-4.7 15.6-4 8.5 1.2 16 10.4 21.8 21.8 7.1 13.9 12.9 30 19.3 45 5.1 11.9 10.4 23.4 16.5 33.5 7.5 12.5 17.4 7.9 26.5 8.7 4 .3 7.5 2.4 11.1 5.4h17.3c1.7-2.2 3.2-5.1 4.6-7.7 1.5-2.9 3-5.8 4.5-8.9 2.1-4.4 4-9.4 6.4-13.2 2.4-3.8 5.3-5.4 8.3-6.4 4.7-1.7 9-2.6 13.8-1.9 5.4.8 10.3.8 15.5-2.2 5-2.9 9.8-6.4 14.7-9.5 5.9-3.6 12.2-7 18.4-7v-4.6c-1.2 0-2.3.1-3.5.3-10.5 1.9-20.4 11.7-30.5 17.4z"/><path class="st0" d="M295.9 252.2c-10.6 1.7-20.4 10.8-30.6 16.1-5.1 2.7-10.1 2.1-15.3 1.6-5.1-.5-10.2.9-15.2 3.5-7 3.7-10.7 16.7-15.6 26v.1h2.3c.1-.2.1-.3.2-.5 2.2-4.7 4.1-9.9 6.5-14.2 2.2-3.8 4.7-5.9 7.6-7.3 4.6-2.2 9.1-3.8 13.9-3.5 5.5.4 10.7.9 16.1-2 5-2.7 9.8-6 14.8-8.8 6-3.5 12.4-6.7 18.8-6.5V252c-1.1-.1-2.3 0-3.5.2z"/><path class="st0" d="M296.6 231.5c-10.7 1.8-20.6 12-30.7 18.1-5 3-9.8 3-15 2-5.2-1-10-.5-15.1 1.3-3.5 1.2-6.3 3.8-8.8 8.7-2.8 5.3-5.2 11.2-8 16.5-3.1 5.9-6.6 13-11.2 13.8-1.9.3-4 .7-5.9-.1-1.9-.8-3.7-2.5-5.4-4.2-4.4-4.4-8.4-6.9-13.4-7-4.3-.1-8.6.9-12.9.4-3.9-.4-7.8-2.1-11-6.6-3.1-4.5-6-10-8.6-15.5-6.1-12.5-11.3-26.6-16.6-40.3-5.9-15.2-11.9-32.7-20.8-42.2-4.5-4.9-9.6-7.7-14.8-7.3-6 .5-11.8 3.9-17.5 6.6-8.9 4.2-19.3 9.8-28.5 4.9-8.6-4.6-11-20.2-13.3-35-2.7-17.5-7.2-33.8-15-44.8-3.5-5-7.6-8.5-11.9-10.2C8.3 89 4.4 89.3.5 90.4v5.1c5.4-1.3 10.7-1 16 3 7.2 5.4 12.9 15.9 16.9 28.4 2.3 7.3 4 15.1 5.2 23.3 1.3 8.8 2.4 18.2 5 26 5.6 16.8 17.6 14.5 26.5 11.4 5.6-1.9 11.1-4.7 16.6-7.2 5.1-2.3 10.3-4.4 15.5-3.3 8.3 1.8 15.5 11.4 21.1 22.8 7 14.3 12.8 30.7 19.1 46.1 4.9 11.9 10.2 23.3 16.2 33.2 7.2 11.8 17.1 7.3 25.7 7.9 4.1.3 7.7 2.3 11.4 5.7 2.1 1.9 4.2 4.1 6.5 4.9 1.7.6 2.9-.1 4.5-.3 1-.1 2 0 3-.6 3-1.7 5.3-6.3 7.5-10.3 1.6-2.9 3.1-6 4.6-9.1 2.1-4.5 4.1-9.4 6.5-13.2 2.4-3.8 5.4-5.3 8.4-6.4 4.8-1.6 9.3-2.2 14.1-1.4 5.4.9 10.2.7 15.4-2.4 4.8-2.9 9.5-6.5 14.3-9.6 5.9-3.9 12.3-7.5 18.7-7.5v-5.3c-.7-.3-1.6-.3-2.6-.1zm-1.4 66.5c-2.3.2-4.7.7-7 1.5h11.3v-1.4c-1.4-.2-2.9-.2-4.3-.1z"/><path class="st0" d="M265.9 242.8c-5 3.1-9.7 3.3-14.8 2.2-5.3-1.1-10.2-1-15.4.7-3.5 1.1-6.3 3.7-8.8 8.5-2.7 5.1-5.1 10.8-7.8 15.9-3 5.6-6.7 13.4-11.2 13.9-1.8.2-3.8.5-5.6-.1-1.9-.7-3.6-2.4-5.3-4.2-4.4-4.6-8.3-7.7-13.3-8-4.3-.2-8.6.8-12.9.6-3.9-.2-7.9-1.5-11.2-5.7-3.2-4.1-6.1-9.9-8.7-15.3-6-12.3-11.1-26.4-16.3-40-5.9-15.4-11.7-33.1-20.3-43.2-4.4-5.1-9.3-8.3-14.4-8.3-5.9 0-11.7 3.4-17.4 6.1-9 4.3-19.2 10.2-28.5 6.4-3.7-1.5-6.9-4.9-9.2-10.7-2.6-6.6-3.7-14.8-5-22.5-2.8-17.7-7.4-34.1-15.4-45-3.5-4.8-7.5-8.1-11.7-9.7-4.1-1.5-8.2-1-12.2.3v4.5c5.4-1.5 10.9-1.5 16.3 2.4 7.3 5.3 13.3 15.8 17.4 28.5 2.3 7 3.9 14.6 5.1 22.5 1.4 8.6 2.4 17.8 5 25.4 5.9 17 18.4 13.5 27.3 10.1 5.6-2.1 11.1-5 16.7-7.5 4.8-2.2 9.7-3.9 14.7-2.7 8.4 2.1 15.5 12.2 21 24 6.9 14.7 12.6 31.5 18.9 47.2 4.9 12 10.1 24.2 16.4 33.6 7.3 10.8 17.2 5.6 25.7 6.5 4.1.4 7.7 2.9 11.3 6.5 2.2 2.2 4.5 4.6 7 5.1 1.2.2 2.3-.3 3.4-.4 1.3-.1 2.3 0 3.5-.9 2.9-2.1 5.3-6.8 7.5-10.8 1.6-3 3.2-6.1 4.7-9.3 2-4.3 3.9-9 6.3-12.5 2.6-3.7 5.7-5 8.8-5.9 4.8-1.4 9.3-1.5 14.2-.6 5.5 1.1 10.4.2 15.7-3.1 5-3.2 9.8-7 14.8-10.3 5.5-3.7 11.5-6.9 17.4-7v-6c-1.5 0-3.1.2-4.6.7-10.2 2.6-19.4 12.1-29.1 18.1zm30.1 41.3c-10.7.9-20.8 8.8-31.1 13.2-5.4 2.3-10.8 1.2-16.3 1.8-.8.1-1.6.2-2.4.4H272c2.4-1.2 4.7-2.5 7.1-3.7 6.6-3.1 13.6-6.1 20.4-5.4v-6.3H296z"/><path class="st0" d="M295.3 291.9c-6.8.7-13.3 4.2-19.8 7.6h8.5c5.1-2 10.4-3.5 15.5-2.9v-4.7c-1.4-.1-2.8-.1-4.2 0zm.8-21.2c-10.7 1.2-20.7 9.4-30.9 14.2-5.1 2.4-10.3 1.7-15.5 1.6-5 0-10.3 2.1-15 5.3-2.4 1.6-4.4 4.4-6.2 7.6h4c.7-.7 1.4-1.3 2.1-1.8 4.3-3 9-5.4 13.5-5.8 5.7-.5 11.4.8 17.1-1.8 4.9-2.3 9.7-5.3 14.6-7.8 6.3-3.3 13.1-6.4 19.7-5.9v-5.7c-1.1 0-2.2 0-3.4.1z"/><path class="st0" d="M295.8 264.9c-10.6 1.5-20.5 10-30.8 15-5.1 2.5-10.2 1.6-15.5 1.5-5-.2-10.2 1.8-15 4.8-3.7 2.4-6.5 7.6-9.1 13.3h2l1.2-2.4c2-3.7 4.3-5.9 6.9-7.4 4.6-2.7 9.3-4.7 14.1-4.7 5.5 0 10.8.7 16.2-2.1 4.8-2.4 9.6-5.4 14.4-8 6.1-3.2 12.7-6.3 19.1-5.9v-4.4c-1 .1-2.2.1-3.5.3zm-30.7-26.1c-4.7 2.9-9.2 2.9-14.1 1.7-5.1-1.2-9.8-1.3-14.9 0-3.8 1-6.8 3.3-9.5 8.4-2.7 5-5.1 10.6-7.8 15.7-2.9 5.4-6.5 12.9-10.9 13.6-4 .6-7.3-.7-10.7-4.5-4.2-4.6-8-8.3-12.9-8.6-4.3-.3-8.6.7-12.9.7-4 0-8.1-1-11.6-5.1-3.2-3.8-6-9.5-8.6-14.7-6.2-12.5-11.2-26.9-16.4-40.9-5.6-15.1-11.2-32.3-19.5-42.8-4.3-5.4-9.3-9.1-14.5-9.3-5.9-.2-11.7 3.1-17.3 5.8-9 4.3-19.1 10.4-28.5 7.3-3.7-1.2-7.2-4.5-9.5-10.3-2.5-6.1-3.7-13.8-4.9-21.1-3-17.6-7.5-34-15.8-44.7-3.6-4.6-7.6-7.8-11.9-9.2-4.1-1.3-8.3-.6-12.4.7v1.7C6 81.6 11.6 81.3 17.1 85c7.5 5 13.6 15.6 17.9 28.4 2.3 7 3.9 14.6 5.2 22.5 1.4 8.7 2.6 18.2 5.6 25.4 6.4 15.2 18.9 10.5 27.4 7 5.4-2.2 10.6-4.9 16-7.3 4.8-2.2 9.7-3.8 14.6-2.4 8.5 2.3 15.5 13 20.9 25 6.5 14.5 12 30.7 18 46 4.9 12.5 10.4 26.1 17.1 35.2 7.5 10 17.4 4.2 25.8 5.4 4 .6 7.4 3.3 10.9 7.1 2.3 2.4 4.6 5 7.2 5.3 1.9.2 4.6.1 6.3-1.1 3.1-2.2 5.7-7.3 8-11.6 1.4-2.6 2.8-5.4 4.1-8.2 2-4.3 4-9 6.4-12.5 2.6-3.7 5.8-4.8 8.9-5.6 2.4-.6 4.9-1.3 7.4-1.2 2.5.1 4.9.8 7.4 1.3 5.5 1.1 10.3-.2 15.4-3.6 4.7-3.2 9.3-6.9 14-10.1 5.6-3.9 11.7-7.5 17.8-7.6v-3.6c-1.6 0-3.3.3-4.9.8-10.2 3.1-19.5 13.2-29.4 19.2z"/><path class="st0" d="M108.3 225.6c-5-3.7-10.3-5-15.6-3.7-6.3 1.4-12.4 5.2-18.5 7.6-8.5 3.4-18.5 6.6-26.7-.3-8.4-7.1-10.4-24.3-12.4-39.8-2.2-18.1-5.8-35.4-13-48.4C16 130 8.5 124.7.5 124.9v3.8c3.9-.1 7.8 1.1 11.6 4.2 7.4 6 13.2 17.5 17 30.8 2.2 7.5 3.8 15.5 4.9 23.8 1.2 9.1 2 18.4 3.6 27.3 8.3 45.2 38.2 17.9 55.1 14.4 9-1.9 17.8 3.7 24.8 14.3 8.1 12.1 14.4 28.2 21.3 42.8 2.1 4.5 4.3 8.9 6.5 13.2h3.2c-6.2-12.1-12-24.9-17.8-37.7-6.2-14-13-29.4-22.4-36.2zM44.4 17c3.2 6.2 5.6 13.7 8.4 20.6 1.6 3.9 3.5 9 6.2 9.6 2.1.4 4.2.3 6.3-.1C76 44.9 86 35.9 96.3 30.6c4.7-2.4 9.6-4.4 14.5-3 4.2 1.2 7.6 5.2 10.8 10.5 6.5 10.7 10.1 26.7 13.7 41.2 4 16.3 7.7 33.2 12.6 48.6 4.1 12.8 9.9 25.6 18.3 25.8 7.2.2 15.1-6.4 22.2-1.4 3.5 2.5 5.9 8.2 8.2 13.6 2.8 6.8 6.4 14.4 11.4 11.3 2.8-1.7 5.3-6.2 7.5-9.8 1.6-2.5 3.1-5.2 4.7-7.9 2.4-4.1 4.9-8.7 8-10.7 3.9-2.6 8.4-.6 12.3.9 4.2 1.6 8.1 5.4 12.4 6.8 5.4 1.7 10.1-2.4 14.7-7.2 4.2-4.5 8.2-9.6 12.3-14.4 5.9-6.8 12.6-13.3 19.5-14.2v-5.5c-2 .3-4 1-6 2-10.3 5.7-18.4 20.1-27.7 29.3-3.9 3.9-8 6.7-12.5 5.5-4.2-1.1-8.1-5-12.2-7-4.6-2.2-10-4.7-14.4-.4-3.6 3.6-6.5 9.6-9.6 14.6-3.1 5-6.9 12.3-11.1 12.8-3.8.4-6.7-4.5-8.9-9.9-2.7-6.6-5.2-14.5-9.6-17.2-3.8-2.3-8-1-11.9.1-3.7 1.1-7.4 2.4-11.1 1.8-3.4-.5-6.2-3-8.8-7-6.2-9.3-9.8-23.1-13-36.4-4.4-17.7-8.1-36.1-13.1-53.2-4.7-16.1-11.7-31.1-22.1-30.6-5.5.2-10.9 3.5-16.1 6.7-5.2 3.2-10.4 6.9-15.7 9.8-4.4 2.4-8.9 4.4-13.5 4.5-1.6 0-3.6.3-4.9-1.5-1.9-2.7-3.5-6.1-4.9-9.6-3-7.1-5.6-14.6-9.3-20.7-2-3.3-4.1-6.1-6.4-8.5h-5.8C36 4 40.6 9.7 44.4 17z"/><path class="st0" d="M137.6 51.5c3.5 16.6 6.7 34.2 11.6 49.5 2.1 6.4 4.6 12.3 7.8 16.6 3.3 4.5 7 5.5 11 4.8 6.6-1.1 14.4-7.3 20.8-1.6 3.4 3 5.5 9.3 7.4 15.1 2.4 7.4 5.5 16.3 10.9 13.6 2.8-1.4 5.5-6.1 7.8-9.5 1.7-2.6 3.3-5.3 4.9-7.9 2.5-4 5.1-8.3 8.3-9.9 4.2-2.1 8.9.7 12.8 3.1 4.3 2.6 8.2 7.2 12.7 8.1 5 1.1 9.5-3.6 13.6-8.5 4.2-5 8.2-10.7 12.3-16.1 5.9-7.7 12.7-14.9 19.9-15.9v-5.2c-2.6.4-5.2 1.6-7.6 3.3-10 7.1-17.7 22.5-26.9 32.4-3.7 4-7.6 6.9-11.9 5.8-4.2-1.1-8-5.4-12-8.1-4.3-3-9.7-6.4-14.2-3.1-3.9 2.9-7.1 9.4-10.3 14.4-3.2 5-7.2 12.5-11.5 12.5-3.4 0-6-4.5-7.8-9.6-2.5-6.9-4.2-15.6-8.1-20.1-3.4-3.9-7.7-3.1-11.4-2-6.9 2-14.5 6.8-20.8-1.2-6.4-8.2-10-21.8-13-35-4-18-7.3-36.6-11.4-54.5-1.7-7.4-3.8-15.4-6.6-22.2H122c1.2 1.9 2.3 4 3.3 6.2 6 12.8 9.1 29.6 12.3 45zM62.2 7.8c1.2.1 2.4-.2 3.5-.5 2.4-.6 4.7-1.6 7-2.9 2.2-1.2 4.3-2.5 6.4-4H67.3c-1.6.5-4 1.6-5.6.8-.4-.2-.8-.5-1.1-.9h-4.4c.6 1.1 1.2 2.1 1.8 3.1 1.2 2.2 2.5 4.2 4.2 4.4z"/><path class="st0" d="M61.4 15.6c1 .1 2 0 3-.2 2.4-.4 4.7-1.3 7-2.5C78 9.7 84.2 4.8 90.6.4h-9.3c-.2.1-.4.3-.6.4C76 4 71.3 7.1 66.3 8.5c-1.6.5-3.9 1.4-5.6.6-1.7-.9-3.8-4.8-5.1-7.1-.1-.4-.3-1-.6-1.5h-3.1c1.7 3.7 3.4 7.4 5.4 10.6 1.1 2.1 2.4 4.3 4.1 4.5z"/><path class="st0" d="M54.9 24.6c.9 1.9 1.9 3.8 3 5.3 1.2 1.6 2.1 1.7 3.5 1.8 2.3.1 4.6-.4 6.9-1.2 10.4-3.7 20.1-12.7 30.4-17.8 4.5-2.2 9.2-3.9 13.8-2.4 4.3 1.4 7.9 6.1 11 11.9 6.4 11.9 9.8 28.9 13.2 44.3 3.7 16.5 7.2 34 12.1 49.4 2 6.3 4.5 12.2 7.5 16.8 3.3 4.9 6.7 6.9 10.8 6.6 6.9-.5 14.9-7.1 21.6-1.5 3.3 2.7 5.6 8.5 7.6 14 2.6 7.2 6 16 11.3 12.9 2.9-1.7 5.5-6.3 7.8-9.9 1.7-2.6 3.3-5.4 4.9-8.1 2.4-4 5-8.4 8.1-10.1 4-2.2 8.6.2 12.5 2.2 4.1 2 7.8 6 12 7.4 5.3 1.7 10-2.5 14.4-7.5 4.4-4.9 8.5-10.6 12.8-15.9 5.8-7.2 12.5-13.9 19.4-14.8v-5.4c-2.3.3-4.6 1.3-6.8 2.7-10.2 6.5-18.1 21.7-27.5 31.3-3.7 3.9-7.6 6.6-11.9 5.4-4.2-1.1-8-5.2-12.1-7.6-4.6-2.7-10.1-5.7-14.7-1.4-3.7 3.5-6.6 9.6-9.7 14.6-3.2 5.2-7.3 12.9-11.7 12.4-3.5-.3-6-5.1-7.9-10.3-2.6-7-4.8-15.7-9.3-18.9-3.7-2.7-7.9-1.4-11.6-.2-7.2 2.3-14.2 5.1-20.4-4.2-6-8.9-9.4-22.3-12.4-35.3-4.2-18-7.7-36.5-12.2-54.2C127 20.4 120.5 3 110.1 2.3c-5.3-.4-10.7 2.7-15.7 5.8-5.5 3.4-10.9 7.5-16.4 11-4.4 2.7-9 5.2-13.6 6-1.7.3-4 1-5.6-.8C57 22.1 55.4 19 54 16 51.6 10.9 49.4 5.5 46.8.7h-3.3c.7.9 1.5 2.1 2.1 3.3 3.5 6.2 6.1 13.9 9.3 20.6z"/><path class="st0" d="M54.2 31.7c1.9 4.2 3.7 7.5 6.8 7.7 2.3.1 4.6-.3 6.9-1C78.5 34.9 88.3 25.9 98.7 21c4.4-2.1 8.9-3.6 13.4-2 4.2 1.4 7.7 5.9 10.8 11.3 6.5 11.5 10 28.3 13.6 43.4 3.8 16 7.3 32.7 12.1 47.7 2 6.3 4.4 12.2 7.4 16.9 3.3 5.2 6.8 7.5 11.1 7.3 7-.3 14.9-6.7 21.7-1.4 3.4 2.7 5.7 8.5 7.9 13.9 2.8 7.3 6.5 15.3 11.8 11.3 4.6-3.5 8.4-11.6 12.1-17.7 2.4-4 4.9-8.4 8.1-10.1 4.1-2.3 8.8 0 12.8 1.9 4.4 2.1 8.4 6.4 12.9 7.1 5 .8 9.6-3.7 13.8-8.3 4.4-4.9 8.6-10.4 12.9-15.5 5.6-6.5 12-12.5 18.5-13.4V109c-2.4.3-4.7 1.3-7 2.7-10 6.4-17.9 20.9-27.2 30.2-3.8 3.8-7.6 6.5-11.9 5.4-4.3-1.1-8.2-5.2-12.4-7.4-4.5-2.4-9.9-5.1-14.4-.8-3.6 3.5-6.6 9.6-9.6 14.7-3.1 5.1-7.1 12.6-11.4 12.7-3.6 0-6.2-4.6-8.2-9.8-2.6-6.7-4.9-15-9.2-18.2-3.6-2.7-7.8-1.5-11.5-.4s-7.5 2.6-11.3 2.4c-3.6-.3-6.6-2.6-9.4-6.9-6-9.1-9.6-22.7-12.7-35.9-4.3-18-7.9-36.6-12.7-54.1-4.5-16.5-11.3-32.8-21.8-32.7-5.6 0-11.2 3.4-16.5 6.8C87.2 21 82 24.8 76.7 27.9c-4.4 2.5-8.9 4.7-13.5 5.1-2 .1-3.8.4-5.5-2-1.8-2.6-3.3-5.8-4.7-9-3.3-6.9-6-14.2-9.8-20.1-.3-.5-.6-1-1-1.4h-4.1c2.6 3 5.1 6.6 7.3 10.7 3.3 6.3 5.8 13.8 8.8 20.5z"/><path class="st0" d="M59.6 23.2c1 .7 2.1.5 3.2.5 2.5-.2 4.9-.9 7.3-1.9 10.5-4.5 20.3-14 30.8-18.7 4.3-2 8.8-3.2 13.2-1.2 4.1 1.8 7.5 6.8 10.4 12.6 6 12.2 9.2 28.9 12.6 44.2 3.7 16.7 6.9 34.4 11.9 50 2.1 6.5 4.6 12.5 7.7 17 3.3 4.7 6.8 6.2 10.8 5.7 6.8-.8 14.7-7.2 21.3-1.6 3.3 2.8 5.5 8.8 7.4 14.4 2.6 7.4 5.8 16.6 11.2 13.6 2.8-1.5 5.3-6 7.5-9.4 1.8-2.7 3.5-5.6 5.2-8.5 2.4-4 5.1-8.4 8.2-10.1 4.1-2.1 8.8.5 12.8 2.7 4.3 2.4 8.3 6.9 12.8 7.9 5.1 1 9.7-3.7 13.9-8.6 4.3-5.1 8.4-10.9 12.7-16.3 5.7-7.2 12.3-13.8 19.1-14.7v-6.2c-2.4.3-4.8 1.4-7.1 2.9-10.1 6.6-17.8 21.6-26.9 31.4-3.7 4-7.7 7.1-12.1 6-4.3-1-8-5.1-12-7.7-4.5-2.9-10-6.2-14.6-2.4-3.9 3.3-7 9.6-10.2 14.7-3.1 4.9-6.9 12-11.2 12.1-3.6.2-6.2-4.6-8.1-9.9-2.5-6.8-4.4-15.2-8.4-19.2-3.5-3.5-7.8-2.5-11.5-1.4-7 2.1-14.4 6.2-20.7-2.2-6.3-8.5-9.9-22.1-12.9-35.3-4.1-17.9-7.5-36.4-11.8-54.1-2.6-10.6-6.1-21.9-11-29h-28c-4.5 2.9-8.8 6.2-13.3 9.1-4.6 3-9.3 5.8-14.1 7-1.7.4-4 1.3-5.6.3-1.8-1.1-3.7-5.1-4.9-7.5-1.5-2.9-2.9-5.9-4.4-8.9H48c2.9 5.6 5.3 12.1 8.2 17.6 1 1.9 2.1 4.2 3.4 5.1z"/><path class="st0" d="M150.6 74.9c2.1 6.1 5 11.9 8.5 14.9s7.6 2.1 11.2.8c6-2.1 13.9-7.7 19.4-.2 3.1 4.1 4.7 10.9 6.3 17.1 2.1 8 5.1 17.8 10.7 14.3 2.6-1.6 5-5.4 7.1-8.5 1.8-2.6 3.6-5.4 5.3-8.1 2.7-4.1 5.6-8.5 9-9.5 9.2-2.8 16.5 12.7 25.1 14.5 5 1 9.6-4.3 13.6-9.5 4-5.3 7.8-11.4 11.7-17.1 6-8.9 13.1-17.3 20.9-18.4v-5.7c-3.3.5-6.5 2.4-9.5 5-9.6 8.3-16.6 24.1-25.5 34.6-3.6 4.2-7.5 7.4-11.8 6.2-4-1.1-7.5-5.3-11.1-8.5-4.4-4-10.3-8.9-15.2-5.6-4.2 2.8-7.6 9.3-11 14.3-3.2 4.8-7.5 12.2-11.9 11.1-3.5-.9-5.6-6.4-7.2-12-1.9-7-3.3-15.2-6.6-20.4-3.1-4.9-7.2-4.6-10.9-3.5-6.5 1.9-14.1 8-20.5 2.3-6.7-6.1-10.5-20-13.1-32.5-3.5-16.3-6.1-33.3-9-50h-1c1.7 8.7 3.1 17.7 4.7 26.3 3.2 16.2 5.8 33.7 10.8 48.1z"/><path class="st0" d="M150.9 67.9c2.2 6.1 5.2 12.1 9 14.6 3.6 2.4 7.5 1.2 11.1-.2 5.9-2.2 13.6-7.5 19 .3 3 4.4 4.6 11.3 6.2 17.7 1.9 7.7 4.8 17.3 10.2 14.6 2.7-1.4 5.2-5.3 7.4-8.5 1.8-2.6 3.6-5.3 5.4-8 2.7-4 5.6-8.4 9.1-9.4 9.2-2.6 16.4 13.3 25.1 15.1 5 1.1 9.6-4.3 13.5-9.6 4.4-5.9 8.4-12.6 12.6-18.8 5.8-8.6 12.7-16.5 20.1-17.5v-5.5c-3.3.5-6.6 2.5-9.7 5.2-9.5 8.5-16.5 24.4-25.3 35.1-3.5 4.2-7.3 7.7-11.6 6.7-4.2-.9-7.8-5.4-11.5-8.9-4.4-4.2-10.2-9.3-15.2-6.1-4.1 2.7-7.5 8.9-10.8 13.8-3.3 4.8-7.7 12.5-12.1 11.2-3.5-1-5.6-6.8-7.1-12.4-1.9-7.1-3.2-15.6-6.4-20.9-3-5-7.2-4.8-10.9-3.6-6.5 2-14.3 8.4-20.7 2.4-6.7-6.2-10.3-19.9-12.8-32.4-2.9-13.8-5.1-28.1-7.4-42.3h-.8c1.1 6.6 2.2 13.2 3.3 19.6 2.8 16.1 5.2 33.6 10.3 47.8z"/><path class="st0" d="M149.5 94.6c2.2 6.6 4.9 12.7 8.4 16.9 3.3 4 7.2 4.2 11 3.3 6.4-1.5 14.2-7.4 20.3-1.1 3.3 3.4 5.3 10.1 7.2 16.1 2.4 7.7 5.7 16.7 11.1 13 2.7-1.9 5.3-6.2 7.6-9.6 1.6-2.5 3.2-5.1 4.8-7.6 2.4-3.8 5-8 8.2-9.5 4.2-2 8.8.9 12.8 3.5 4.3 2.8 8.3 7.6 12.9 8.5 4.9 1 9.4-3.7 13.4-8.6 4.2-5.1 8.1-11 12.2-16.4 5.9-8 12.8-15.6 20.1-16.5v-5.8c-2.7.4-5.4 1.7-8 3.6-10.1 7.4-17.7 23.3-27 33.3-3.6 3.9-7.4 6.6-11.6 5.5-4.2-1.2-7.9-5.5-11.9-8.3-4.6-3.3-10.2-7-14.9-2.9-3.8 3.4-6.9 9.5-10.2 14.4-3 4.7-6.9 11.5-11 11.4-3.7 0-6.2-5.3-8-10.9-2.3-7-4.1-15.9-8-20.1-3.4-3.6-7.6-2.7-11.3-1.5-6.7 2.1-14.3 6.9-20.5-.9-6.2-7.7-9.7-20.7-12.5-33.4-4-18.2-7.2-37.1-11.2-55.3-1.1-4.9-2.3-10-3.8-15H127c5.3 13 8.1 29.4 11.1 44.6 3.5 16.4 6.5 34.1 11.4 49.3z"/><path class="st0" d="M149.6 86.9c2 6.2 4.6 11.9 7.8 16 3.4 4.3 7.3 4.6 11.3 3.6 6.3-1.5 14-7.5 20.1-1.6 3.5 3.3 5.5 10.2 7.3 16.4 2.2 7.5 5.2 17 10.5 14.4 2.7-1.3 5.1-5.2 7.2-8.3 1.8-2.7 3.6-5.5 5.4-8.3 2.6-4.1 5.4-8.6 8.7-10.1 4.2-1.9 8.8 1.1 12.8 3.8 4 2.7 7.6 7.1 11.8 8.5 5.2 1.9 9.9-2.8 14.2-8.1 4.3-5.3 8.3-11.3 12.4-17 6-8.3 12.9-16.1 20.4-17.1V74c-3.1.5-6.2 2.2-9.1 4.5-9.7 8-17 23.6-26.1 33.6-3.6 4-7.4 6.8-11.7 5.5-4.4-1.3-8.2-6.1-12.3-9.1-4.6-3.3-9.9-7-14.6-2.7-3.8 3.4-6.8 9.3-10.1 14.2-3.2 4.8-7.2 12.1-11.6 11.2-3.6-.7-5.9-6.3-7.5-11.9-2.1-7.1-3.8-15.9-7.7-20.2-3.3-3.7-7.5-2.8-11.1-1.7-6.5 2.1-14.1 7.3-20.3.1-6.5-7.6-10.1-21.2-12.9-34.2-3.9-18-6.9-36.6-10.6-54.7-.5-2.7-1.1-5.4-1.8-8.2h-1.7c3.4 11.4 5.6 24.4 8 36.5 3.3 16.8 6.3 34.8 11.2 50z"/><path class="st0" d="M149.9 80.7c2.1 6.5 4.9 12.4 8.4 16.2 3.4 3.7 7.5 3.3 11.2 2.2 6.1-1.8 13.9-7.6 19.7-1.1 3.1 3.5 5 10 6.6 16 2.1 7.7 5 18.2 10.5 15.5 2.6-1.2 5.1-5.2 7.2-8.2 1.8-2.7 3.6-5.5 5.4-8.3 2.5-3.9 5.2-8.2 8.3-9.9 4.4-2.3 9.2 1.1 13.2 4 3.9 2.9 7.6 7.4 11.7 8.9 5.2 1.9 9.9-2.9 14.2-8.2 4.3-5.4 8.2-11.6 12.3-17.5 6-8.6 13.1-16.9 20.7-17.9v-5.6c-3.3.5-6.5 2.4-9.5 4.9-9.5 8.2-16.5 23.5-25.4 33.7-3.6 4.2-7.5 7.3-11.8 6.2-4-1.1-7.5-5.1-11.1-8.3-4.5-3.9-10.3-8.5-15.2-5.1-4 2.8-7.3 9.1-10.6 14.1-3.2 4.8-7.2 12.1-11.5 11.8-3.6-.2-6-5.6-7.7-11.1-2.1-7-3.5-15.3-6.9-20.6-3.1-4.9-7.4-4.5-11.1-3.4-6.5 1.9-14.1 7.8-20.5 1.7-6.6-6.4-10.3-19.9-13-32.3-3.9-17.9-6.8-36.6-10.3-54.8-.2-1-.4-2.1-.6-3.1h-1.3c2.3 10 4.1 20.7 6 30.7 3.4 16.6 6.2 34.5 11.1 49.5z"/><path class="st0" d="M21.1 2.6c8.3 1.1 16 8.3 21.9 19.4 3.3 6.2 5.7 13.7 8.4 20.9 1.4 3.8 3.2 9.5 5.5 11.6 1.8 1.7 4.5 1.3 6.5 1.2 10.8-1 21-10 31.3-15.5 4.8-2.5 9.9-4.9 14.9-3.9 4.1.8 7.5 4.2 10.7 9 6.9 10.2 10.8 26 14.5 40.6 4.2 16.4 8 33.5 12.9 49.1 4.1 12.9 9.9 26.4 18.4 27 7.2.5 14.9-5.8 22-1.6 3.6 2.2 6.2 7.7 8.5 13.1 2.9 6.6 6.4 14.1 11.4 11.3 2.8-1.6 5.4-6.1 7.6-9.7 1.7-2.7 3.3-5.6 4.9-8.4 2.3-4 4.7-8.5 7.7-10.7 3.9-2.8 8.3-1 12.2.3 4.2 1.4 8.2 5.1 12.4 6.5 5.3 1.8 10-1.9 14.6-6.6 4.5-4.6 8.7-9.9 13-14.8 5.8-6.5 12.3-12.6 19-13.4v-5.8c-2.3.3-4.7 1.2-6.9 2.5-10.1 6-18.1 20-27.5 28.8-3.7 3.5-7.5 5.7-11.7 4.6-4.4-1.1-8.4-5.1-12.7-6.9-4.6-1.9-9.8-4-14.2.7-3.6 3.9-6.5 10.1-9.6 15.2-3.1 5.1-6.9 12.2-11.2 12.2-3.6 0-6.4-4.8-8.5-9.8-2.7-6.3-5.3-13.8-9.6-16.3-3.9-2.2-8.2-.9-12.1.2-3.7 1-7.5 2.3-11.3 1.5-3.4-.7-6.2-3.7-8.8-7.8-6.2-9.8-9.8-24-13.2-37.5-4.3-17.3-8.2-35.4-13.3-52-2.2-7.1-4.7-13.9-8-19.2-4.3-6.9-9-10.3-14.7-9.7-5.5.6-11 3.9-16.2 7.2-5.3 3.3-10.6 6.9-16 9.6-4.4 2.2-9 3.9-13.6 3.4-2-.2-3.1-.5-4.5-3-1.7-2.8-3.1-6.2-4.4-9.6-2.9-7.5-5.6-15.3-9.3-21.5-3.7-6.1-7.9-10.9-12.5-13.7-.4-.2-.8-.4-1.1-.6H7.7c-.6.1-1.1.3-1.6.4-1.4.3-2.8.6-4.3.8-.4 0-.8.1-1.3.2v4.4c2-.2 4.1-.8 6.1-1.4 4.8-1.3 9.6-2.9 14.5-2.3z"/><path class="st0" d="M18.5 49.6c8 3.2 15 12.6 19.9 24.9 2.7 6.9 4.7 14.7 6.6 22.5 1 4.3 2.1 8.6 3.3 12.6.7 2.2 1.4 4.8 2.3 6.5 1 1.9 2.4 2.7 3.7 3.4 9.9 5.4 20.9-1.5 30.5-6.5 9.1-4.7 19.2-10.9 28.2-2.1 7.5 7.4 12.6 19.5 17.2 32.8 5.4 15.8 10.3 32.3 15.8 47.9 2.3 6.3 4.7 12.5 7.5 17.9 3 5.7 6.2 11.5 10.4 13.5 8 3.8 16.3-2.8 24.2.7 3.8 1.7 6.6 6.4 9.6 10.9 3.8 5.8 9 8.8 13.5 3.8 4.2-4.7 7.7-12.2 11-18.8 2.1-4 4.2-8.4 6.8-10.9 8.4-7.9 16.9.9 25.6 1.4 5.4.3 10.2-3.2 15.1-7.3 4.6-3.9 9.1-8.4 13.8-12.2 5-4.1 10.5-7.6 16-8.1v-4.7c-1.3.1-2.6.4-3.9.8-10.2 3.3-19.1 14.9-28.4 22.5-4.4 3.5-8.7 5.9-13.5 5.3-4.8-.6-9.4-3.9-14.2-5-4.3-1-8.9.3-12.4 5.3-3.1 4.4-5.6 10.3-8.4 15.3-3.1 5.6-7 13.8-11.5 14.3-3.4.4-6.7-2-9.3-6-3.6-5.6-6.7-11.6-11.6-12.9-4.2-1.1-8.4.1-12.5.7-3.8.6-7.7.9-11.4-1.3-3.6-2.2-6.5-7.3-9.1-12.3-5.9-11.2-10.1-25.3-14.3-38.8-5.1-16.3-9.9-34.1-16.6-48.2-3.2-6.7-7.2-12.5-11.7-15.7-5.2-3.8-10.9-2.4-16.2-.1-10.3 4.5-20.5 12.2-31.1 13.1-3.6.3-8.2.1-11.5-3.4-1.7-1.8-2.9-6.1-3.9-9.4-1.2-3.8-2.2-7.8-3.1-11.7-4.1-16.2-9.1-30.8-17.6-39.3-4.3-4.3-9.1-6.7-14-6.7-4.3 0-8.5 1.5-12.7 3.1v3.9c1.6-.6 3.1-1.1 4.7-1.6 4.3-1.4 8.8-1.9 13.2-.1z"/><path class="st0" d="M19.8 38C27.9 40.9 35 50.1 40 62.4c2.8 6.8 4.7 14.5 6.8 22.1 1.1 4.1 2.2 8.2 3.6 12 .9 2.4 1.7 4.6 3.1 5.7.9.8 2 1.2 3 1.6 10.4 3.9 21.4-4.1 31.4-9.3 5.1-2.7 10.3-5.5 15.5-5.7 4.6-.2 8.6 2.3 12.5 6.8 7.2 8.3 11.9 22.1 16.1 35.6 5 15.8 9.5 32.2 14.9 47.5 4.3 12.2 10.3 27.2 18.4 29.3 7.7 2.1 15.8-4.3 23.4.1 3.6 2 6.2 7.1 9 11.7 3.3 5.8 8.2 9.6 12.5 5.3 4.3-4.2 8-12 11.4-18.5 2.2-4.1 4.4-8.7 7.2-11.2 8.8-7.9 17.4 2.6 26.3 2.9 5.3.2 10.2-3.9 14.9-8.2 4.6-4.2 9-8.8 13.6-12.9 5-4.3 10.4-8 15.9-8.5v-4.9c-1.4.1-2.9.5-4.3 1-10.4 3.9-19.3 16.5-28.9 24.5-4.2 3.5-8.4 5.7-13 4.9-4.6-.7-8.8-3.9-13.3-5.6-4.5-1.7-9.4-.8-13.2 4.4-3.1 4.3-5.7 10.1-8.6 15.1-3 5.3-6.8 13-11.1 13.8-3.2.5-6.5-2.1-8.9-6-3.4-5.7-6.2-12.5-10.8-14.5-4-1.8-8.3-.5-12.4.2-3.8.8-7.8 1.5-11.6-.1-3.6-1.6-6.4-5.8-9.1-10.5-6.1-10.8-10.1-24.8-14.2-38.5-5-16.8-9.6-35-15.9-50.1-2.7-6.5-5.9-11.7-9.7-15.9-5-5.6-10.7-5.9-16.3-3.9-10.6 3.8-20.6 12-31.3 14.6-4.3 1-8.8 1.2-13-1.4-3.5-2.2-5.6-12-7.2-17.8-2.4-8.5-4.6-16.9-8-24.1-2.9-6.2-6.4-11.5-10.3-15.2-4.4-4.2-9.4-6.4-14.3-6.2-4.6.2-9.1 2-13.6 3.5v4c1.8-.6 3.7-1.3 5.5-1.8 4.6-1.3 9.2-1.9 13.8-.2z"/><path class="st0" d="M18.6 43.7c7.9 2.8 14.9 11.6 20 23.6 2.8 6.6 4.8 14 6.7 21.6 1 4.2 2.1 8.4 3.3 12.4.6 1.9 1.2 3.8 1.9 5.6 1 2.7 2.3 3.8 3.9 4.7 9.8 5.4 20.8-1.6 30.3-6.6 9-4.8 19.3-11.5 28.2-2.9 7.6 7.3 12.6 19.5 17.2 32.9 5.4 16 10.1 32.7 15.5 48.6 2.2 6.5 4.6 12.8 7.4 18.4 2.8 5.7 6.1 11.6 10.1 13.8 7.8 4.2 16-2.3 23.9.4 3.8 1.3 6.7 5.4 9.6 10.2 1.8 3 3.6 6.2 5.9 7.4 1.9 1 4.5 1.6 6.4.3 3.1-2 5.7-7.1 8.1-11.3 1.5-2.6 2.9-5.2 4.3-7.9 2.2-4.2 4.4-8.9 7.2-11.7 8.3-8.3 16.7.6 25.2 1.7 10.4 1.3 20-11.7 29.2-19.7 5.2-4.5 10.9-8.4 16.6-8.9v-5.9l-2.1.3c-10.7 2.4-20 15-29.6 23.1-4.2 3.6-8.5 6.3-13.1 6.1-4.7-.3-9.2-3.3-13.7-5-4.5-1.7-9.5-1.3-13.5 3.7-3.2 4.1-5.8 10-8.5 15-3.1 5.6-6.9 13.4-11.2 14.8-3 .9-6.5-1.2-8.9-4.7-3.5-5.1-6.2-11.9-10.6-14.3-4-2.1-8.2-1.1-12.3-.3-3.9.7-7.8 1.5-11.7.2-3.7-1.3-6.5-5.2-9.3-9.9-6-10.3-10.2-23.6-14.2-36.8-5.2-16.8-9.9-34.8-16.3-50.1-2.6-6.4-5.7-11.8-9.3-16-5.3-6-10.8-7.3-16.8-5.3-10.8 3.5-20.9 12-31.8 14.4-4.2.9-8.7 1-12.8-1.5-4-2.4-6-12.2-7.7-18.8-2.2-8.3-4.3-16.5-7.4-23.7-2.9-6.7-6.5-12.4-10.6-16.5s-8.7-6.4-13.3-6.7C10 38.1 5.2 40 .5 41.6v4.2c1.5-.6 3-1.1 4.6-1.6 4.5-1.3 9-2 13.5-.5z"/><path class="st0" d="M17.4 61.3c7.7 3.4 14.4 12.6 19.1 24.6 2.8 7.2 4.8 15.2 6.6 23.5 1 4.4 1.9 8.8 3.1 13.1 1.2 4.4 2.4 9.6 4.9 11.7 9.2 8 20.5 2.2 29.8-2.4 9.2-4.6 19.9-12.4 29.2-5.2 7.7 5.9 13.2 17 18 29.7 5.9 15.6 11 32.2 16.8 48 2.3 6.3 4.7 12.5 7.5 18.1 2.8 5.7 6 12.1 9.9 14.9 7.9 5.8 16.5-.5 24.7 1.8 4.1 1.2 7.3 5.5 10.7 10 1.7 2.3 3.5 4.6 5.6 5.2 2.6.9 5.5.8 7.8-1.6 4.3-4.5 7.9-12.5 11.3-19.2 2-4.1 4.1-8.6 6.7-11.4 7.9-8.4 16.3-1.5 24.6-.5 10.3 1.3 19.8-10.1 29-17.4 5.3-4.2 11.1-7.9 16.9-8.3v-5.3c-.9 0-1.8.2-2.6.4-10.6 2.4-20 14.1-29.8 21.5-4.5 3.4-8.9 5.4-13.7 4.7-4.9-.7-9.7-3.8-14.6-4.2-4-.3-8.3 1.5-11.5 6.4-2.8 4.3-5.1 9.7-7.7 14.5-3.1 5.7-6.8 13.6-11.1 15.2-3.6 1.4-7.4-1-10.3-4.9-3.6-4.9-6.7-10.3-11.2-11.6-4.2-1.2-8.5-.1-12.7.5-4 .5-8.3.7-12.1-2-3.4-2.4-6.1-7.5-8.7-12.2-6-11.3-10.4-25.2-14.9-38.7-5.3-15.8-10.2-33.2-17.2-46.7-3.3-6.4-7.3-11.6-11.7-14.7-5.4-3.7-11.2-2.2-16.6.2-10.2 4.5-20.3 11.8-30.9 12.1-3.8.1-8.4-.5-11.8-4.4-1.5-1.8-2.5-5.5-3.4-8.5-1.2-4-2.2-8.3-3.2-12.5-3.9-16.9-8.5-32.5-17.1-42.1-3.9-4.4-8.3-7.1-12.9-7.8-4.4-.7-8.9.7-13.2 2.4v4c1.2-.5 2.5-.9 3.7-1.3 4.2-1.3 8.6-1.5 13 .4z"/><path class="st0" d="M18.6 55.7c7.6 3.5 14.2 12.7 18.9 24.6 2.8 7.2 4.8 15.2 6.7 23.4 1.1 4.7 2.1 9.4 3.5 13.8 1.3 4.5 2.6 7.9 5.3 9.7 9.7 6.5 20.8 0 30.3-4.9 9-4.6 19.3-11.4 28.4-3.5 7.7 6.8 13 18.5 17.8 31.8 5.6 15.7 10.6 32.1 16.2 47.7 2.3 6.3 4.7 12.5 7.6 18 2.9 5.7 6.2 11.8 10.2 14.1 7.9 4.5 16.2-1.8 24.3 1 4.1 1.5 7.1 6.3 10.4 10.9 3.7 5.2 8.9 7.9 13.1 3.3 4.2-4.6 7.8-12.3 11.2-19 2.1-4.1 4.1-8.5 6.8-11.2 7.9-7.9 16.1-.8 24.3.4 10.6 1.5 20.2-10.7 29.6-18.3 5.2-4.2 10.9-7.9 16.6-8.3v-5.3c-1.2.1-2.4.3-3.6.6-10.1 3-19 14-28.2 21.4-4.5 3.6-8.9 6.1-13.8 5.5-4.8-.6-9.4-3.6-14.2-4.6-4.2-.9-8.7.5-12.2 5.3-3.1 4.3-5.5 10.1-8.2 15-3 5.6-6.8 13.5-11.1 15-3.5 1.2-7.3-1.2-10-5.2-3.4-4.9-6.4-10.6-10.8-12.2-4.1-1.5-8.5-.4-12.6.2-4 .6-8.3 1.1-12.2-1.3-3.5-2.1-6.2-6.9-8.8-11.7-6-11.1-10.3-25-14.7-38.5-5.3-16.2-10.1-33.9-17-47.9-3.1-6.3-6.7-11.3-10.8-14.8-5.3-4.4-11.2-3.4-16.6-1.1-10.4 4.4-20.6 12-31.3 12.9-3.9.3-8-.4-11.6-3.4-1.9-1.6-3-5.6-4.1-8.9-1.2-4.1-2.3-8.3-3.3-12.6-4.5-16.5-9.3-31.6-18-40.6-4.2-4.4-8.8-6.9-13.6-7.1-4.3-.2-8.5 1.2-12.6 2.8v4.1c6-2.2 12-3.9 18.1-1.1zm132.3 4.7c2.2 6.1 5.2 12.1 8.9 14.5 3.6 2.3 7.5 1 11.1-.4 5.9-2.3 13.7-7.7 19 .2 3 4.5 4.5 11.6 6 18.1 1.9 8 4.8 18.3 10.4 15 2.6-1.5 5-5.2 7.1-8.1 1.8-2.6 3.6-5.3 5.4-7.9 2.7-4 5.7-8.4 9.2-9.3 9.5-2.6 16.6 14.8 25.6 15.9 4.9.6 9.4-4.9 13.2-10.2 4.2-5.9 8.1-12.6 12.2-18.8 5.8-8.8 12.8-17.1 20.4-18.1v-5c-4 .5-7.9 3.2-11.5 6.8-9.2 9.4-15.9 25.6-24.8 36.1-3.4 4-7 6.8-11 5.7-4.3-1.2-7.9-6.1-11.7-9.7-4.4-4.3-10.1-9.4-15-5.7-4 3-7.4 9.1-10.8 14.1-3.2 4.7-7.5 12.1-11.9 10.6-3.6-1.2-5.7-7.6-7.1-13.5-1.8-7.4-3.1-16.3-6.5-21.7-3-4.7-7.2-4.3-10.8-3.1-6.4 2.2-14.1 8.6-20.4 2.7-6.8-6.2-10.3-20.5-12.8-33.3-2.2-11.4-4-23-5.8-34.7h-.6c.6 3.5 1.1 7 1.7 10.4 2.9 16.5 5.3 34.7 10.5 49.4z"/><path class="st0" d="M21.6 8.6c8.2 1.7 15.7 9.5 21.3 20.9 3.1 6.2 5.3 13.6 7.8 20.7 1.3 3.9 2.9 8.9 5 11.6 1.8 2.4 4.8 2.1 6.9 2 10.8-.5 21.1-9.4 31.3-14.8 4.8-2.5 9.9-4.9 14.9-3.9 4.3.8 7.8 4.4 11.2 9.4 6.9 10.2 10.9 26.2 14.7 40.8 4.3 16.2 8.2 33.1 13.2 48.4 4.2 12.7 10.1 25.8 18.5 26.2 7.3.4 15.2-5.9 22.2-1 3.5 2.4 5.8 8 8.1 13.4 2.6 6.2 6.5 12.5 11 9.9 2.9-1.6 5.4-6.2 7.7-9.8 1.6-2.6 3.2-5.4 4.7-8.1 2.4-4.2 4.8-9 7.9-11.4 3.7-2.9 7.8-1.5 11.6-.4 4.6 1.2 8.8 4.9 13.3 6.3 5.3 1.6 10-2 14.6-6.6s8.9-9.9 13.4-14.8c5.6-6.1 12-11.7 18.4-12.5v-5.4c-2.2.3-4.4 1.1-6.6 2.3-10 5.7-18.2 19.4-27.6 28-3.8 3.5-7.6 5.7-11.8 4.7-4.4-1.1-8.4-5-12.7-6.6-4.6-1.7-9.8-3.7-14.1 1.1-3.6 4-6.4 10.2-9.5 15.3-3.1 5.1-6.9 12.4-11.2 12.5-3.7 0-6.5-4.6-8.8-9.7-2.8-6.4-5.6-13.5-10.1-15.7-4-1.9-8.2-.5-12.2.6-3.5.9-7.2 2-10.8 1.1-3.5-.9-6.3-4-9-8.3-6-9.8-9.7-23.7-13.2-37.1-4.5-17.5-8.5-35.8-13.8-52.4-2.4-7.6-5.3-14.4-9-19.8-4.3-6.2-9.1-8.8-14.5-7.9-11.3 1.9-22 12.3-33 17-4.2 1.8-8.7 3.1-13 2.1-2.1-.5-2.9-1.5-4.4-4.5-1.6-3.2-2.9-6.8-4.2-10.4-2.7-7.6-5.4-15.2-9-21.3C37.2 14.4 33 9.6 28.4 6.8c-4.9-3-9.9-3.4-15-2.3C9.3 5.5 4.9 7.3.5 7.8V12c2.2-.4 4.5-1 6.7-1.7 4.7-1.3 9.5-2.7 14.4-1.7z"/><path class="st0" d="M21.4 14.4c8.1 2 15.4 10 20.9 21.5 3.1 6.6 5.4 14.4 7.9 21.8 1.3 3.9 2.8 8.6 4.7 11.5 1.7 2.6 4.8 2.3 6.9 2.3 10.8 0 21.1-8.7 31.3-14 4.7-2.4 9.6-4.8 14.6-4.1 4.5.6 8.2 4.2 11.8 9.3 6.7 9.6 10.7 24.7 14.6 38.6 4.5 16.2 8.5 33.1 13.7 48.6 4.3 12.8 10.3 26.1 18.8 26.7 7.2.5 15-5.5 22.1-.8 3.7 2.5 6.1 8.3 8.6 13.7 2.9 6.4 7.5 11.5 11.9 7.5 4.5-4 8.3-12 11.9-18.3 2.2-4 4.6-8.4 7.6-10.5 3.9-2.8 8.5-1.3 12.5-.1 4.3 1.2 8.3 4.7 12.6 5.8 5.3 1.3 10-2.6 14.6-7.2 4.4-4.3 8.6-9.3 12.9-13.8 5.6-5.8 11.8-11.1 18.2-11.8v-4.5c-1.9.2-3.7.8-5.5 1.7-10.4 5.2-18.8 19-28.4 27.7-3.9 3.5-7.7 5.7-12.1 4.6-4.5-1.2-8.7-5-13.2-6.3-4.7-1.4-9.6-3-13.9 2.2-3.5 4.3-6.4 10.6-9.6 15.8-3 5-6.8 12.2-11.1 12.2-3.2-.1-6.2-3.6-8.3-8.1-2.9-6.1-5.2-13.4-9.5-16.1-3.8-2.4-8-1.2-11.8-.3-3.9 1-8 2.3-11.9 1.3-3.5-.9-6.2-3.9-8.9-8.2-6.1-9.9-9.9-23.7-13.5-37.2-4.5-17-8.6-34.8-13.9-51-2.4-7.4-5.2-14.4-8.9-19.7-4.6-6.5-9.3-9.3-15-8.4-11.3 1.6-22 12-33.1 16.4-4.2 1.7-8.5 2.8-12.8 1.6-.8-.2-1.8-.3-2.5-1.1-.9-1-1.7-3.1-2.4-4.6-1.4-3.1-2.6-6.5-3.8-9.9-2.6-7.7-5.1-15.3-8.6-21.7-3.4-6.1-7.4-11-11.8-14.1-4.7-3.3-9.7-4.2-14.7-3.4-4.6.8-9.2 2.7-13.8 3.5v4.2c2.2-.5 4.4-1.2 6.5-1.8 4.8-1.4 9.6-2.7 14.4-1.5z"/><path class="st0" d="M21.4 20.4c8.3 2.5 15.8 11.5 21.1 23.9 2.9 6.8 5 14.6 7.4 22 1.3 3.9 2.9 10 5.2 11.9 1.9 1.6 4.5 1.7 6.6 1.7 10.7 0 20.9-8.3 31.1-13.5 4.8-2.5 9.9-4.8 14.9-3.9 4.3.8 7.9 4.3 11.4 9.2 6.9 9.7 11 25.1 15 39.2 4.5 15.9 8.6 32.5 13.8 47.6 4.3 12.6 10.3 25.7 18.7 26.4 7.4.6 15.4-5.6 22.6-.3 3.5 2.5 5.8 8 8.3 13 3.1 6.5 7.9 11 12.4 6.6 4.4-4.4 8.1-12.2 11.7-18.7 2.2-3.9 4.4-8.1 7.3-10.2 3.9-2.9 8.5-1.5 12.5-.5 4.5 1.1 8.7 4.8 13.2 5.6 5.1.8 9.6-3 14-7.3 4.5-4.4 8.8-9.3 13.3-13.8 5.4-5.4 11.5-10.3 17.6-10.9v-5.8c-1.8.2-3.5.7-5.2 1.5-10.3 4.8-18.8 18-28.3 26.4-3.9 3.5-7.9 5.8-12.3 4.8-4.5-1.1-8.7-4.8-13.2-5.9-4.5-1.2-9.5-2.7-13.6 2-3.4 3.9-6.1 9.9-9.1 15s-6.8 12.5-11 13.5c-3.3.8-6.8-2.6-9.1-7-3.1-6-5.5-13.4-9.9-16-3.8-2.2-7.9-1.2-11.8-.3-3.9.9-7.9 2.1-11.8 1.1-3.5-.9-6.3-4.1-9-8.4-6.1-9.9-10-23.6-13.7-37-4.7-17-8.9-34.9-14.5-51-2.6-7.4-5.5-13.9-9.3-19-4.6-6.1-9.6-8.3-15.2-7.1C91.4 57.6 81 67.3 70 71.3c-4.2 1.5-8.5 2.4-12.8 1-.8-.3-1.8-.4-2.5-1.2-.9-1-1.7-3.2-2.4-4.8-1.4-3.2-2.6-6.7-3.7-10.3-2.5-7.7-4.9-15.3-8.3-21.7-3.4-6.4-7.4-11.5-11.8-14.8-4.6-3.4-9.5-4.6-14.4-3.9-4.6.7-9.2 2.5-13.8 3.5v4.3c2.4-.6 4.8-1.5 7.2-2.2 4.7-1.3 9.3-2.2 13.9-.8z"/><path class="st0" d="M19.7 32c8 2.5 15.3 11.1 20.5 22.9 2.9 6.7 5 14.3 7.1 21.9 1.2 4.2 2.4 8.4 3.8 12.2.9 2.3 1.7 4.4 3.1 5.5.9.7 2 1.1 2.9 1.4 10.2 3.3 20.9-4.4 30.6-9.7 9-4.9 18.9-10.3 27.5-.4 7.4 8.4 12 21.4 16.3 35.3 5 16.2 9.5 33.1 14.8 48.9 4 12.1 9.9 27.7 17.8 30.5 7.8 2.8 15.7-3.7 23.4-.3 3.8 1.7 6.6 6.5 9.3 11.5 1.6 2.9 3.2 6.1 5.3 7.5 2 1.3 4.5 2.1 6.6.7 2.8-1.9 5.1-6.2 7.3-9.8 1.7-2.8 3.3-5.7 4.8-8.7 2.2-4.2 4.5-8.9 7.3-11.6 8.5-8.1 16.9 2 25.4 3.2 10.2 1.4 19.6-11.9 28.3-20.2 5.4-5.1 11.4-9.7 17.5-10.3v-5.8c-1.5.1-3.1.5-4.6 1.1-10.4 4.2-19.2 17.1-28.7 25.2-4.2 3.5-8.4 5.7-13 4.9-4.6-.8-8.8-4.1-13.3-6-4.5-1.9-9.5-1.1-13.3 4.1-3.3 4.4-5.9 10.4-8.9 15.5s-6.7 12.4-10.9 13c-3.4.5-6.8-2.8-9.2-7.2-3.1-5.7-5.8-12.2-10.2-14.2-4-1.9-8.4-.6-12.4.3-3.9.8-7.9 1.7-11.7.1-3.4-1.4-6.2-5.4-8.7-9.8-6-10.4-9.9-24.2-13.8-37.5-4.9-16.8-9.3-34.7-15.3-50.1-2.8-7.1-6-12.9-9.9-17.6-4.8-5.7-10.3-6.6-15.8-4.9-10.8 3.4-21 12.2-31.9 15.2-4.2 1.1-8.5 1.5-12.6-.5-2.1-1-2.9-3.1-4.2-6.4-1.4-3.7-2.7-7.7-3.8-11.7-2.3-8-4.6-15.9-7.9-22.7-3-6.5-6.8-11.9-11-15.5-4.5-3.9-9.5-5.5-14.4-5-4.5.4-8.9 2.2-13.3 3.5v4.2c1.7-.6 3.5-1.2 5.2-1.7 4.6-1.5 9.3-2.4 14-1z"/><path class="st0" d="M19.8 25.9C28 28 35.3 36.3 40.7 48.1c2.9 6.4 5 13.8 7.2 21.2 1.3 4.5 2.7 9.1 4.4 13.1 1.7 3.9 3.6 4.7 6.1 5.3 10.4 2.4 21-5.7 30.9-11 9.2-5 18.7-9.4 27.3 1.1 7.2 8.7 11.6 22.3 15.8 36.1 4.8 16.3 9.2 33.1 14.5 48.9 3.9 11.8 9.6 26.6 17.3 29.3 7.8 2.8 15.8-4.1 23.6-.5 3.7 1.7 6.4 6.4 8.9 11.4 1.6 3.2 3.2 6.7 5.4 8.3 1.9 1.3 4.3 2.2 6.2 1.1 2.9-1.6 5.4-6.1 7.6-9.8 1.7-2.8 3.3-5.7 4.9-8.6 2.3-4.2 4.5-8.8 7.4-11.5 8.4-7.9 16.6 2.3 25.1 3.9 10.3 1.9 19.8-11.9 28.6-20.5 5.5-5.3 11.6-10.2 17.8-10.8v-5.4c-1.6.2-3.3.6-4.9 1.3-10.3 4.5-18.9 17.5-28.4 25.8-4 3.5-7.9 5.7-12.3 4.8-4.5-1-8.7-4.6-13.2-5.6s-9.5-2.4-13.5 2.4c-3.4 4-6.1 10-9 15.1-3 5.2-6.7 12.6-10.9 13.8-3 .9-6.5-2-8.7-5.8-3.2-5.6-5.6-13.1-10-15.9-3.7-2.4-7.9-1.5-11.7-.7-3.9.9-7.9 2-11.9 1.2-3.6-.8-6.4-3.7-9.1-8.1-6.1-9.7-10.2-23.1-13.9-36.4-4.8-17-9.2-34.8-14.8-51-2.5-7.3-5.5-14-9.3-19-4.7-6.1-9.4-8.7-15.1-7.7-11.1 2-21.6 11.8-32.6 15.7-4.2 1.5-8.6 2.4-12.9 1-2.4-.8-3.4-1.7-4.9-5.3-1.4-3.1-2.5-6.6-3.6-10-2.5-7.8-4.7-15.9-7.9-22.7-3.1-6.6-6.9-12-11-15.8-4.6-4.1-9.6-6-14.7-5.6-4.9.4-9.7 2.4-14.5 3.7V29c1.7-.5 3.3-1.1 5-1.6 4.3-1.4 9.1-2.7 13.9-1.5zm139.7-11.8c3.6 2.1 7.6.3 11.1-1.5 5.6-2.9 13.3-9.5 18.6-2 2.1 3.1 3.4 7.8 4.3 12.6-.9-6.8-2-14.1-4.7-18.7-3-5-7.1-4.2-10.6-2.6-6.4 2.8-14 10.4-20.5 5.1-1.9-1.5-3.5-3.8-4.8-6.5h-1.5c1.9 5.9 4.6 11.5 8.1 13.6zm37-5.2c-.8-2-1.5-4.2-1.9-6.6.5 4.1 1.2 8.1 2.4 11.5 4 10.9 10.6 2.3 14.9-2.9 2.9-3.5 5.7-7.6 8.8-10.4h-4.8c-3 3.5-5.8 7.4-8.9 10.3-3.6 3.4-7.6 4.8-10.5-1.9z"/><path class="st0" d="M208.5 16.5c-3.3 3.5-7.3 6.6-10.6 1.4-1.3-2-2.1-4.6-2.7-7.5.5 3.8 1.2 7.4 2.3 10.5 3.8 11 10.2 3 14.5-2.4 3.8-4.7 7.5-10.5 11.8-13.2C233-.5 240 18.1 247.1 25.8c4.9 5.4 9.6 3.7 14-2.5 4.1-5.8 7.5-13.5 10.9-20.9.3-.7.6-1.3.9-2h-2.2c-3.3 7.4-6.8 14.5-11.1 19.6-3.6 4.3-7.5 5.7-11.4 2.5-4.1-3.3-7.4-9.7-11-14.6-2-2.8-4.2-5.7-6.6-7.5h-7.8l-1.2.9c-4.6 4.2-8.6 10.5-13.1 15.2zM.5 288c2.1 3.5 4 7.3 5.6 11.5h1.7c-2.1-6.3-4.5-11.9-7.4-16.7v5.2zm0 11.5h1.6c-.5-1.1-1-2.2-1.6-3.2v3.2z"/><path class="st0" d="M210.4 5.5c1.3-1.6 2.7-3.3 4-5H211c-1.2 1.4-2.4 2.8-3.7 3.9-3.7 3.4-7.6 4.2-10.3-2.8-.1-.4-.3-.8-.4-1.2h-1.4c.4 2.1.8 4.1 1.5 5.9 3.4 10.8 9.4 4.2 13.7-.8zM.5 294.3c.9 1.7 1.8 3.4 2.6 5.2H5c-1.4-3.5-2.9-6.7-4.6-9.7v4.5zM150.4 52.5c2.1 6.2 4.8 12.1 8.4 15 3.6 2.9 7.6 1.7 11.3.3 5.9-2.3 13.8-8.4 19.3-.6 3 4.2 4.5 11.3 5.9 17.7 1.6 7.4 3.7 18.1 8.8 17.9 2.9-.1 5.5-4.1 7.8-7.2 1.9-2.6 3.8-5.4 5.6-8.2 2.8-4.2 5.9-9.1 9.5-10.4 4.4-1.7 8.9 2.4 12.9 5.9 3.9 3.5 7.6 8.8 12 10.4 5.1 1.8 9.6-3.2 13.6-8.7 4.3-5.9 8.1-12.7 12.1-19.1 6.2-10 13.6-19.6 21.9-20.6V39c-4.1.5-8 3.1-11.6 6.7-9.2 9.4-15.8 25.6-24.6 36.4-3.5 4.3-7.3 7.6-11.5 6.3-4.1-1.2-7.6-5.8-11.1-9.4-4.5-4.7-10.4-10.4-15.6-6.7-4.1 2.9-7.5 9-10.9 13.9-3.2 4.6-7.6 11.8-11.9 10.3-3.8-1.4-5.7-8.3-7.1-14.5-1.6-7.1-2.8-15.4-5.9-20.9-3-5.2-7.2-5-10.9-3.8-6.4 2.1-13.8 8.6-20.2 3.5-6.9-5.5-10.5-19.9-12.9-32.4-1.8-9.1-3.3-18.4-4.7-27.8h-.4c.1.4.1.8.2 1.2 2.7 16.9 5 35.6 10 50.7zM.5 272.9c4.7 7.1 8.5 16.4 11.3 26.6h.9c-3-11.9-7-22.7-12.1-30.4v3.8zM263.8.5h-3.6c-.9 1.3-1.8 2.4-2.7 3.4-5.4 5.7-9.9 2.3-14-3.4h-1.7c1.8 2.9 3.5 5.7 5.2 7.7 6.3 7.2 12 1.1 16.8-7.7z"/><path class="st0" d="M266.3.5h-1.5c-1.9 3.8-4 7.2-6.4 9.7-7 7.3-12.6-1.1-17.9-9.7h-3.2c3.1 4.7 6.1 10 9.1 13.3 7.7 8.4 14.5-2 19.9-13.3zM.5 281c3.4 5.3 6.2 11.6 8.4 18.5h1.8C8 289.8 4.6 281.2.4 274.6v6.4z"/><path class="st0" d="M269.6.5h-2.3c-2.7 5.7-5.6 11.3-9.1 15-3.5 3.7-7.3 4.1-10.9.7C243 12.4 239.7 5.7 236 .5h-3.2c5.3 5 9.9 15.2 14.8 19.9 8.7 8.4 16.3-7.3 22-19.9zm-60.2 0h-12c3.1 8.3 8 4.5 12 0z"/><path class="st0" d="M160.6 45.4c3.8 1.6 7.7-.4 11.4-2.1 5.6-2.7 13.1-7.8 18 .7 2.7 4.6 4 11.6 5.1 18 1.4 7.6 3.1 19.3 8.2 19.9 2.9.3 5.5-3.4 7.8-6.3 1.9-2.4 3.7-5 5.5-7.6 3-4.4 6.4-9.6 10.2-10.9 4.5-1.5 9 3.1 12.8 7 3.9 4 7.6 9.8 12 11.5 5 1.8 9.4-3.3 13.2-8.9 4.3-6.2 8.1-13.6 12.1-20.5 6.3-10.9 13.8-21.5 22.5-22.6v-5.8c-4.5.6-8.8 3.8-12.7 8.1-9.1 10.3-15.4 27.3-24.2 38.5-3.5 4.4-7.3 7.5-11.5 5.9-4.2-1.6-7.6-6.7-11.2-10.7-4.4-5-9.8-10.8-15-7.4-4.2 2.8-7.8 9-11.4 13.8-3.2 4.4-7.6 11.2-11.9 9.1-3.5-1.7-5.2-8.2-6.4-14.1-1.6-7.8-2.4-16.8-5.4-23.1-2.6-5.5-6.5-6-10.1-4.9-6.6 1.9-13.7 9.1-20.4 5.4-6.9-3.8-10.6-17.9-12.9-29.6L144.8.7h-.3c1.6 11.4 3.7 22.8 7.2 32.2 2.2 5.6 5.2 10.9 8.9 12.5z"/><path class="st0" d="M160.3 37.2c3.7 1.5 7.6-.4 11.2-2.2 5.5-2.7 12.9-7.9 17.9 0 2.9 4.6 4.2 12 5.3 18.6 1.4 7.6 2.9 19.5 8.1 20.3 2.9.4 5.5-3.3 7.8-6.1 1.9-2.3 3.7-4.9 5.5-7.4 3.1-4.3 6.4-9.4 10.3-10.6 4.5-1.4 9 3.3 12.8 7.3 3.7 4 7.2 9.5 11.5 11.4 5.3 2.4 10.1-3.2 14.1-9.3 4.1-6.1 7.7-13.2 11.5-20 6.4-11.2 14-22.1 23-23.1v-4.8c-4.8 1-9.6 4.9-13.9 10.5-8.4 11.5-14.4 28.9-23.3 39.4-3.4 4-7.2 6.1-11.1 4-4-2.1-7.3-7.4-10.9-11.4-4.8-5.6-10.3-11.2-15.9-6.4-4.1 3.6-7.6 9.6-11.3 14.4-3.4 4.4-7.8 10.8-12 6.7-3.2-3.1-4.6-10.3-5.6-16.5-1.3-7.8-2.3-16.9-5.5-22.7-2.9-5.3-7-4.9-10.7-3.5-6.4 2.5-14 9.9-20.5 4.6-6.3-5.1-9.6-18-11.8-29.9h-1.2c1.4 8.8 3.2 17.3 6 24.5 2.1 5.6 5.1 10.8 8.7 12.2z"/><path class="st0" d="M160 52.8c3.8 1.9 7.8.1 11.5-1.6 5.6-2.6 13-7.7 18.1 0 3 4.5 4.4 12 5.7 18.6 1.5 7.4 3.3 18.3 8.3 18.8 2.9.3 5.6-3.6 7.9-6.5 1.9-2.4 3.7-5 5.5-7.6 3-4.3 6.2-9.4 10-10.9 4.6-1.8 9.2 2.7 13.1 6.6 3.9 3.8 7.5 9.4 11.9 11 5.2 2 9.8-3.4 13.7-9.1 4.2-6.1 8-13.1 12-19.8 6.2-10.5 13.5-20.5 22-21.8V25c-4.2.6-8.3 3.6-11.9 7.6-9.1 10-15.5 26.9-24.2 38.1-3.4 4.3-7.1 7.6-11.2 6.4-4.2-1.2-7.7-6.2-11.3-10.2-4.5-5.1-10.2-11.2-15.5-7.6-4.1 2.8-7.6 8.9-11.1 13.8-3.1 4.4-7.4 11.3-11.6 10-3.6-1.1-5.5-7.3-6.8-13.1-1.7-7.7-2.6-16.5-5.4-23.1-2.6-5.9-6.4-6.8-10.2-5.7-6.7 1.8-13.9 9.1-20.7 5.2-6.9-4-10.7-18.1-13-30.1-1-5.2-1.9-10.5-2.8-15.8h-.9c1.9 13.6 4.1 27.6 8.2 39 2 5.9 5 11.5 8.7 13.3z"/><path class="st0" d="M159.3 59.9c3.6 2.2 7.5.8 11.1-.8 5.7-2.5 13.4-8.1 18.7-.4 2.8 4 4.3 10.6 5.6 16.7 1.6 7.6 3.4 19.2 8.7 19.6 3 .2 5.8-3.9 8.1-7 1.9-2.5 3.8-5.3 5.6-8 2.9-4.1 6-9 9.6-10.3 4.4-1.6 9 2.6 12.9 6.2 3.9 3.7 7.6 9 11.9 10.6 5.1 1.9 9.7-3.2 13.6-8.8 4.4-6.2 8.4-13.4 12.5-20.2 6.2-10 13.6-19.6 21.9-20.4v-5.2c-4 .7-7.9 3.5-11.4 7.2-9.2 9.8-15.7 26.3-24.5 37.3-3.4 4.2-7.1 7.5-11.2 6.4-4.2-1.1-7.8-6-11.4-9.9-4.6-4.9-10.3-10.9-15.6-7.2-4.2 2.9-7.7 9.3-11.3 14.2-3.1 4.3-7.2 11-11.3 9.8-3.8-1.1-5.8-7.7-7.1-13.8C194 68.7 193 60.1 190 54c-2.7-5.3-6.5-5.8-10.1-4.8-6.7 1.8-14.2 9.2-21 4.6-6.7-4.6-10.4-18.4-12.8-30.3-1.5-7.5-2.8-15.2-3.9-23h-.7c2.2 15.3 4.5 31.6 9 44.9 2 6.1 5.1 12.2 8.8 14.5z"/><path class="st0" d="M160.4 30c3.6 1.7 7.5-.2 11.1-2 5.5-2.8 13.1-8.7 18.3-.9 2.8 4.3 4.2 11.5 5.2 17.9 1.2 7.4 2.2 17.8 6.1 21.9 4.8 5.1 11-5.5 14.7-10.7 3.2-4.5 6.6-9.9 10.6-11.8 4.6-2.2 8.9 2.3 12.8 6.4 3.9 4.1 7.4 10 11.6 12.6 5 3.1 9.5-1.1 13.5-6.8 4.2-6 7.9-13.4 11.7-20.4 6.6-12.4 14.2-24.7 23.7-26.7V4.2c-5.1.9-10 5.1-14.4 11.1-8.5 11.6-14.5 29.3-23.4 40-3.4 4.1-7.1 6.2-11.1 4-4.2-2.3-7.6-8-11.3-12.3-4.9-5.8-10.2-11-15.9-5.8-4.1 3.8-7.7 9.8-11.5 14.6-3.3 4.2-7.6 9.9-11.6 5.6-3.1-3.3-4.4-10.3-5.3-16.4-1.3-8-2.2-17.6-5.4-23.7-2.7-5.1-6.5-5-10-3.8-6.5 2.3-13.7 9.9-20.4 5.8C154 20 150.7 10.4 148.5.5h-.8c1.1 5.6 2.4 10.9 4 15.8 1.9 6.2 4.9 11.9 8.7 13.7z"/><path class="st0" d="M188.8 2.6c6.6 9.6 4.3 29 9.5 40.1 4.3 9.1 10.5.1 14.6-5.2 3.6-4.7 7.2-10.4 11.5-12.9 9-5.3 16.3 12.5 23.6 19.1 10.2 9.2 18.9-11.6 25.2-24.1 3.4-6.7 6.9-13.5 10.8-19.1h-2.9c-6.8 12.1-12.1 27.7-19.9 37.4-3.4 4.3-7.3 6.4-11.2 3.8-4.3-2.8-7.7-9.1-11.4-13.9-4.8-6.2-9.8-11.5-15.5-6.6-4.4 3.9-8.2 10.2-12.2 15.1-3.4 4.1-7.8 9-11.5 3.6-3-4.3-4-12.3-4.9-19-.9-6.7-1.5-14.5-3.5-20.5h-4.1c.6.6 1.3 1.3 1.9 2.2z"/><path class="st0" d="M193.4.5c0 .2 0 .3.1.5-.1-.2-.1-.3-.1-.5zm-.9 0h-.6c.6 2 1.1 4.2 1.5 6.4-.3-2.1-.6-4.3-.9-6.4zm-33.1 6.1c3.5 1.7 7.3-.1 10.8-2 2.2-1.2 4.7-2.9 7.3-4.1h-10.7c-2.3.8-4.6 1-6.8 0h-6c1.5 2.8 3.3 5.1 5.4 6.1zM.5 267.5c5.6 7.9 9.9 19.1 12.9 31 .1.4.2.7.3 1.1h1.2C11.7 284.4 7 270.5.5 261.3v6.2z"/><path class="st0" d="M160.6 22.5c3.7 1.4 7.5-.6 11-2.5 5.4-2.9 12.9-8.6 17.9-.7 2.8 4.5 4.1 11.8 5.1 18.3 1.2 7.4 2 17.4 5.6 22 4.7 6.1 11-4.5 14.7-9.6 3.3-4.6 6.8-10.2 10.9-12.1 4.6-2.1 8.9 2.5 12.8 6.8 3.8 4.3 7.3 10.3 11.6 13 5 3.1 9.5-1.1 13.4-6.8 4.2-6.1 7.8-13.6 11.6-20.8 6.6-12.7 14.2-25.4 23.9-27.5h.3V.5H292c-2.9 2.2-5.6 5.3-8.2 9-8.3 12-14.1 29.9-23.1 40.1-3.6 4.1-7.5 5.6-11.5 2.8-4.1-2.9-7.5-8.8-11.2-13.1-2.5-2.9-5.2-6.1-8.2-7.1-2.7-.9-5.2.5-7.6 2.9-4.1 4.2-7.7 10.1-11.7 14.8-3.5 4.1-7.7 8.4-11.4 2.7-2.8-4.3-3.8-11.7-4.7-18-1.1-7.7-2.1-17.2-5.5-22.5-3-4.7-7-3.8-10.5-2.3-6.3 2.7-13.7 10-20.1 5-3.5-2.8-6.1-8.1-8-14.4H149c.8 3.1 1.6 6.1 2.6 9 2.1 6.1 5.2 11.6 9 13.1z"/><path class="st1" d="M254.8.5h-5.2c1.6.8 3.3.9 5.2 0z"/><path class="st1" d="M257.5 3.9c1-1 1.9-2.2 2.7-3.4h-1.3c-3.8 5-8.1 7-12.8 1.9-.5-.6-1-1.2-1.5-1.9h-1.1c4.1 5.7 8.6 9.1 14 3.4z"/><path class="st1" d="M258.4 10.2c2.4-2.5 4.5-5.9 6.4-9.7h-1.1C259 9.3 253.3 15.4 247 8.2c-1.8-2-3.5-4.8-5.2-7.7h-1.2c5.2 8.6 10.8 16.9 17.8 9.7zm-51.2-5.8c1.3-1.2 2.5-2.5 3.7-3.9h-1.5c-4 4.5-8.9 8.3-12 0h-.9c.1.4.3.8.4 1.2 2.7 7 6.6 6.1 10.3 2.7z"/><path class="st1" d="M247.2 16.2c3.6 3.3 7.4 2.9 10.9-.7 3.5-3.7 6.5-9.3 9.1-15h-.9c-5.4 11.3-12.1 21.7-19.9 13.3-3-3.3-6-8.6-9.1-13.3H236c3.7 5.2 7 11.9 11.2 15.7zm-50.7-7.3c2.8 6.6 6.8 5.3 10.5 1.9 3.1-2.9 6-6.8 8.9-10.3h-1.5c-1.4 1.7-2.7 3.4-4 5-4.3 5-10.3 11.7-13.9 1-.6-1.8-1.1-3.8-1.5-5.9h-.7c.1.6.1 1.2.2 1.8.6 2.3 1.2 4.6 2 6.5z"/><path class="st1" d="M197.9 17.9c3.3 5.2 7.3 2.1 10.6-1.4 4.5-4.6 8.4-11 13.1-15 .4-.3.8-.7 1.2-.9h-2.1c-3.1 2.8-6 6.9-8.8 10.4-4.3 5.3-10.9 13.9-14.9 2.9-1.2-3.4-1.9-7.4-2.4-11.5-.1-.6-.1-1.2-.2-1.8h-.2c.3 3.3.6 6.7 1 9.9.6 2.8 1.5 5.4 2.7 7.4zM237.2 8c3.6 5 6.8 11.3 11 14.6 3.9 3.2 7.9 1.8 11.4-2.5 4.3-5.1 7.8-12.2 11.1-19.6h-1.1c-5.6 12.6-13.3 28.3-22 19.9-4.9-4.7-9.5-14.9-14.8-19.9h-2.1c2.3 1.7 4.5 4.6 6.5 7.5z"/><path class="st1" d="M194.7 11.8c.6 4.8 1.6 9.5 3.4 12.8 3.2 5.8 7.1 3.2 10.5-.3 4.4-4.8 8.4-11.3 13-15.7 2.4-2.3 4.9-3.7 7.5-2.6 2.9 1.1 5.5 4.5 7.9 7.7 3.7 4.9 6.9 11.2 11 14.9 3.7 3.3 7.6 2.8 11.2-1.1 4.2-4.5 7.5-11.5 10.7-18.3 1.3-2.8 2.6-5.8 4-8.7h-1c-.3.7-.6 1.3-.9 2-3.4 7.4-6.8 15.1-10.9 20.9-4.4 6.2-9.2 7.9-14 2.5C240 18 232.9-.6 223.7 5.3c-4.3 2.7-8 8.5-11.8 13.2-4.3 5.4-10.6 13.4-14.5 2.4-1.1-3.1-1.8-6.7-2.3-10.5-.4-3.2-.7-6.6-1-9.9h-.8c0 .2 0 .3.1.5.5 3.5.9 7.1 1.3 10.8z"/><path class="st1" d="M194.5 14.5c.3 2.6.6 5.5 1 8.3.6 3.2 1.5 6.3 2.8 8.6 3.4 6 7.5 2.6 11-1.2 4.3-4.6 8.1-10.8 12.5-15 2.4-2.3 4.9-3.7 7.6-2.7 3.1 1.2 5.8 4.7 8.4 8 3.6 4.7 6.9 10.8 10.9 14 3.6 2.9 7.3 2.1 10.7-1.5 4.3-4.5 7.7-11.6 11-18.3 2.3-4.7 4.4-9.5 6.7-14.2h-1L272.5 8c-6.1 12.9-14.7 34.2-24.9 24-7.4-7.3-14.5-26.1-23.8-20.1-4.3 2.8-7.9 8.5-11.7 13.2-4.3 5.3-10.6 13.5-14.5 2.7-1.7-4.6-2.4-10.3-3-16-.4-3.6-.7-7.3-1.2-10.8 0-.2-.1-.3-.1-.5h-.9c.3 2.1.6 4.3.9 6.4.5 2.5.9 5.1 1.2 7.6zM166.7.5H160c2.2 1 4.5.8 6.7 0z"/><path class="st1" d="M199.4 40c3.8 5.3 8.1.5 11.5-3.6 4.1-4.9 7.8-11.2 12.2-15.1 5.7-5 10.7.4 15.5 6.6 3.7 4.8 7.1 11.1 11.4 13.9 4 2.6 7.8.5 11.2-3.8 7.8-9.8 13.1-25.3 19.9-37.4H280c-2 3.6-3.8 7.3-5.7 11.1-3.5 7.3-6.9 14.9-10.9 21.2-4 6.3-8.7 10.9-13.8 7.1-8-5.9-14.9-26.6-24.5-21.7-4.3 2.2-7.9 8-11.5 12.7-4 5.3-10.4 15.1-14.8 6.2-1.9-3.8-2.8-9.1-3.4-14.4-.4-2.8-.6-5.7-1-8.3-.3-2.5-.7-5.1-1.1-7.6-.4-2.2-.9-4.4-1.5-6.4h-.8c2 6 2.7 13.8 3.5 20.5.9 6.7 1.8 14.7 4.9 19z"/><path class="st1" d="M157.7 7c6.5 5.3 14.1-2.3 20.5-5.1 3.6-1.6 7.7-2.4 10.6 2.6 2.7 4.6 3.8 11.9 4.7 18.7.3 1.4.5 2.7.7 4.1.4 2.8.8 5.8 1.2 8.8.8 3.8 1.8 7.4 3.6 9.8 3.6 5 7.7.8 11.1-3 4.1-4.8 7.9-11 12.3-15 2.2-2.1 4.6-3.2 7.1-2.4 3 1 5.8 4.3 8.4 7.4 3.6 4.3 6.9 10 10.9 13.1 3.9 3 7.8 1.9 11.4-2 8.9-9.6 14.6-27.2 22.4-39.3.9-1.4 1.9-2.8 2.8-4.1H284c-3.9 5.6-7.5 12.4-10.8 19.1-6.3 12.5-15 33.4-25.2 24.1-7.3-6.6-14.6-24.5-23.6-19.1-4.2 2.5-7.8 8.3-11.5 12.9-4.1 5.3-10.3 14.3-14.6 5.2-5.3-11.1-2.9-30.6-9.5-40.1-.6-.9-1.3-1.6-1.9-2.1h-9.4c-2.6 1.2-5.1 3-7.3 4.1-3.4 1.8-7.2 3.7-10.8 2-2.1-1-3.9-3.2-5.4-6.1h-1.1c1.3 2.6 2.9 4.8 4.8 6.4z"/><path class="st1" d="M158.5 14.9c6.4 5 13.8-2.3 20.1-5 3.5-1.5 7.5-2.4 10.5 2.3 3.4 5.3 4.4 14.8 5.5 22.5.9 6.3 1.9 13.7 4.7 18 3.7 5.7 7.9 1.4 11.4-2.7 4-4.7 7.5-10.6 11.7-14.8 2.4-2.4 4.9-3.8 7.6-2.9 3 1 5.7 4.1 8.2 7.1 3.7 4.3 7.1 10.1 11.2 13.1 4 2.9 7.9 1.4 11.5-2.8 9-10.3 14.8-28.2 23.1-40.1 2.5-3.7 5.3-6.8 8.2-9H290c-6.1 5.8-11.3 15.3-16 24.6-6.3 12.5-15.2 34-25.4 25.1-7.4-6.4-14.8-24.3-23.8-18.8-4.2 2.6-7.8 8.4-11.3 13.2-4 5.4-10.2 14.6-14.6 5.6-1.8-3.7-2.7-8.9-3.5-14.1-.4-3-.8-6-1.2-8.8-.2-1.3-.4-2.7-.7-4.1-.9-4.8-2.2-9.5-4.3-12.6-5.3-7.6-13-.9-18.6 2-3.5 1.8-7.5 3.7-11.1 1.5-3.5-2.1-6.2-7.6-8.1-13.6h-.9c1.9 6.2 4.4 11.5 8 14.3z"/><path class="st1" d="M159.2 23.3c6.7 4.1 13.9-3.4 20.4-5.8 3.5-1.2 7.3-1.3 10 3.8 3.2 6.1 4.1 15.7 5.4 23.7 1 6.1 2.3 13.1 5.3 16.4 4 4.2 8.3-1.5 11.6-5.6 3.8-4.8 7.3-10.8 11.5-14.6 5.7-5.2 10.9.1 15.9 5.8 3.7 4.3 7.1 10.1 11.3 12.3 3.9 2.1 7.7 0 11.1-4 8.9-10.7 14.9-28.4 23.4-40 4.4-6 9.4-10.2 14.4-11.1V2.4h-.3c-9.7 2.1-17.3 14.8-23.9 27.5-3.7 7.2-7.4 14.7-11.6 20.8-3.9 5.7-8.5 10-13.4 6.8-4.3-2.7-7.7-8.7-11.6-13-3.9-4.3-8.2-8.9-12.8-6.8-4.1 1.9-7.6 7.5-10.9 12.1-3.8 5.2-10 15.7-14.7 9.6-3.6-4.6-4.4-14.6-5.6-22-1-6.5-2.3-13.9-5.1-18.3-5-7.9-12.5-2.1-17.9.7-3.5 1.9-7.3 3.8-11 2.5-3.8-1.4-6.9-6.9-9-13-1-2.9-1.9-5.9-2.6-9h-.8c2.2 10.2 5.5 19.7 10.9 23z"/><path class="st1" d="M158.6 30.4c6.5 5.2 14.1-2.1 20.5-4.6 3.7-1.4 7.8-1.8 10.7 3.5 3.2 5.8 4.2 15 5.5 22.7 1.1 6.2 2.4 13.3 5.6 16.5 4.2 4.1 8.7-2.3 12-6.7 3.7-4.9 7.2-10.9 11.3-14.4 5.6-4.8 11 .8 15.9 6.4 3.5 4.1 6.8 9.3 10.9 11.4 3.9 2.1 7.7 0 11.1-4 8.9-10.5 15-27.9 23.6-39.3 4.3-5.7 9-9.6 13.9-10.5V9.6c-9.5 2-17.1 14.3-23.7 26.7-3.8 7-7.4 14.4-11.7 20.4-4 5.7-8.5 9.8-13.5 6.8-4.3-2.6-7.8-8.5-11.6-12.6-3.9-4.1-8.2-8.6-12.8-6.4-3.9 1.9-7.3 7.3-10.6 11.8-3.7 5.2-9.9 15.8-14.7 10.7-3.9-4.1-4.8-14.5-6.1-21.9-1.1-6.4-2.4-13.6-5.2-17.9-5.2-7.8-12.7-1.9-18.3.9-3.5 1.8-7.4 3.7-11.1 2-3.8-1.8-6.8-7.5-8.9-13.7-1.7-4.9-3-10.3-4-15.8h-.7c2.3 11.8 5.6 24.8 11.9 29.8z"/><path class="st1" d="M159.3 38.2c6.7 3.7 13.9-3.4 20.4-5.4 3.6-1.1 7.5-.6 10.1 4.9 3 6.3 3.9 15.3 5.4 23.1 1.2 5.9 2.9 12.3 6.4 14.1 4.3 2.2 8.6-4.7 11.9-9.1 3.6-4.9 7.2-11.1 11.4-13.8 5.2-3.4 10.6 2.4 15 7.4 3.6 4 7 9.1 11.2 10.7 4.2 1.6 8.1-1.5 11.5-5.9 8.8-11.2 15-28.2 24.2-38.5 3.8-4.3 8.2-7.6 12.7-8.1v-1.5c-9 1-16.6 11.8-23 23.1-3.8 6.7-7.5 13.8-11.5 20-4 6.1-8.8 11.7-14.1 9.3-4.2-1.9-7.7-7.5-11.5-11.4-3.8-4.1-8.3-8.7-12.8-7.3-3.9 1.2-7.2 6.3-10.3 10.6-1.8 2.5-3.6 5.1-5.5 7.4-2.3 2.8-5 6.5-7.8 6.1-5.2-.7-6.8-12.6-8.1-20.3-1.2-6.6-2.4-14-5.3-18.6-5-7.9-12.4-2.7-17.9 0-3.6 1.8-7.5 3.7-11.2 2.2-3.6-1.4-6.6-6.6-8.7-12.1-2.8-7.3-4.6-15.8-6-24.5h-.7c.5 2.7.9 5.4 1.5 8.1 2.1 11.7 5.8 25.7 12.7 29.5z"/><path class="st1" d="M159.6 46.4c6.8 3.9 14-3.4 20.7-5.2 3.8-1 7.6-.2 10.2 5.7 2.9 6.5 3.8 15.4 5.4 23.1 1.3 5.9 3.2 12.1 6.8 13.1 4.2 1.3 8.4-5.6 11.6-10 3.5-4.9 6.9-10.9 11.1-13.8 5.3-3.7 11 2.5 15.5 7.6 3.6 4 7.1 9 11.3 10.2 4.1 1.2 7.9-2.1 11.2-6.4 8.7-11.2 15.1-28.1 24.2-38.1 3.7-4 7.7-7 11.9-7.6v-1.5c-8.7 1.2-16.2 11.7-22.5 22.6-4 6.9-7.8 14.3-12.1 20.5-3.8 5.5-8.3 10.7-13.2 8.9-4.5-1.6-8.1-7.4-12-11.5-3.8-4-8.3-8.5-12.8-7-3.9 1.3-7.2 6.5-10.2 10.9-1.8 2.6-3.6 5.2-5.5 7.6-2.3 2.9-5 6.7-7.8 6.3-5.1-.6-6.8-12.3-8.2-19.9-1.2-6.4-2.4-13.3-5.1-18-4.9-8.5-12.4-3.4-18-.7-3.6 1.8-7.6 3.7-11.4 2.1-3.7-1.5-6.7-6.9-8.9-12.6-3.5-9.4-5.5-20.8-7.2-32.2h-.8c.8 5.3 1.7 10.6 2.8 15.8 2.3 12 6.1 26.1 13 30.1z"/><path class="st1" d="M158.9 53.8c6.8 4.6 14.3-2.7 21-4.6 3.6-1 7.4-.5 10.1 4.8 3 6 4.1 14.7 5.7 22.2 1.3 6.1 3.4 12.7 7.1 13.8 4.1 1.2 8.2-5.5 11.3-9.8 3.6-5 7.1-11.3 11.3-14.2 5.3-3.7 11.1 2.3 15.6 7.2 3.6 3.9 7.2 8.7 11.4 9.9 4.1 1.1 7.8-2.2 11.2-6.4 8.7-11 15.3-27.6 24.5-37.3 3.5-3.7 7.4-6.5 11.4-7.2v-1.5c-8.4 1.4-15.8 11.4-22 21.8-4 6.7-7.7 13.7-12 19.8-4 5.7-8.6 11-13.7 9.1-4.4-1.7-8-7.2-11.9-11-3.9-3.9-8.6-8.3-13.1-6.6-3.8 1.5-7 6.5-10 10.9-1.8 2.6-3.6 5.2-5.5 7.6-2.3 2.9-5 6.8-7.9 6.5-5-.5-6.8-11.4-8.3-18.8-1.3-6.6-2.7-14-5.7-18.6-5.1-7.7-12.5-2.6-18.1 0-3.7 1.7-7.7 3.5-11.5 1.6-3.7-1.9-6.7-7.5-8.8-13.3-4.1-11.4-6.3-25.4-8.2-39h-.8c1.2 7.8 2.4 15.5 3.9 23 2.6 11.7 6.3 25.5 13 30.1z"/><path class="st1" d="M158.2 60.7c6.4 5.1 13.9-1.3 20.2-3.5 3.7-1.2 7.9-1.5 10.9 3.8 3.1 5.4 4.3 13.7 5.9 20.9 1.4 6.2 3.3 13.1 7.1 14.5 4.3 1.6 8.7-5.7 11.9-10.3 3.4-4.9 6.8-11 10.9-13.9 5.2-3.7 11 2 15.6 6.7 3.5 3.7 7 8.2 11.1 9.4 4.2 1.3 8.1-2 11.5-6.3 8.7-10.8 15.3-27 24.6-36.4 3.6-3.6 7.5-6.2 11.6-6.7v-1.5c-8.3.8-15.7 10.3-21.9 20.4-4.2 6.8-8.1 14-12.5 20.2-4 5.5-8.5 10.7-13.6 8.8-4.4-1.6-8-7-11.9-10.6-3.9-3.6-8.4-7.8-12.9-6.2-3.6 1.3-6.7 6.1-9.6 10.3-1.9 2.7-3.7 5.5-5.6 8-2.3 3.1-5.1 7.2-8.1 7-5.2-.4-7.1-12-8.7-19.6-1.3-6.1-2.7-12.7-5.6-16.7-5.3-7.7-13-2-18.7.4-3.6 1.5-7.5 3-11.1.8-3.8-2.3-6.8-8.4-8.9-14.5-4.5-13.3-6.8-29.5-9-44.9h-.8c1.4 9.4 2.9 18.7 4.7 27.8 2.4 12.2 6 26.6 12.9 32.1z"/><path class="st1" d="M158.1 68.4c6.4 5.8 14-.6 20.4-2.7 3.6-1.2 7.7-1.7 10.8 3.1 3.4 5.3 4.7 14.3 6.5 21.7 1.4 5.9 3.4 12.3 7.1 13.5 4.4 1.5 8.7-5.9 11.9-10.6 3.4-4.9 6.7-11.1 10.8-14.1 5-3.6 10.6 1.4 15 5.7 3.8 3.7 7.4 8.5 11.7 9.7 4 1.2 7.7-1.7 11-5.7 8.8-10.5 15.5-26.7 24.8-36.1 3.5-3.6 7.5-6.3 11.5-6.8v-1.5c-8.3 1-15.7 10.6-21.9 20.6-4 6.4-7.9 13.3-12.1 19.1-4 5.5-8.6 10.6-13.6 8.7-4.4-1.6-8-6.8-12-10.4-3.9-3.5-8.4-7.5-12.9-5.9-3.6 1.4-6.7 6.2-9.5 10.4-1.9 2.8-3.7 5.6-5.6 8.2-2.3 3.1-4.9 7.1-7.8 7.2-5.1.3-7.2-10.4-8.8-17.9-1.4-6.4-2.9-13.5-5.9-17.7-5.5-7.7-13.4-1.7-19.3.6-3.7 1.5-7.7 2.6-11.3-.3-3.6-2.9-6.4-8.8-8.4-15-5-15.1-7.3-33.8-10-50.8-.1-.4-.1-.8-.2-1.2h-.8c1.8 11.7 3.6 23.3 5.8 34.7 2.5 13 6 27.3 12.8 33.5z"/><path class="st1" d="M158.3 75.2c6.5 6 14.2-.4 20.7-2.4 3.7-1.1 7.9-1.3 10.9 3.6 3.3 5.4 4.6 13.8 6.4 20.9 1.5 5.6 3.6 11.4 7.1 12.4 4.5 1.2 8.9-6.4 12.1-11.2 3.4-4.9 6.7-11.2 10.8-13.8 5-3.2 10.8 1.9 15.2 6.1 3.7 3.5 7.3 7.9 11.5 8.9s8.1-2.5 11.6-6.7c8.8-10.7 15.7-26.6 25.3-35.1 3-2.7 6.3-4.6 9.7-5.2v-1.5c-7.6 1.1-14.5 9.3-20.4 18.1-4.1 6.2-8 12.9-12.2 18.8-3.8 5.3-8.3 10.8-13.2 10.2-9-1.1-16.2-18.5-25.6-15.9-3.5.9-6.5 5.3-9.2 9.3-1.8 2.6-3.6 5.4-5.4 7.9-2.1 3-4.5 6.7-7.1 8.1-5.6 3.3-8.5-6.9-10.4-15-1.5-6.4-3-13.6-6-18.1-5.4-8-13.1-2.5-19-.2-3.6 1.4-7.5 2.7-11.1.4-3.7-2.4-6.8-8.4-8.9-14.5-5.2-14.6-7.6-32.8-10.4-49.4-.6-3.4-1.1-6.9-1.7-10.4h-1c2.3 14.2 4.5 28.5 7.4 42.3 2.6 12.5 6.2 26.3 12.9 32.4z"/><path class="st1" d="M158.5 83c6.4 5.8 14-.3 20.5-2.3 3.7-1.1 7.9-1.3 10.9 3.5 3.3 5.2 4.6 13.4 6.6 20.4 1.5 5.5 3.7 11.1 7.2 12 4.4 1.1 8.7-6.3 11.9-11.1 3.4-5 6.8-11.5 11-14.3 4.9-3.3 10.7 1.6 15.2 5.6 3.6 3.2 7.1 7.4 11.1 8.5 4.3 1.2 8.2-2 11.8-6.2 8.9-10.4 15.9-26.2 25.5-34.6 3-2.6 6.2-4.5 9.5-5V58c-7.4 1-14.3 8.9-20.1 17.5-4.2 6.2-8.2 13-12.6 18.8-4 5.3-8.5 10.7-13.5 9.6-8.7-1.8-15.9-17.7-25.1-15.1-3.5 1-6.4 5.4-9.1 9.4-1.8 2.7-3.5 5.4-5.4 8-2.2 3.1-4.7 7.1-7.4 8.5-5.4 2.8-8.2-6.8-10.2-14.6-1.6-6.3-3.1-13.3-6.2-17.7-5.4-7.8-13.1-2.5-19-.3-3.6 1.4-7.5 2.5-11.1.2-3.7-2.5-6.8-8.5-9-14.6-5.1-14.2-7.5-31.7-10.4-47.8-1.1-6.4-2.2-13.1-3.3-19.6h-.9c3 16.7 5.6 33.7 9 50C148 63 151.7 76.9 158.5 83z"/><path class="st1" d="M145.3 58.4c2.7 12.4 6.4 26 13 32.3 6.3 6.1 14 .2 20.5-1.7 3.8-1.1 8-1.5 11.1 3.4 3.4 5.2 4.8 13.5 6.9 20.6 1.6 5.5 4.1 10.9 7.7 11.1 4.3.2 8.4-7 11.5-11.8 3.3-5 6.6-11.3 10.6-14.1 4.9-3.4 10.7 1.3 15.2 5.1 3.6 3.1 7.1 7.2 11.1 8.3 4.3 1.2 8.2-2 11.8-6.2 8.8-10.2 15.9-25.5 25.4-33.7 3-2.6 6.2-4.4 9.5-4.9v-1.5c-7.7 1.1-14.8 9.5-20.9 18.4-3.9 5.7-7.6 11.7-11.7 17.1-4 5.3-8.5 10.5-13.6 9.5-8.7-1.8-16-17.2-25.1-14.5-3.5 1-6.4 5.5-9 9.5-1.8 2.7-3.5 5.5-5.3 8.1-2.1 3.1-4.5 6.9-7.1 8.5-5.5 3.5-8.6-6.4-10.7-14.3-1.6-6.2-3.3-13-6.3-17.1-5.6-7.5-13.4-1.9-19.4.2-3.7 1.3-7.7 2.2-11.2-.8-3.5-3.1-6.4-8.9-8.5-14.9-5-14.4-7.6-32-10.6-48.2-1.6-8.6-3-17.6-4.7-26.3h-.9c.2 1.1.4 2.1.6 3.1 3.3 18.2 6.2 36.9 10.1 54.8z"/><path class="st1" d="M144.6 63.4c2.8 13 6.4 26.6 12.9 34.2 6.2 7.2 13.8 2 20.3-.1 3.6-1.2 7.7-2 11.1 1.7 3.9 4.3 5.6 13.1 7.7 20.2 1.7 5.6 3.9 11.1 7.5 11.9 4.4.9 8.4-6.4 11.6-11.2 3.2-4.9 6.3-10.8 10.1-14.2 4.7-4.3 10-.6 14.6 2.7 4.1 3 7.9 7.8 12.3 9.1 4.2 1.3 8.1-1.6 11.7-5.5 9.1-10 16.3-25.6 26.1-33.6 2.9-2.4 6-4.1 9.1-4.5v-1.5c-7.6 1-14.7 9.3-20.7 17.9-4.1 5.8-8 12.1-12.3 17.5-4.3 5.4-8.9 10.1-14.2 8.2-4.2-1.5-7.8-6-11.7-8.9-4-3-8.9-6.4-13.2-4-3.2 1.7-5.8 6-8.3 9.9-1.8 2.8-3.5 5.6-5.4 8.3-2.1 3.1-4.6 7-7.2 8.2-5.5 2.6-8.4-7.8-10.5-15.5-1.6-6-3.5-12.5-6.6-16-5.9-6.5-13.6-.7-19.7 1.1-3.8 1.1-7.8 1.5-11.2-2.2-3.5-3.8-6.2-9.7-8.4-16.2-4.9-15-7.7-32.8-10.8-49.4-1.9-10.1-3.6-20.7-6-30.7h-.9c.6 2.8 1.2 5.6 1.8 8.2 3.4 17.8 6.4 36.4 10.3 54.4z"/><path class="st1" d="M144.5 70.8c2.8 12.6 6.3 25.6 12.5 33.4 6.2 7.8 13.8 3 20.5.9 3.7-1.2 7.9-2.1 11.3 1.5 4 4.2 5.8 13.1 8 20.1 1.8 5.5 4.3 10.8 8 10.9 4.2 0 8-6.8 11-11.4 3.3-5 6.4-11.1 10.2-14.4 4.7-4.1 10.4-.4 14.9 2.9 3.9 2.9 7.6 7.2 11.9 8.3 4.2 1.2 8-1.6 11.6-5.5 9.3-10.1 16.9-25.9 27-33.3 2.5-1.9 5.2-3.2 8-3.6V79c-7.5 1-14.4 8.9-20.4 17.1-4.1 5.7-8.1 11.8-12.4 17-4.3 5.2-9 9.9-14.2 8.1-4.2-1.5-7.8-5.8-11.8-8.5-3.9-2.7-8.6-5.8-12.8-3.8-3.3 1.5-6.1 6.1-8.7 10.1-1.8 2.8-3.5 5.6-5.4 8.3-2.1 3.1-4.6 7-7.2 8.3-5.3 2.6-8.3-6.9-10.5-14.4-1.8-6.2-3.8-13.1-7.3-16.4-6.1-5.9-13.8.1-20.1 1.6-4 1-7.9.7-11.3-3.6-3.2-4-5.8-9.7-7.8-16-5-15.3-7.9-33.2-11.2-50-2.4-12.1-4.6-25-8-36.5h-.9c1.5 5 2.7 10.1 3.8 15 4.1 18.4 7.3 37.3 11.3 55.5zM61.6 1.4c1.6.8 4-.3 5.6-.8h-6.8c.4.3.8.6 1.2.8z"/><path class="st1" d="M60.9 9.2c1.6.8 3.9-.2 5.6-.6 4.9-1.4 9.7-4.5 14.4-7.7.2-.1.4-.3.6-.4h-2.3c-2.1 1.4-4.3 2.8-6.4 4-2.3 1.2-4.6 2.3-7 2.9-1.2.3-2.4.6-3.5.5-1.7-.2-3-2.2-4.2-4.2-.6-1-1.2-2-1.8-3.1H55c.3.5.6 1.1.9 1.6 1.2 2.2 3.3 6.1 5 7zm83.2 68c3 13.2 6.6 26.8 13 35 6.3 8 13.9 3.2 20.8 1.2 3.8-1.1 8-1.9 11.4 2 3.9 4.5 5.6 13.2 8.1 20.1 1.8 5.1 4.4 9.6 7.8 9.6 4.3 0 8.3-7.5 11.5-12.5 3.2-5.1 6.4-11.5 10.3-14.4 4.5-3.3 9.9.1 14.2 3.1 4 2.7 7.7 7 12 8.1 4.3 1.1 8.2-1.8 11.9-5.8 9.2-9.9 16.8-25.3 26.9-32.4 2.5-1.7 5-2.9 7.6-3.3v-1.5c-7.3 1-14.2 8.5-20.1 16.5-4.1 5.5-8 11.3-12.2 16.4-4 4.9-8.5 9.6-13.4 8.6-4.6-.9-8.6-5.8-12.9-8.5-3.9-2.5-8.6-5.5-12.8-3.5-3.1 1.5-5.7 5.7-8.2 9.5-1.6 2.5-3.2 5.1-4.8 7.6-2.2 3.4-4.8 7.7-7.6 9.6-5.4 3.7-8.7-5.3-11.1-13-1.9-6-3.9-12.7-7.2-16.1-6.1-6.3-13.9-.4-20.3 1.1-3.8.9-7.7.7-11-3.3-3.5-4.2-6.2-10.2-8.4-16.9-4.9-15.2-8-32.9-11.3-49.5-3.1-15.1-5.9-31.6-11.1-44.6h-1c2.8 6.7 4.9 14.8 6.6 22.2 4 18.1 7.3 36.7 11.3 54.7z"/><path class="st1" d="M60.1 16.9c1.6 1 4 .1 5.6-.3 4.8-1.1 9.5-4 14.1-7 4.4-2.9 8.8-6.2 13.3-9.1h-2.4C84.4 4.8 78.1 9.8 71.5 13c-2.3 1.1-4.7 2-7 2.5-1 .2-2 .3-3 .2-1.7-.2-3-2.5-4.2-4.5C55.4 8 53.7 4.3 51.9.6h-1.1c1.4 3 2.9 6 4.4 8.9 1.2 2.3 3.1 6.3 4.9 7.4zm83.6 66.7c3 13.2 6.6 26.8 12.9 35.3 6.3 8.5 13.7 4.4 20.7 2.2 3.7-1.1 8-2.1 11.5 1.4 4 4 6 12.4 8.4 19.2 1.9 5.2 4.5 10 8.1 9.9 4.2-.2 8.1-7.3 11.2-12.1 3.2-5.1 6.4-11.5 10.2-14.7 4.5-3.8 10.1-.5 14.6 2.4 4 2.6 7.8 6.7 12 7.7 4.4 1.1 8.3-2 12.1-6 9.1-9.8 16.9-24.8 26.9-31.4 2.3-1.5 4.7-2.5 7.1-2.9V93c-7.2 1-14 8.2-19.9 15.9-4.1 5.3-8.1 11.1-12.3 16.1-4.1 4.9-8.6 9.5-13.6 8.5-4.5-1-8.5-5.6-12.7-8.1-4-2.4-8.7-5.1-12.8-3.1-3.2 1.6-5.8 5.9-8.3 9.9-1.6 2.7-3.3 5.4-4.9 7.9-2.2 3.4-5 8.1-7.8 9.5-5.3 2.7-8.4-6.2-10.9-13.6-1.9-5.8-4.1-12.1-7.4-15.1-6.4-5.7-14.2.5-20.8 1.6-4 .7-7.6-.3-11-4.8-3.2-4.4-5.8-10.2-7.8-16.6-4.9-15.3-8.1-32.9-11.6-49.5-3.3-15.4-6.3-32.2-12.1-44.8-1-2.2-2.1-4.3-3.3-6.2h-1.3c4.9 7.1 8.4 18.5 11 29 4.3 17.6 7.7 36.1 11.8 54z"/><path class="st1" d="M58.8 24.2c1.5 1.8 3.8 1.1 5.6.8 4.7-.7 9.2-3.2 13.6-6 5.5-3.4 10.9-7.5 16.4-11 5-3.1 10.4-6.2 15.7-5.8 10.4.7 16.8 18.1 21 34.5 4.5 17.6 8.1 36.2 12.2 54.2 3 13 6.5 26.4 12.4 35.3 6.2 9.3 13.2 6.4 20.4 4.2 3.8-1.2 7.9-2.5 11.6.2 4.4 3.2 6.7 11.9 9.3 18.9 1.9 5.1 4.4 9.9 7.9 10.3 4.5.4 8.5-7.3 11.7-12.4 3.1-5 6.1-11.1 9.7-14.6 4.5-4.3 10.1-1.3 14.7 1.4 4 2.4 7.8 6.5 12.1 7.6 4.3 1.1 8.2-1.6 11.9-5.4 9.4-9.7 17.3-24.9 27.5-31.3 2.2-1.4 4.5-2.3 6.8-2.7v-1.5c-6.8.9-13.4 7.5-19.1 14.7-4.3 5.4-8.4 11.2-12.7 16.3-4.2 4.9-8.8 9.7-13.9 8.6-4.5-.9-8.5-5.4-12.8-7.9-4-2.3-8.7-4.9-12.8-2.7-3.2 1.6-5.8 6-8.2 10.1-1.7 2.8-3.4 5.7-5.2 8.5-2.2 3.4-4.8 7.8-7.5 9.4-5.4 3-8.6-6.2-11.2-13.6-1.9-5.6-4.1-11.6-7.4-14.4-6.6-5.6-14.5.8-21.3 1.6-4 .5-7.6-1-10.8-5.7-3.2-4.6-5.7-10.6-7.7-17-4.9-15.5-8.2-33.2-11.9-50-3.3-15.2-6.5-32-12.6-44.2-2.9-5.8-6.3-10.8-10.4-12.6-4.4-2-8.9-.7-13.2 1.2-10.2 4.6-20 14-30.5 18.5-2.4 1-4.8 1.8-7.3 1.9-1 .1-2.2.2-3.2-.5-1.3-.9-2.5-3.3-3.5-5.2-2.9-5.5-5.3-12-8.2-17.6h-1.1c2.5 4.8 4.7 10.2 7.2 15.3 1.4 3.3 3 6.4 4.8 8.6z"/><path class="st1" d="M52.8 22.1c1.4 3.3 2.9 6.4 4.7 9 1.6 2.4 3.5 2.1 5.5 2 4.6-.3 9.1-2.6 13.5-5.1 5.3-3.1 10.5-6.8 15.7-10.2 5.3-3.3 10.9-6.7 16.5-6.8 10.5-.1 17.3 16.2 21.8 32.7 4.8 17.5 8.4 36.1 12.7 54.1 3.1 13.2 6.7 26.8 12.7 35.9 2.8 4.3 5.8 6.6 9.4 6.9 3.8.3 7.6-1.3 11.3-2.4 3.7-1.1 7.9-2.3 11.5.4 4.3 3.2 6.6 11.5 9.2 18.2 2 5.2 4.7 9.8 8.2 9.8 4.4 0 8.3-7.5 11.4-12.7 3.1-5 6-11.1 9.6-14.7 4.4-4.3 9.8-1.6 14.4.8 4.2 2.2 8 6.3 12.4 7.4 4.3 1.1 8.2-1.6 11.9-5.4 9.2-9.3 17.1-23.9 27.2-30.2 2.3-1.4 4.6-2.4 7-2.7v-1.5c-6.9.9-13.6 7.7-19.4 14.8-4.3 5.3-8.4 11-12.8 15.9-4.5 5-9.1 9.3-14.4 7.5-4.2-1.3-7.9-5.3-12-7.4-3.9-2-8.5-4.3-12.5-2.2-3.1 1.7-5.7 6.1-8.1 10.1-1.6 2.7-3.2 5.5-4.9 8.1-2.3 3.6-4.9 8.3-7.8 9.9-5.3 3-8.6-5.7-11.3-12.9-2-5.5-4.3-11.3-7.6-14-6.7-5.5-14.7 1-21.6 1.5-4.1.3-7.6-1.7-10.8-6.6-3-4.6-5.5-10.5-7.5-16.8-4.9-15.4-8.3-32.8-12.1-49.4-3.5-15.3-6.9-32.4-13.2-44.3-3.1-5.8-6.7-10.5-11-11.9-4.6-1.5-9.3.2-13.8 2.4-10.2 5.1-19.9 14.1-30.4 17.8-2.3.8-4.6 1.3-6.9 1.2-1.4 0-2.3-.2-3.5-1.8-1.1-1.5-2.1-3.4-3-5.3-3.2-6.7-5.8-14.4-9.3-20.6-.7-1.2-1.4-2.4-2.1-3.5h-1.3c.3.5.7.9 1 1.4 3.9 6.3 6.6 13.6 9.7 20.6z"/><path class="st1" d="M52.3 29.7c1.5 3.5 3 7 4.9 9.6 1.3 1.9 3.4 1.6 4.9 1.5 4.6-.1 9.1-2.1 13.5-4.5 5.3-2.9 10.5-6.5 15.7-9.8 5.2-3.2 10.6-6.5 16.1-6.7 10.4-.5 17.4 14.5 22.1 30.6 5 17.1 8.7 35.5 13.1 53.2 3.3 13.3 6.9 27.1 13 36.4 2.6 4 5.4 6.5 8.8 7 3.7.6 7.5-.8 11.1-1.8 3.9-1.1 8.1-2.5 11.9-.1 4.4 2.7 6.9 10.6 9.6 17.2 2.2 5.4 5.1 10.3 8.9 9.9 4.3-.5 8.1-7.7 11.1-12.8 3.1-5 6-11.1 9.6-14.6 4.4-4.3 9.8-1.8 14.4.4 4.1 2 7.9 5.8 12.2 7 4.5 1.2 8.5-1.6 12.5-5.5 9.3-9.3 17.5-23.7 27.7-29.3 1.9-1.1 3.9-1.8 6-2v-1.5c-6.6.8-13 6.8-18.5 13.4-4.3 5.1-8.5 10.6-12.9 15.5-4.2 4.7-8.8 9.2-13.8 8.3-4.5-.8-8.6-5-12.9-7.1-4-1.9-8.7-4.2-12.8-1.9-3.1 1.7-5.7 6.1-8.1 10.1-3.6 6.1-7.5 14.2-12.1 17.7-5.3 4-9-4-11.8-11.3-2.1-5.5-4.5-11.3-7.9-13.9-6.8-5.3-14.7 1.1-21.7 1.4-4.3.2-7.8-2.2-11.1-7.3-3-4.7-5.4-10.6-7.4-16.9-4.8-15-8.3-31.7-12.1-47.7-3.6-15.1-7.1-31.9-13.6-43.4-3.1-5.5-6.5-9.9-10.8-11.3-4.5-1.5-9 0-13.4 2-10.4 4.9-20.2 13.9-30.8 17.3-2.3.7-4.6 1.2-6.9 1-3.1-.2-4.9-3.5-6.8-7.7-3-6.6-5.5-14.2-8.7-20.4C43.1 7.6 40.7 4 38 1h-1.5c2.3 2.4 4.4 5.3 6.4 8.5 3.8 5.6 6.5 13 9.4 20.2z"/><path class="st1" d="M42.1 14.8c3.7 6.2 6.4 14 9.3 21.5 1.3 3.4 2.7 6.7 4.4 9.6 1.5 2.5 2.6 2.8 4.5 3 4.6.5 9.2-1.3 13.6-3.4 5.4-2.7 10.7-6.3 16-9.6 5.2-3.2 10.7-6.6 16.2-7.2 5.7-.6 10.3 2.8 14.7 9.7 3.3 5.3 5.9 12.1 8 19.2 5.1 16.6 8.9 34.6 13.3 52 3.4 13.6 7.1 27.7 13.2 37.5 2.6 4.2 5.4 7.1 8.8 7.8 3.8.8 7.6-.4 11.3-1.5 3.9-1.1 8.2-2.5 12.1-.2 4.3 2.5 6.9 9.9 9.6 16.3 2.2 5.1 4.9 9.8 8.5 9.8 4.3 0 8.1-7.1 11.2-12.2 3.1-5.1 6-11.2 9.6-15.2 4.3-4.7 9.5-2.6 14.2-.7 4.3 1.7 8.3 5.7 12.7 6.9 4.2 1.1 8-1.1 11.7-4.6 9.4-8.7 17.5-22.7 27.5-28.8 2.2-1.3 4.6-2.3 6.9-2.5v-1.5c-6.9.9-13.6 7.4-19.5 14.2-4.1 4.8-8.1 9.9-12.3 14.4-4.6 4.9-9.3 8.9-14.7 7.2-4.3-1.4-8.2-5.2-12.4-6.8-3.9-1.5-8.4-3.5-12.3-.9-3.1 2-5.6 6.6-8 10.7-1.5 2.7-3.1 5.3-4.7 7.9-2.2 3.5-4.8 8.1-7.5 9.8-5 3.1-8.6-4.5-11.4-11.3-2.2-5.4-4.7-11.1-8.2-13.6-7-5-15 1.6-22.2 1.4-8.4-.2-14.2-13-18.3-25.8-4.9-15.4-8.6-32.4-12.6-48.6-3.6-14.5-7.2-30.5-13.7-41.2-3.2-5.2-6.6-9.3-10.8-10.5-4.9-1.4-9.8.6-14.5 3C86 35.8 76 44.9 65.3 47.1c-2.1.4-4.2.6-6.3.1-2.7-.6-4.6-5.7-6.2-9.6-2.8-6.9-5.1-14.4-8.4-20.6C40.6 9.7 36 4 30.9.5h-2.5c.4.2.8.4 1.1.6 4.7 2.8 8.9 7.6 12.6 13.7zM6.1.9C6.6.8 7.2.6 7.7.5H.5v1.4c.5-.1.9-.2 1.3-.2 1.5-.2 2.9-.5 4.3-.8z"/><path class="st1" d="M28.7 6.9c4.6 2.8 8.8 7.6 12.4 13.7 3.6 6.2 6.3 13.7 9 21.3 1.3 3.6 2.6 7.2 4.2 10.4 1.5 3 2.2 4 4.4 4.5 4.3 1 8.8-.2 13-2.1 11-4.7 21.7-15.1 33-17 5.4-.9 10.1 1.6 14.5 7.9 3.7 5.3 6.6 12.2 9 19.8 5.3 16.6 9.3 34.9 13.8 52.4 3.5 13.4 7.1 27.2 13.2 37.1 2.7 4.3 5.4 7.5 9 8.3 3.6.9 7.2-.2 10.8-1.1 4-1.1 8.2-2.5 12.2-.6 4.5 2.1 7.2 9.3 10.1 15.7 2.3 5.1 5.1 9.8 8.8 9.7 4.4-.1 8.1-7.3 11.2-12.5 3.1-5.1 6-11.3 9.5-15.3 4.3-4.8 9.5-2.8 14.1-1.1 4.3 1.6 8.3 5.5 12.7 6.6 4.2 1.1 8-1.2 11.8-4.7 9.3-8.6 17.5-22.3 27.6-28 2.1-1.2 4.4-2 6.6-2.3V128c-6.7.8-13.3 6.9-19 13.4-4.4 4.9-8.6 10.2-13 14.8-4.6 4.7-9.3 8.4-14.6 6.6-4.2-1.4-8.2-5-12.4-6.5-4-1.3-8.3-3.1-12.2-.3-3 2.2-5.4 6.6-7.7 10.7-1.6 2.8-3.2 5.7-4.9 8.4-2.2 3.6-4.7 8.1-7.6 9.7-5 2.8-8.5-4.7-11.4-11.3-2.4-5.4-4.9-10.9-8.5-13.1-7.1-4.3-14.8 2-22 1.6-8.4-.6-14.3-14.1-18.4-27-4.9-15.6-8.8-32.7-12.9-49.1-3.7-14.6-7.6-30.4-14.5-40.6-3.2-4.8-6.6-8.2-10.7-9-5-1-10.1 1.3-14.9 3.9-10.3 5.4-20.5 14.5-31.3 15.5-2 .2-4.7.5-6.5-1.2-2.2-2.1-4.1-7.8-5.5-11.6-2.7-7.2-5-14.7-8.4-20.9C37.1 10.9 29.3 3.7 21.1 2.6c-4.8-.6-9.7 1-14.5 2.3-2 .5-4.1 1.2-6.1 1.4v1.5c4.4-.4 8.8-2.3 13.2-3.2 5-1.1 10.1-.7 15 2.3z"/><path class="st1" d="M29 13.4c4.4 3.1 8.4 8 11.8 14.1 3.5 6.3 6 14 8.6 21.7 1.2 3.4 2.4 6.8 3.8 9.9.7 1.5 1.5 3.6 2.4 4.6.7.7 1.7.9 2.5 1.1 4.3 1.2 8.6.1 12.8-1.6 11.1-4.4 21.8-14.9 33.2-16.7 5.7-.9 10.4 1.9 15 8.4 3.7 5.3 6.5 12.2 8.9 19.7 5.3 16.2 9.3 34 13.9 51 3.6 13.4 7.4 27.3 13.5 37.2 2.7 4.3 5.4 7.3 8.9 8.2 4 1 8-.3 11.9-1.3 3.8-1 8-2.1 11.8.3 4.3 2.7 6.7 10 9.5 16.1 2.1 4.5 5.1 8 8.3 8.1 4.3.1 8.1-7.2 11.1-12.2 3.2-5.2 6-11.5 9.6-15.8 4.2-5.2 9.2-3.5 13.9-2.2 4.5 1.3 8.7 5.2 13.2 6.3 4.3 1.1 8.2-1.1 12.1-4.6 9.6-8.6 18-22.5 28.4-27.7 1.8-.9 3.7-1.5 5.5-1.7v-1.5c-6.5.8-12.8 6.4-18.4 12.5-4.5 4.9-8.9 10.2-13.4 14.8-4.6 4.6-9.3 8.2-14.6 6.6-4.5-1.4-8.7-5.1-13.3-6.3-3.8-1-7.9-2.5-11.6.4-3.1 2.4-5.5 7.1-7.9 11.4-1.6 2.8-3.1 5.5-4.7 8.1-2.2 3.6-4.8 8.2-7.7 9.8-4.5 2.5-8.4-3.8-11-9.9-2.3-5.4-4.6-10.9-8.1-13.4-7.1-5-15 1.4-22.2 1-8.4-.5-14.3-13.5-18.5-26.2-5.1-15.3-9-32.2-13.2-48.4-3.8-14.5-7.8-30.6-14.7-40.8-3.4-5-6.9-8.6-11.2-9.4-5-1-10.1 1.4-14.9 3.9-10.3 5.4-20.5 14.3-31.3 14.8-2.1.1-5.2.5-6.9-2-2-2.8-3.6-7.8-5-11.6-2.5-7.1-4.7-14.5-7.8-20.7-5.9-11.3-13.5-19.1-21.6-20.8-4.8-1-9.6.4-14.4 1.8C5 11 2.7 11.6.5 12v1.5c4.6-.8 9.2-2.7 13.8-3.5 5-.8 10 .1 14.7 3.4z"/><path class="st1" d="M28.7 19.5c4.4 3.3 8.4 8.5 11.8 14.8 3.4 6.4 5.8 14.1 8.3 21.7 1.2 3.5 2.3 7 3.7 10.3.7 1.5 1.5 3.8 2.4 4.8.7.8 1.7.9 2.5 1.2 4.2 1.4 8.6.5 12.8-1 11-4 21.4-13.7 32.5-16.1 5.6-1.2 10.5.9 15.2 7.1 3.8 5.1 6.8 11.6 9.3 19 5.6 16.1 9.8 34 14.5 51 3.7 13.4 7.6 27 13.7 37 2.7 4.3 5.5 7.5 9 8.4 3.9 1 7.9-.2 11.8-1.1 3.8-.9 8-2 11.8.3 4.4 2.6 6.9 10 9.9 16 2.2 4.4 5.7 7.8 9.1 7 4.2-1.1 7.9-8.4 11-13.5 2.9-5 5.7-11 9.1-15 4.1-4.7 9-3.2 13.6-2 4.5 1.2 8.7 4.9 13.2 5.9 4.4 1 8.3-1.3 12.3-4.8 9.5-8.4 18-21.7 28.3-26.4 1.7-.8 3.5-1.3 5.2-1.5v-1.5c-6.4.7-12.6 6-18.2 11.8-4.3 4.5-8.5 9.4-12.9 13.8-4.6 4.6-9.3 8.5-14.6 7.2-4.3-1-8.3-4.6-12.6-5.8-4-1.1-8.6-2.7-12.5.1-2.9 2.1-5.3 6.5-7.6 10.5-3.6 6.4-7.4 14.3-11.9 18.3s-9-1.2-11.9-7.5c-2.5-5.4-4.9-11.2-8.6-13.7-7.1-4.7-14.9 1.3-22.1.8-8.5-.5-14.5-13.9-18.8-26.7-5.2-15.4-9.3-32.3-13.7-48.6-3.8-13.9-7.9-28.9-14.6-38.6-3.6-5.1-7.3-8.7-11.8-9.3-4.9-.7-9.9 1.6-14.6 4.1-10.2 5.3-20.6 13.9-31.3 14-2.1 0-5.2.2-6.9-2.3-2-2.9-3.4-7.6-4.7-11.5-2.5-7.5-4.7-15.2-7.9-21.8-5.4-11.4-12.8-19.4-20.9-21.5-4.8-1.2-9.6 0-14.4 1.4-2.2.6-4.3 1.3-6.5 1.8v1.5c4.6-1 9.1-2.9 13.8-3.5 4.7-.7 9.6.5 14.2 3.9z"/><path class="st1" d="M29.7 26.8c4.2 3.8 7.9 9.2 11 15.8 3.2 6.8 5.5 14.9 7.9 22.7 1.1 3.5 2.3 6.9 3.6 10 1.6 3.6 2.5 4.5 4.9 5.3 4.3 1.4 8.7.5 12.9-1 11-3.9 21.4-13.7 32.6-15.7 5.7-1 10.4 1.6 15.1 7.7 3.8 5 6.7 11.7 9.3 19 5.6 16.1 10 33.9 14.8 51 3.8 13.2 7.8 26.6 13.9 36.4 2.7 4.3 5.6 7.3 9.1 8.1 3.9.9 7.9-.3 11.9-1.2 3.8-.8 8-1.7 11.7.7 4.3 2.8 6.7 10.3 10 15.9 2.2 3.8 5.7 6.7 8.7 5.8 4.2-1.2 7.9-8.6 10.9-13.8 2.9-5.1 5.6-11.1 9-15.1 4.1-4.8 9-3.4 13.5-2.4s8.7 4.6 13.2 5.6c4.4 1 8.3-1.3 12.3-4.8 9.5-8.3 18.1-21.3 28.4-25.8 1.6-.7 3.3-1.2 4.9-1.3v-1.5c-6.1.7-12.2 5.5-17.6 10.9-4.5 4.5-8.8 9.5-13.3 13.8-4.4 4.3-9 8.1-14 7.3-4.5-.8-8.7-4.4-13.2-5.6-4-1-8.6-2.4-12.5.5-2.8 2.1-5.1 6.3-7.3 10.2-3.6 6.5-7.3 14.3-11.7 18.7-4.5 4.5-9.2-.1-12.4-6.6-2.4-5-4.8-10.5-8.3-13-7.2-5.2-15.2 1-22.6.3-8.4-.7-14.4-13.9-18.7-26.4-5.2-15.1-9.3-31.7-13.8-47.6-4-14.1-8.1-29.4-15-39.2-3.4-4.9-7.1-8.4-11.4-9.2-5-.9-10.1 1.4-14.9 3.9-10.2 5.2-20.4 13.5-31.1 13.5-2.1 0-4.7 0-6.6-1.7-2.3-1.9-3.9-8-5.2-11.9-2.4-7.4-4.5-15.2-7.4-22C37 31.7 29.5 22.7 21.2 20.2c-4.6-1.4-9.1-.5-13.7.8-2.4.7-4.8 1.5-7.2 2.2v1.5c4.8-1.3 9.6-3.3 14.5-3.7 5.2-.2 10.3 1.7 14.9 5.8z"/><path class="st1" d="M28.2 32c4.2 3.6 8 8.9 11.1 15.4 3.3 6.8 5.6 14.7 7.9 22.7 1.2 4 2.4 8 3.8 11.7 1.3 3.3 2.2 5.3 4.2 6.4 4.1 2 8.4 1.6 12.6.5 10.9-3 21.1-11.8 31.9-15.2 5.5-1.7 10.9-.8 15.8 4.9 3.9 4.6 7.1 10.5 9.9 17.6 6 15.4 10.5 33.3 15.3 50.1 3.9 13.4 7.8 27.1 13.8 37.5 2.6 4.5 5.3 8.4 8.7 9.8 3.8 1.6 7.9.8 11.7-.1 4.1-.9 8.4-2.1 12.4-.3 4.4 2 7.1 8.5 10.2 14.2 2.4 4.4 5.8 7.7 9.2 7.2 4.2-.6 7.9-7.9 10.9-13s5.6-11 8.9-15.5c3.8-5.2 8.8-5.9 13.3-4.1 4.5 1.9 8.7 5.1 13.3 6 4.6.8 8.8-1.4 13-4.9 9.6-8.1 18.4-21 28.7-25.2 1.5-.6 3.1-1 4.6-1.1v-1.5c-6.2.6-12.3 5.5-17.8 10.8-8.8 8.5-18.2 22.3-28.6 20.5-8.4-1.5-16.7-11.7-25.1-3.9-2.8 2.7-5.1 7.3-7.4 11.5-1.6 2.9-3.2 5.8-4.9 8.6-2.2 3.7-4.7 8.2-7.6 9.8-1.9 1.1-4.4.2-6.2-1.1-2.2-1.6-3.8-5.1-5.4-8.3-2.5-5-5.2-9.8-8.9-11.4-7.8-3.6-15.8 3.3-23.6.5-7.6-2.7-13.4-17.5-17.3-29.3-5.3-15.8-9.6-32.7-14.5-48.9-4.1-13.8-8.6-27.4-15.8-36.1-8.6-10.5-18.1-6-27.3-1.1-9.9 5.3-20.5 13.4-30.9 11-2.5-.6-4.4-1.4-6.1-5.3-1.7-4-3.1-8.6-4.4-13.1-2.2-7.4-4.3-14.8-7.2-21.2C35.3 36.4 27.9 28 19.8 25.9c-4.8-1.2-9.6 0-14.3 1.5-1.7.5-3.3 1.1-5 1.6v1.5c4.4-1.3 8.8-3.1 13.3-3.5 4.9-.5 9.8 1.2 14.4 5z"/><path class="st1" d="M28.4 38.9c3.9 3.7 7.4 9 10.3 15.2 3.4 7.2 5.6 15.6 8 24.1 1.6 5.7 3.7 15.6 7.2 17.8 4.2 2.6 8.7 2.4 13 1.4 10.7-2.6 20.7-10.9 31.3-14.6 5.6-2 11.2-1.6 16.3 3.9 3.8 4.2 6.9 9.4 9.7 15.9 6.4 15.1 10.9 33.3 15.9 50.1 4.1 13.6 8.1 27.7 14.2 38.5 2.7 4.7 5.5 9 9.1 10.5 3.8 1.6 7.8.9 11.6.1 4.1-.8 8.3-2 12.4-.2 4.6 2 7.4 8.9 10.8 14.5 2.4 3.9 5.7 6.5 8.9 6 4.3-.7 8.1-8.5 11.1-13.8 2.8-5 5.4-10.8 8.6-15.1 3.8-5.2 8.8-6.1 13.2-4.4 4.5 1.7 8.7 4.8 13.3 5.6 4.6.8 8.8-1.4 13-4.9 9.6-8 18.5-20.6 28.9-24.5 1.4-.5 2.8-.9 4.3-1v-1.5c-6.1.6-12.1 5.2-17.5 10.3-8.7 8.2-18.1 21.6-28.3 20.2-8.6-1.2-17-11.3-25.4-3.2-2.8 2.7-5.1 7.4-7.3 11.6-1.6 3-3.2 5.9-4.8 8.7-2.2 3.6-4.5 7.9-7.3 9.8-2 1.4-4.6.6-6.6-.7-2.1-1.4-3.8-4.5-5.3-7.5-2.7-5.1-5.5-9.9-9.3-11.5-7.7-3.4-15.7 3.1-23.4.3-7.8-2.8-13.7-18.4-17.8-30.5-5.3-15.9-9.8-32.7-14.8-48.9-4.3-13.9-9-26.9-16.3-35.3-8.6-9.8-18.5-4.4-27.5.4-9.7 5.3-20.4 13-30.6 9.7-1-.3-2-.7-2.9-1.4-1.4-1-2.2-3.2-3.1-5.5-1.5-3.8-2.7-8.1-3.8-12.2-2.1-7.6-4.2-15.3-7.1-21.9C34.9 43 27.7 34.4 19.7 32c-4.7-1.4-9.3-.5-14 1-1.7.5-3.5 1.2-5.2 1.7v1.5c4.5-1.5 9-3.3 13.6-3.5 4.9-.2 9.9 1.9 14.3 6.2z"/><path class="st1" d="M14.8 38.4c4.6.2 9.2 2.6 13.3 6.7 4.1 4.1 7.6 9.8 10.6 16.5 3.1 7.2 5.2 15.4 7.4 23.7 1.8 6.6 3.8 16.4 7.7 18.8 4.1 2.5 8.5 2.4 12.8 1.5 10.9-2.4 21-10.9 31.8-14.4 6-1.9 11.5-.7 16.8 5.3 3.7 4.2 6.7 9.6 9.3 16 6.4 15.3 11.1 33.3 16.3 50.1 4.1 13.2 8.2 26.5 14.2 36.8 2.8 4.7 5.6 8.6 9.3 9.9 3.9 1.4 7.8.6 11.7-.2 4-.7 8.3-1.8 12.3.3 4.4 2.3 7.1 9.2 10.6 14.3 2.4 3.5 5.9 5.6 8.9 4.7 4.4-1.4 8.2-9.2 11.2-14.8 2.8-5 5.3-10.9 8.5-15 3.9-5 9-5.5 13.5-3.7 4.6 1.8 9 4.7 13.7 5 4.6.3 8.9-2.5 13.1-6.1 9.6-8.2 18.9-20.7 29.6-23.1.7-.2 1.4-.3 2.1-.3V169c-5.5.5-10.9 4.1-15.9 8.5-4.6 4-9.1 8.7-13.6 12.9-4.7 4.3-9.6 8.4-14.9 8.2-8.9-.3-17.5-10.8-26.3-2.9-2.8 2.5-5 7.1-7.2 11.2-3.4 6.5-7.1 14.3-11.4 18.5-4.3 4.2-9.2.4-12.5-5.3-2.7-4.7-5.4-9.7-9-11.7-7.6-4.3-15.7 2-23.4-.1-8.1-2.2-14.1-17.2-18.4-29.3-5.4-15.3-9.9-31.7-14.9-47.5-4.2-13.5-8.9-27.4-16.1-35.6-3.9-4.5-7.9-6.9-12.5-6.8-5.3.2-10.5 3-15.5 5.7C78 100 67 108 56.5 104.1c-1-.4-2.1-.8-3-1.6-1.4-1.2-2.2-3.3-3.1-5.7-1.4-3.8-2.5-7.9-3.6-12-2-7.6-4-15.3-6.8-22.1-5-12.3-12.1-21.5-20.2-24.4-4.6-1.7-9.2-1-13.8.4-1.8.5-3.7 1.2-5.5 1.8V42c4.7-2 9.5-3.9 14.3-3.6z"/><path class="st1" d="M27.2 50.9c8.5 8.6 13.6 23.1 17.6 39.3 1 4 2 7.9 3.1 11.7 1 3.2 2.2 7.5 3.9 9.4 3.3 3.5 7.9 3.7 11.5 3.4 10.7-.9 20.8-8.6 31.1-13.1 5.3-2.3 11-3.7 16.2.1 4.5 3.2 8.5 9 11.7 15.7 6.7 14.1 11.5 31.9 16.6 48.2 4.3 13.6 8.5 27.6 14.3 38.8 2.6 5 5.6 10.1 9.1 12.3 3.7 2.2 7.6 1.9 11.4 1.3 4.1-.6 8.4-1.9 12.5-.7 4.8 1.3 7.9 7.3 11.6 12.9 2.6 4 5.9 6.5 9.3 6 4.5-.6 8.5-8.8 11.5-14.3 2.8-5.1 5.3-10.9 8.4-15.3 3.5-5 8.1-6.3 12.4-5.3 4.8 1.2 9.4 4.4 14.2 5 4.8.6 9.1-1.8 13.5-5.3 9.4-7.6 18.3-19.2 28.4-22.5 1.3-.4 2.6-.7 3.9-.8v-1.5c-5.7.5-11.4 4.4-16.6 8.9-9.1 7.9-18.7 21-29.2 19.7-8.5-1.1-17-10-25.2-1.7-2.8 2.8-5 7.5-7.2 11.7-1.4 2.7-2.8 5.4-4.3 7.9-2.4 4.1-5 9.3-8.1 11.3-1.9 1.2-4.5.7-6.4-.3-2.3-1.2-4.2-4.5-5.9-7.4-2.9-4.8-5.8-8.9-9.6-10.2-7.9-2.7-16 3.8-23.9-.4-4-2.2-7.3-8.1-10.1-13.8-2.8-5.6-5.2-11.9-7.4-18.4-5.4-15.9-10.2-32.6-15.5-48.6-4.5-13.4-9.6-25.6-17.2-32.9-8.9-8.6-19.3-1.8-28.2 2.9-9.5 5-20.4 12-30.3 6.6-1.6-.9-2.8-2-3.9-4.7-.7-1.8-1.3-3.7-1.9-5.6-1.2-4-2.3-8.2-3.3-12.4-1.9-7.6-3.9-15-6.7-21.6-5-11.9-12.1-20.8-20-23.6-4.5-1.6-9.1-.9-13.6.5-1.5.5-3.1 1-4.6 1.6v1.5c4.2-1.5 8.4-3.1 12.7-3.1 5 .2 9.9 2.5 14.2 6.8z"/><path class="st1" d="M13.1 49.9c4.8.2 9.4 2.7 13.6 7.1 8.6 9 13.5 24.1 17.5 40.7 1 4.3 2.1 8.6 3.3 12.6 1 3.4 2.1 7.4 4.1 8.9 3.6 3 7.7 3.7 11.6 3.4 10.7-.9 20.9-8.5 31.3-12.9 5.5-2.3 11.4-3.3 16.6 1.1 4.1 3.5 7.8 8.5 10.8 14.8 6.8 14 11.7 31.7 17 47.9 4.4 13.5 8.7 27.4 14.7 38.5 2.6 4.8 5.4 9.6 8.8 11.7 3.9 2.4 8.2 1.9 12.2 1.3 4.2-.6 8.5-1.8 12.6-.2 4.4 1.6 7.4 7.3 10.8 12.2 2.8 4 6.5 6.4 10 5.2 4.3-1.5 8.1-9.4 11.1-15 2.7-5 5.2-10.8 8.2-15 3.4-4.8 8-6.1 12.2-5.3 4.8 1 9.4 4.1 14.2 4.6 4.9.6 9.4-1.9 13.8-5.5 9.3-7.4 18.2-18.4 28.2-21.4 1.2-.3 2.4-.6 3.6-.6v-1.5c-5.5.4-11 3.9-16 8.1-4.7 3.8-9.2 8.2-13.8 12.2-4.8 4.1-9.7 7.7-15.1 7.3-8.7-.5-17.2-9.3-25.6-1.4-2.7 2.5-4.8 6.9-6.8 10.9-3.4 6.5-6.9 14.1-11 18.8-4.5 5-9.7 2-13.5-3.8-3-4.5-5.8-9.2-9.6-10.9-8-3.5-16.3 3.1-24.2-.7-4.2-2-7.4-7.7-10.4-13.5-2.8-5.5-5.3-11.6-7.5-17.9-5.6-15.6-10.4-32.1-15.8-47.9-4.6-13.3-9.6-25.4-17.2-32.8-9-8.8-19-2.6-28.2 2.1-9.6 5-20.6 11.9-30.5 6.5-1.3-.7-2.7-1.5-3.7-3.4-.9-1.8-1.7-4.4-2.3-6.5-1.2-4.1-2.3-8.3-3.3-12.6-1.9-7.8-3.8-15.6-6.6-22.5-4.9-12.3-11.9-21.7-19.9-24.9-4.4-1.7-8.9-1.3-13.3 0-1.6.5-3.1 1-4.7 1.6v1.5c4.4-1.6 8.6-3.1 12.8-2.8z"/><path class="st1" d="M13.7 55.8c4.6.7 9 3.4 12.9 7.8 8.6 9.6 13.2 25.2 17.1 42.1 1 4.2 2 8.5 3.2 12.5.9 3 1.8 6.7 3.4 8.5 3.3 3.9 8 4.5 11.8 4.4 10.6-.3 20.7-7.6 30.9-12.1 5.4-2.4 11.2-3.9 16.6-.2 4.4 3 8.4 8.3 11.7 14.7 6.9 13.5 11.9 30.8 17.2 46.7 4.5 13.5 8.9 27.4 14.9 38.7 2.5 4.8 5.3 9.8 8.7 12.2 3.8 2.8 8.1 2.5 12.1 2 4.2-.5 8.5-1.7 12.7-.5 4.5 1.3 7.7 6.7 11.2 11.6 2.9 4 6.8 6.3 10.3 4.9 4.4-1.7 8.1-9.5 11.1-15.2 2.6-4.8 4.9-10.2 7.7-14.5 3.2-4.9 7.5-6.7 11.5-6.4 4.9.4 9.7 3.5 14.6 4.2 4.8.7 9.3-1.3 13.7-4.7 9.8-7.4 19.2-19.1 29.8-21.5.9-.2 1.8-.3 2.6-.4v-1.5c-5.7.4-11.4 4-16.6 8.3-9.4 7.6-19 19.8-29.6 18.3-8.2-1.2-16.4-8.3-24.3-.4-2.7 2.6-4.7 7.1-6.8 11.2-3.4 6.6-6.9 14.4-11.2 19-4.2 4.6-9.4 2-13.1-3.3-3.2-4.6-6.3-9.4-10.4-10.9-8-2.9-16.3 3.5-24.3-1-4.1-2.3-7.3-8.4-10.2-14.1-2.8-5.5-5.3-11.7-7.6-18-5.6-15.6-10.6-32.1-16.2-47.7-4.7-13.2-10-25-17.8-31.8-9.1-8-19.3-1.2-28.4 3.5-9.5 4.8-20.6 11.3-30.3 4.9-2.7-1.8-3.9-5.2-5.3-9.7-1.3-4.4-2.4-9.1-3.5-13.8-1.9-8.2-3.8-16.2-6.7-23.4-4.7-11.9-11.3-21.1-18.9-24.6-6.1-2.8-12.1-1.2-18.1 1V58c4.8-1.5 9.2-2.9 13.6-2.2z"/><path class="st1" d="M12.6 61.5c4.6.6 9.1 3.3 13.1 7.8 8.3 9.3 13.1 24.4 16.8 40.9 1 4.4 1.9 8.8 3.1 13.1.9 3.4 1.9 8.2 3.5 10.6 2.8 4.5 7.8 5.3 11.3 5.5 10.4.6 20.4-6.3 30.4-10.9 5.5-2.5 11.3-4.7 16.9-1.9 4.5 2.3 8.9 7.4 12.3 13.5 7.2 12.7 12.2 29.9 17.6 45.5 4.7 13.8 9.3 28.1 15.4 39.9 2.5 4.9 5.3 10.2 8.7 12.9 3.6 3 7.7 3.1 11.6 2.7 4.3-.4 8.6-1.6 12.8-.7 4.9 1 8.3 6.3 12.2 11.3 2.9 3.6 6.4 5.4 9.8 4.6 4.5-1.1 8.2-9.1 11.3-14.8 2.7-5 5.1-10.6 8-15.2 3.1-4.9 7.3-7 11.3-7 4.9.1 9.8 3.1 14.7 3.8 4.9.7 9.5-1.3 14.1-4.7 9.8-7.2 19.3-18.6 30-20.7.8-.2 1.5-.2 2.3-.3V196c-5.8.3-11.6 4.1-16.9 8.3-9.3 7.3-18.7 18.7-29 17.4-8.3-1-16.7-7.9-24.6.5-2.6 2.8-4.7 7.3-6.7 11.4-3.4 6.7-7 14.7-11.3 19.2-2.3 2.4-5.2 2.5-7.8 1.6-2.1-.7-3.9-2.9-5.6-5.2-3.3-4.5-6.5-8.8-10.7-10-8.1-2.3-16.8 4.1-24.7-1.8-3.8-2.9-7.1-9.3-9.9-14.9-2.8-5.6-5.2-11.8-7.5-18.1-5.8-15.8-10.9-32.4-16.8-48-4.8-12.7-10.3-23.7-18-29.7-9.4-7.2-20 .6-29.2 5.2-9.3 4.6-20.6 10.4-29.8 2.4-2.4-2.1-3.7-7.3-4.9-11.7-1.1-4.3-2.1-8.7-3.1-13.1-1.8-8.3-3.8-16.3-6.6-23.5-4.9-12-11.6-21.3-19.3-24.7-4.4-1.9-8.8-1.7-13.2-.4-1.2.3-2.5.8-3.7 1.3v1.4c4-1.5 8-2.7 12.1-2.1z"/><path class="st1" d="M254.1 227.6c-8.4-.7-16.9-7.3-24.8 1-2.5 2.6-4.5 6.9-6.4 10.9-3.3 6.8-6.8 14.4-11 19.4-4.3 5.2-9.9 3.2-13.9-1.9-3.5-4.4-6.8-8.7-11-9.9-8-2.2-16.6 3.8-24.4-1.9-3.9-2.8-7.1-9.2-9.9-14.9-2.9-5.7-5.4-11.9-7.8-18.3-5.9-15.7-11.1-32.2-17.1-47.7-4.9-12.5-10.3-23-18-28.9-9.5-7.3-20.3.6-29.6 5.2-5.4 2.6-10.8 5-16.3 5.5-4.6.5-9.9 0-14-4.6-1.9-2.1-2.9-6.4-3.9-10-1.3-5-2.4-10.2-3.5-15.4-1.6-7.7-3.4-15.3-5.9-22.2-4.5-12-10.8-21.7-18.2-25.9-6-3.4-11.9-2.4-17.9-.3v1.4c4-1.5 8.1-2.5 12.3-1.7 4.6.9 9 3.9 12.9 8.5 8.5 10.2 13 26.2 16.6 43.4.8 3.8 1.6 7.5 2.5 11.2.8 3.4 1.9 8.6 3.5 11.1 2.6 4.4 7.3 5.6 10.6 6.1 10.6 1.4 21-5.6 31.1-10.3 5.6-2.6 11.5-4.9 17.2-2 4.5 2.2 8.8 7.1 12.2 13 7.4 12.7 12.6 30.1 18.2 45.7 4.7 13.5 9.4 27.3 15.4 38.9 2.5 4.9 5.3 10.2 8.7 13 3.6 3.1 7.7 3.3 11.6 3 4.3-.3 8.6-1.5 12.9-.6 5 1 8.5 6.4 12.6 11.2 2.9 3.4 6.9 5 10.3 3.5 4.4-2 8.1-9.9 11.1-15.7 2.5-4.8 4.8-10.3 7.6-14.6 3.1-4.8 7.1-6.9 11-7 5.1-.1 10.1 2.8 15.1 3.3 5.1.5 9.7-1.7 14.4-5.2 9.6-7.1 19-17.7 29.4-19.4.7-.1 1.3-.2 2-.2v-1.4c-5.4.3-10.9 3.4-15.9 7.2-9.7 6.9-19.3 18.4-29.7 17.5z"/><path class="st1" d="M252 232c-7.9-1.4-16.6-6.3-23.7 3.4-2.5 3.4-4.5 8.1-6.6 12.3-3.3 6.7-7.1 15.3-11.6 18.8-2 1.6-5.1 1.6-7.3.9-2.3-.8-4.3-3.3-6.2-5.6-3.3-4-6.6-7.2-10.5-8-8.4-1.7-18.2 4.9-25.9-4.2-3.4-4-6.5-10.3-9.2-16-2.8-6-5.4-12.5-7.8-19-5.8-15.5-11.1-31.8-17.3-46.6-5.1-12.1-11.5-23.2-19.7-26.7-4.8-2.1-9.7-.9-14.4 1.1-5.2 2.2-10.4 5-15.6 7.4-8.6 3.9-21.5 10.6-28.6-3.4-3.3-6.5-4.6-15.9-6-24.2-1.4-7.8-3.1-15.3-5.5-22.2-4.3-12.4-10.6-22.6-18-27.2-5.9-3.6-11.8-2.8-17.6-.9v1.4c4.4-1.5 8.8-2.4 13.2-1 4.2 1.3 8.2 4.5 11.8 9 8.2 10.4 12.8 26.4 15.8 43.8 1.2 7.1 2.5 14.7 5 20.6 2.4 5.6 5.8 8.7 9.5 9.8 9.7 2.9 20.1-3.9 29.4-8.4 5.5-2.7 11.1-5.7 16.9-5.3 5.1.4 10 4.4 14.1 9.9 8 10.8 13.4 28 18.9 43.2 5.1 14 9.9 28.5 16 41 2.6 5.4 5.5 11.2 8.8 15.1 3.3 3.8 7.2 4.9 10.9 4.9 4.4.1 8.8-1.1 13.2-.8 5.1.3 8.9 4 13.1 9.1 3.4 4.1 6.6 5.7 10.6 5.2 4.3-.5 7.9-8 10.9-13.4 2.8-5.2 5.3-11.1 8.2-16.2 2.6-4.6 5.8-7.3 9.3-8.3 5-1.5 10.1 1.1 15.1 2.1 5.1 1 9.9 0 14.7-3.2 9.7-6.4 18.9-16.6 29.1-19.7 1.5-.4 3-.7 4.5-.7v-1.5c-6.1.3-12.2 4.2-17.9 8.4-9.7 7-19 17-29.6 15.1z"/><path class="st1" d="M266.9 236.1c-5.1 3.4-9.8 4.3-15.1 3-4.9-1.1-9.4-1.5-14.4-.4-3.2.7-6.3 1.7-9 5.3-2.5 3.4-4.4 8.1-6.5 12.3-3.3 6.7-7.1 15.4-11.6 19-1.9 1.6-4.7 1.7-6.8 1.3-2.5-.4-4.7-2.9-6.8-5.3-3.4-3.8-6.7-6.9-10.6-7.7-8.4-1.6-18.2 4.7-25.9-4.5-3.4-4.1-6.5-10.4-9.2-16-2.8-5.9-5.4-12.3-7.9-18.7-6-15.5-11.4-31.8-17.8-46.5-5.3-12.1-12.1-23-20.5-25.8-4.9-1.6-9.8-.1-14.5 1.9-5.2 2.3-10.4 5-15.6 7.2-8.5 3.6-21 9.3-27.8-4.7-3.3-6.7-4.5-16.3-6-24.8-1.4-8-3-15.6-5.4-22.7-4.3-12.6-10.6-23-18.2-27.7-5.6-3.5-11.3-3-16.9-1.2v1.4c4.1-1.4 8.3-2.1 12.4-.7 4.3 1.4 8.3 4.6 11.9 9.2 8.2 10.6 12.8 27 15.8 44.7 1.2 7.3 2.4 15 4.9 21.1 2.4 5.8 5.8 9 9.5 10.3 9.4 3.1 19.5-3 28.5-7.3 5.7-2.7 11.4-6 17.3-5.8 5.2.2 10.2 3.8 14.5 9.3 8.3 10.5 13.8 27.7 19.5 42.8 5.2 14 10.2 28.4 16.4 40.9 2.6 5.2 5.4 10.8 8.6 14.7 3.4 4.1 7.6 5.1 11.6 5.1 4.3 0 8.6-1 12.9-.7 4.9.4 8.7 4 12.9 8.6 3.5 3.8 6.7 5.1 10.7 4.5 4.4-.7 7.9-8.1 10.9-13.6 2.7-5 5.1-10.6 7.8-15.7s5.7-7.4 9.5-8.4c5.1-1.3 9.8-1.2 14.9 0 4.9 1.2 9.4 1.2 14.1-1.7 9.9-6 19.2-16.1 29.5-19.3 1.6-.5 3.2-.8 4.9-.8v-1.5c-6.3.2-12.6 4.2-18.4 8.4-4.7 3.4-9.3 7.3-14.1 10.5z"/><path class="st1" d="M267.7 240.1c-5.2 3.5-10 4.7-15.4 3.6-2.5-.5-4.9-1.2-7.4-1.3-2.5-.1-5 .6-7.4 1.2-3.2.8-6.3 1.9-8.9 5.6-2.5 3.5-4.4 8.2-6.4 12.5-1.3 2.8-2.7 5.6-4.1 8.2-2.3 4.3-4.9 9.5-8 11.6-1.7 1.2-4.4 1.3-6.3 1.1-2.6-.3-4.9-2.9-7.2-5.3-3.5-3.7-6.9-6.5-10.9-7.1-8.4-1.2-18.3 4.6-25.8-5.4-6.8-9.1-12.2-22.7-17.1-35.2-6-15.3-11.5-31.5-18-46-5.4-12-12.4-22.7-20.9-25-4.9-1.4-9.8.3-14.6 2.4-5.3 2.4-10.6 5.2-16 7.3-8.6 3.5-21 8.1-27.4-7-3-7.2-4.2-16.7-5.6-25.4-1.3-7.9-2.9-15.5-5.2-22.5-4.4-12.7-10.5-23.3-18-28.4C11.6 81.3 6 81.6.5 83.2v1.4c4-1.3 8.1-1.8 12.2-.3 4.2 1.5 8.2 4.9 11.7 9.7 8 10.9 12.6 27.3 15.4 45 1.2 7.7 2.4 15.9 5 22.5 2.3 5.8 5.5 9.2 9.2 10.7 9.3 3.7 19.5-2.2 28.5-6.4 5.7-2.7 11.5-6.1 17.4-6.1 5.1 0 10.1 3.2 14.4 8.3 8.7 10.1 14.5 27.8 20.3 43.2 5.2 13.6 10.2 27.7 16.3 40 2.6 5.4 5.5 11.2 8.7 15.3 3.3 4.2 7.3 5.5 11.2 5.7 4.3.2 8.6-.8 12.9-.6 5 .2 8.9 3.4 13.3 8 1.7 1.8 3.4 3.5 5.3 4.2 1.8.7 3.8.3 5.6.1 4.5-.5 8.2-8.3 11.2-13.9 2.7-5.1 5.1-10.8 7.8-15.9 2.5-4.8 5.3-7.3 8.8-8.5 5.2-1.7 10.2-1.8 15.4-.7 5.2 1.1 9.8.9 14.8-2.2 9.6-6 18.9-15.5 29-18.3 1.5-.4 3-.6 4.6-.7v-1.5c-6 .1-12.1 3.7-17.8 7.6-4.7 3.4-9.3 7.1-14 10.3z"/><path class="st1" d="M267.3 247.1c-5.3 3.4-10.2 4.2-15.7 3.1-4.9-.9-9.3-.8-14.2.6-3.1.9-6.2 2.1-8.8 5.9-2.4 3.5-4.3 8.2-6.3 12.5-1.5 3.2-3.1 6.3-4.7 9.3-2.2 4.1-4.6 8.7-7.5 10.8-1.2.9-2.3.8-3.5.9-1.2.1-2.2.6-3.4.4-2.5-.5-4.8-2.9-7-5.1-3.7-3.6-7.2-6.1-11.3-6.5-8.4-.8-18.4 4.4-25.7-6.5-6.3-9.4-11.5-21.6-16.4-33.6-6.3-15.7-12-32.4-18.9-47.2-5.5-11.8-12.6-21.9-21-24-4.9-1.2-9.9.5-14.7 2.7-5.6 2.5-11.1 5.4-16.7 7.5-8.9 3.3-21.4 6.9-27.3-10.1-2.6-7.6-3.7-16.8-5-25.4-1.3-7.9-2.9-15.5-5.1-22.5C30 107.2 24 96.6 16.7 91.4 11.3 87.5 5.8 87.5.4 89v1.3c3.9-1.1 7.8-1.4 11.7.1 4.3 1.7 8.3 5.2 11.9 10.2 7.8 11 12.3 27.4 15 44.8 2.3 14.8 4.7 30.4 13.3 35 9.1 4.9 19.6-.7 28.5-4.9 5.8-2.7 11.6-6.2 17.5-6.6 5.2-.4 10.3 2.4 14.8 7.3 8.8 9.5 14.8 26.9 20.8 42.2 5.3 13.7 10.5 27.8 16.6 40.3 2.7 5.5 5.5 11 8.6 15.5 3.2 4.6 7.1 6.2 11 6.6 4.3.5 8.6-.5 12.9-.4 5 .1 9 2.7 13.4 7 1.7 1.7 3.5 3.4 5.4 4.2 1.9.8 4 .4 5.9.1 4.6-.8 8.1-7.9 11.2-13.8 2.8-5.3 5.2-11.2 8-16.5 2.5-4.8 5.3-7.4 8.8-8.7 5.1-1.8 10-2.3 15.1-1.3 5.2 1 9.9 1 15-2 10.1-6.1 20-16.3 30.7-18.1 1-.2 1.9-.2 2.9-.2v-1.5c-5.9.1-11.8 3.3-17.4 7-4.8 3.5-9.7 7.3-14.7 10.5z"/><path class="st1" d="M266.5 253.7c-5.2 3.1-10.1 3.3-15.4 2.4-4.9-.8-9.3-.2-14.1 1.4-3.1 1-6 2.6-8.4 6.4-2.4 3.8-4.4 8.8-6.5 13.2-1.5 3.1-3 6.2-4.6 9.1-2.2 4-4.6 8.6-7.5 10.3-1 .6-2 .5-3 .6-1.6.2-2.9.9-4.5.3-2.3-.8-4.4-3-6.5-4.9-3.7-3.4-7.3-5.4-11.4-5.7-8.7-.6-18.5 3.9-25.7-7.9-6-9.9-11.3-21.3-16.2-33.2-6.3-15.3-12.1-31.8-19.1-46.1-5.6-11.4-12.7-21-21.1-22.8-5.2-1.2-10.4.9-15.5 3.3-5.5 2.5-11 5.3-16.6 7.2-8.9 3-20.8 5.4-26.5-11.4-2.6-7.8-3.6-17.2-5-26-1.3-8.2-2.9-16-5.2-23.3-4-12.4-9.8-22.9-16.9-28.4-5.3-4-10.7-4.3-16-3v1.3c3.9-1 7.8-1.1 11.7.7 4.3 1.9 8.3 5.8 11.8 11 7.6 11.5 11.8 27.9 14.4 45.3 2.2 15 4.7 30.7 13.4 35.5 9 5 19.4-.3 28.2-4.4 5.8-2.7 11.6-6.1 17.6-6.7 5.2-.5 10.3 2.1 14.9 6.9 8.9 9.2 15.1 26.4 21.1 41.5 5.4 13.5 10.7 27.4 16.9 39.7 2.6 5.3 5.4 10.6 8.4 15.1 3.1 4.6 6.8 6.5 10.6 7.1 4.3.7 8.6-.2 12.9-.2 5.1 0 9.3 2.2 13.9 6.4 1.7 1.5 3.4 3.1 5.2 3.9 2.2 1 4.4.5 6.6 0 4.5-.9 7.9-7.7 10.9-13.5 5.1-9.6 8.9-22.5 16.3-25.6 5-2.1 9.9-3 15-2.1 5.2.9 10 1.3 15.1-1.6 10.2-5.7 20-15.5 30.7-17.5 1.2-.2 2.3-.3 3.5-.3v-1.5c-6.3 0-12.7 3.7-18.7 7.5-5.2 3.5-9.9 7.1-14.7 10z"/><path class="st1" d="M158.4 285.4c-6.1-10.1-11.4-21.5-16.5-33.5-6.4-15-12.2-31.1-19.3-45-5.8-11.4-13.3-20.6-21.8-21.8-5.3-.7-10.5 1.6-15.6 4-5.4 2.5-10.7 5.1-16.2 6.8-9.2 2.9-21 4.2-26.4-13.6-2.5-8.2-3.4-17.8-4.8-26.8-1.3-8.2-3-16.2-5.3-23.5-4.1-12.5-10-23-17.2-28.2-4.9-3.5-9.8-3.9-14.7-2.9v1.5c7.8-1.4 15.3 1.1 21.9 10.6 8.1 11.5 12.6 28.7 15.2 46.9 2.2 14.9 4.4 31.1 12.8 36.7 8.8 5.8 19.2 1 28-2.9 5.9-2.6 11.9-6.3 18-7.1 5.4-.7 10.6 1.7 15.4 6.4 8.6 8.4 14.7 24.3 20.5 38.4 5.7 13.9 11.3 28.1 17.7 40.9 2.8 5.5 5.6 11.1 8.7 15.8 3.1 4.7 6.9 6.7 10.9 7.4 4.4.7 8.8-.1 13.2-.1 4 .1 7.4 1.5 10.9 4h2.1c-3.6-3-7.1-5.1-11.1-5.4-9-.7-19 3.9-26.4-8.6zm122.7-35.8c-4.9 3.1-9.8 6.6-14.7 9.5-5.2 3-10.1 3-15.5 2.2-4.7-.7-9.1.2-13.8 1.9-3 1.1-5.9 2.7-8.3 6.4-2.4 3.8-4.3 8.8-6.4 13.2-1.4 3.1-2.9 6-4.5 8.9-1.4 2.6-2.9 5.5-4.6 7.7h1.3c1.8-2.6 3.4-5.8 4.9-8.7 5-9.6 8.7-22.1 16-25.4 5-2.2 9.9-3.3 15-2.6 5 .7 9.9 1.1 14.8-1.5 10.2-5.5 20.1-15 30.8-16.8 1.2-.2 2.3-.3 3.5-.3v-1.5c-6.3 0-12.7 3.4-18.5 7z"/><path class="st1" d="M157.2 292.3c-5.9-10.3-11.2-21.7-16.3-33.5-6.5-15.2-12.5-31.6-20-45.1-6.1-11.1-14.1-19.1-22.7-19.1-5.6 0-11 3-16.4 5.5-5.5 2.6-11.1 5.1-16.8 6.3-9.2 2-19.2.1-23.7-17.7-2.2-8.5-3-18.1-4.4-27.1-1.2-8.2-3-16.1-5.4-23.4-4.1-12.5-9.9-23-17.2-28.2-4.6-3.3-9.2-3.8-13.8-3v1.4c8.1-1.2 15.8 2.4 22.4 12.9 7.4 11.8 11.5 28.4 14 46 2 14.7 4 31.4 12.1 37.9 8.5 6.8 18.8 2.5 27.4-1.2 6-2.6 11.9-6.2 18-7.5 5.6-1.2 11.1.7 16.2 5.3 8.8 7.8 15 23.4 20.9 37.4 5.9 14 11.6 28.2 18.1 41.2 2.7 5.5 5.6 10.9 8.6 15.9.7 1.2 1.5 2.3 2.3 3.2h1.9c-1.7-1.8-3.5-4.2-5.2-7.2zm123.3-34.8c-4.8 2.9-9.5 6.2-14.4 8.9-5.4 3-10.5 2.6-16 2.1-4.9-.5-9.5.9-14.2 3-2.9 1.3-5.5 3.3-7.6 7.1-2.3 4.1-4.3 9.1-6.4 13.7-1.2 2.5-2.4 4.9-3.6 7.3h1.1v-.1c4.8-9.3 8.6-22.3 15.6-26 4.9-2.6 10.1-4 15.2-3.5 5.2.6 10.2 1.1 15.3-1.6 10.1-5.4 20-14.4 30.6-16.1 1.2-.2 2.4-.3 3.6-.2v-1.5c-6.6-.3-13.1 3.2-19.2 6.9z"/><path class="st1" d="M280.7 263.3c-4.9 2.8-9.8 6.2-14.8 8.8-5.4 2.9-10.6 2.4-16.1 2-4.7-.3-9.3 1.3-13.9 3.5-2.8 1.4-5.4 3.4-7.6 7.3-2.4 4.3-4.3 9.5-6.5 14.2-.1.2-.1.3-.2.5h.9c3.5-8.1 6.9-16.7 12.2-19.8 5-2.9 10.3-4.5 15.5-4.1 5.2.4 10.2.9 15.3-1.7 10.2-5.3 20.1-14 30.7-15.5 1.1-.1 2.2-.2 3.3-.1v-1.5c-6.3-.3-12.8 2.9-18.8 6.4zM97.5 203c-5.5.1-10.7 3-16 5.4-5.4 2.5-10.9 4.9-16.5 6.1-9.5 2-19.9 0-24.4-18.6-2.1-8.6-2.9-18-4.2-27.1-1.2-8.1-2.8-16-5-23.2-4-13-9.9-24.2-17.3-29.8-4.5-3.4-9-4.2-13.5-3.5v1.4c8.1-.9 15.8 3.4 22.2 14.1 7.5 12.5 11.3 29.6 13.7 47.6 2 15.1 4.1 31.6 12.4 38 8.5 6.6 18.7 2.6 27.3-1.1 6-2.5 11.9-6.2 18.1-7.4 5.5-1.1 10.9.6 15.9 4.9 8.9 7.6 15.2 23 21.3 37 6 13.9 11.8 27.9 18.4 40.8 2 4 4.1 8 6.3 11.8h1.2c-5.9-10.4-11.3-21.5-16.4-33.2-11.6-25.6-23.5-63.7-43.5-63.2z"/><path class="st1" d="M96.4 211.7c-5.5.4-10.7 3.3-16 5.7-5.5 2.5-11.1 4.9-16.8 5.8-9.5 1.6-19.3-1.5-23.7-19.8-2.1-9-2.9-18.9-4.3-28.4-1.2-8.2-2.8-16.2-5.1-23.6-4-13-9.8-24.1-17.2-29.8-4.2-3.3-8.5-4.2-12.8-3.7v1.5c7.8-.5 15.1 3.7 21.3 14.1 7.4 12.4 11.4 29.6 13.7 47.6 2 15.6 3.9 33.3 12.4 40.3 8.2 6.8 18.2 3.4 26.6 0 5.8-2.3 11.5-5.7 17.3-7.4 5.7-1.6 11.1-.6 16.5 3.3 9.3 6.6 16 22 22.2 36.1 6.1 13.8 12.2 27.9 18.8 40.9.9 1.7 1.8 3.5 2.7 5.3h1.2c-4.5-8.5-8.9-17.4-13-26.6-11.6-25.8-23.7-62.7-43.8-61.3zm184.2 57.7c-4.8 2.7-9.6 5.8-14.4 8.3-5.6 2.9-10.9 2.3-16.5 2.1-4.7-.1-9.3 1.7-13.8 4.1-2.7 1.4-5.2 3.5-7.2 7.3-1.4 2.5-2.6 5.4-3.9 8.3h.8c2.6-5.7 5.4-11 9.1-13.3 4.8-3 10-5 15-4.8 5.2.2 10.3 1 15.5-1.5 10.2-4.9 20.2-13.5 30.8-15 1.2-.2 2.4-.2 3.7-.2v-1.5c-6.6-.3-13.1 2.9-19.1 6.2z"/><path class="st1" d="M96.1 219.9c-5.6.3-11 3.4-16.5 5.8-5.4 2.4-10.9 4.7-16.5 5.6-9.7 1.5-19.6-1.9-23.9-20.5-2.1-8.9-2.9-18.6-4.1-28-1.1-8-2.6-15.9-4.6-23.2-3.9-13.7-9.8-25.6-17.3-31.8-4.1-3.4-8.4-4.5-12.6-4.2v1.4c8-.2 15.5 5 21.6 16.1 7.2 13.1 10.8 30.3 13 48.4 1.9 15.5 3.9 32.7 12.4 39.8 8.2 6.9 18.2 3.7 26.7.3 6.2-2.4 12.3-6.2 18.5-7.6 5.4-1.2 10.6.1 15.6 3.7 9.3 6.8 16.1 22.2 22.5 36.2 5.8 12.8 11.6 25.6 17.8 37.7h1.1c-3.1-6-6.2-12.2-9.2-18.6-12-25.6-24.2-62.3-44.5-61.1zM280.4 275c-4.8 2.5-9.6 5.6-14.4 8-5.4 2.7-10.7 2.1-16.2 2.1-4.8 0-9.5 2-14.1 4.7-2.6 1.5-5 3.7-6.9 7.4l-1.2 2.4h1c1.8-3.3 3.8-6 6.2-7.6 4.8-3.2 10-5.3 15-5.3 5.2 0 10.4.8 15.5-1.6 10.3-4.9 20.3-13 30.9-14.2 1.1-.1 2.2-.1 3.4-.1v-1.5c-6.5-.5-13.1 2.5-19.2 5.7z"/><path class="st1" d="M279.8 282.2c-4.9 2.5-9.7 5.6-14.6 7.8-5.7 2.6-11.3 1.3-17.1 1.8-4.5.4-9.3 2.8-13.5 5.8-.7.5-1.4 1.1-2.1 1.8h1.8c4.4-3.6 9.6-5.8 14.2-6.2 5.4-.4 10.9.8 16.2-1.6 10.3-4.5 20.3-12.6 31-13.9 1.2-.1 2.5-.2 3.8-.1v-1.5c-6.6-.2-13.4 2.9-19.7 6.1zm-162.1-38.7c-7.1-10.6-15.8-16.2-24.8-14.3-17 3.5-46.9 30.8-55.2-14.4-1.6-8.9-2.4-18.2-3.6-27.3-1.1-8.3-2.7-16.3-4.9-23.8-3.9-13.2-9.7-24.7-17-30.8-3.8-3.1-7.7-4.3-11.6-4.2v1.5c7.5.1 14.4 5.1 20.2 15.2 7.4 12.9 11.2 30.6 13.4 48.9 1.9 15.7 3.5 34.1 11.5 42.4 7.7 7.9 17.4 5.6 25.6 2.7 5.8-2.1 11.5-5.3 17.3-7.5 5.9-2.2 11.4-2.1 17.2 1.2 9.5 5.3 16.6 19.7 23 33.5 5.1 11 10.2 22.1 15.5 32.9h1.1c-2.2-4.3-4.3-8.7-6.5-13.2-6.8-14.5-13.1-30.7-21.2-42.8z"/><path class="st1" d="M280 288c-4.9 2.4-9.8 5.3-14.7 7.6-5.7 2.6-11.3 1.3-17.1 2-2 .3-4.1.9-6.2 1.8h4.2c.8-.2 1.6-.3 2.4-.4 5.4-.6 10.9.5 16.3-1.8 10.4-4.4 20.4-12.3 31.1-13.2 1.1-.1 2.3-.1 3.5 0v-1.5c-6.5-.4-13.2 2.5-19.5 5.5zm-162.9-36.7c-7.5-10.8-16.5-15.7-25.8-13.3-17.3 4.4-46.6 29.5-54.4-16.8-2.9-17.1-3.6-34.9-8.2-50.9-3.9-13.6-9.7-25.4-17.2-31.6-3.6-2.9-7.2-4.2-10.9-4.3v1.4c7.3.5 14.2 5.8 19.8 15.9 7.2 13.1 11 30.7 13.2 49 1.8 15.6 3.2 34.1 11 43.2 7.4 8.6 17.1 6.9 25.3 4.3 11.7-3.8 22.9-13.1 34.8-7.3 9.7 4.8 16.9 18.4 23.5 32.1 4.2 8.8 8.4 17.6 12.6 26.3h1c-1.1-2.2-2.2-4.5-3.3-6.8-7-13.9-13.3-29.5-21.4-41.2zm162 44.5c-2.4 1.1-4.7 2.4-7.1 3.7h3.5c6.5-3.4 13-6.9 19.8-7.6 1.4-.1 2.8-.2 4.2 0v-1.5c-6.8-.7-13.9 2.3-20.4 5.4z"/><path class="st1" d="M90.6 248.2c-10.8 2.9-21.1 10.6-32.1 10.6-4.7 0-9.7-1.3-13.8-6-4.2-4.8-6.7-12.6-8.2-21.3-1.6-9.2-2.3-18.8-3.5-28.1-1.1-8.6-2.7-17-4.9-24.9-3.8-13.4-9.5-25.2-16.8-31.5-3.5-3.1-7.1-4.5-10.7-4.7v1.4c7.2.9 13.9 6.4 19.4 16.5 7.2 13.3 10.9 31 12.9 49.3 1.8 15.8 3.1 34.6 10.9 44 7.3 8.9 17.1 7.5 25.3 5 11.7-3.6 23-13 34.9-7.6 9.8 4.5 17.1 17.9 23.8 31.4 2.8 5.7 5.6 11.5 8.4 17.2h1c-6.6-13.5-12.9-28.2-20.8-39.1-7.6-10.3-16.7-14.6-25.8-12.2zM284 299.5h4.2c2.3-.7 4.6-1.2 7-1.5 1.4-.1 2.9-.1 4.3 0v-1.5c-5.2-.5-10.4 1-15.5 3z"/><path class="st1" d="M90.6 256.3c-11.1 2.8-21.6 11-33 10.7-4.7-.1-9.5-1.6-13.6-6.2-4.4-5-6.9-13.2-8.4-22.3-3-17.8-3.5-36.5-8.1-53.4-3.7-13.7-9.3-25.9-16.7-32.7-3.4-3.1-6.9-4.7-10.4-5.1v1.4c7.1 1.2 13.7 7.2 18.9 17.2 7.1 13.6 10.7 31.5 12.7 50 1.8 16.1 3 35.3 10.8 45.2 7.3 9.2 17.1 8.1 25.3 5.7 11.7-3.5 23-13 35-7.9 9.9 4.2 17.4 17.4 24.2 31 1.6 3.2 3.2 6.4 4.8 9.7h1c-5.4-11.1-10.7-22.3-17.2-31-7.2-10.2-16.2-14.6-25.3-12.3z"/><path class="st1" d="M89 264.1c-11.2 3.4-21.8 11.4-33.3 10.2-4.5-.5-9.2-2.4-13-7.4-4.2-5.5-6.5-14.1-7.9-23.2-2.8-18.1-3.4-36.9-8-54.1-3.6-13.6-9.1-25.7-16.3-32.7-3.3-3.2-6.6-4.9-10.1-5.5v1.4c7 1.6 13.4 7.9 18.5 17.9 7 13.8 10.5 31.8 12.5 50.4 1.7 16.1 2.8 35.3 10.1 46 6.9 10 16.6 9.7 24.8 7.6 11.8-3.1 23.4-13.3 35.5-8.9 10 3.7 17.7 16.2 24.7 29.7.7 1.3 1.4 2.6 2 3.9h1.1c-4.6-9.2-9.3-18.2-14.9-25.1-7.6-9.5-16.7-12.9-25.7-10.2z"/><path class="st1" d="M86.6 273.3c-10.9 4-21.4 11.2-32.7 9.2-4.7-.9-9.4-3.5-13.1-9.4-3.9-6.3-5.8-15.6-7.1-24.8-2.5-18.6-3.3-37.4-8.1-54.6-3.8-13.5-9.5-25.4-16.8-31.8-2.7-2.4-5.5-3.8-8.2-4.4v1.4c6.8 1.9 12.9 8.3 17.8 18 7 14.1 10.5 32.4 12.5 51.2 1.7 16.3 2.7 35.9 10 46.9 7 10.4 16.8 10.3 25.1 8.2 11.5-2.9 22.8-12.9 34.5-9.3 9.5 2.9 17 13.3 23.8 25.6h1.2c-3.7-6.8-7.6-13.2-11.9-18.2-8.4-9.3-17.8-11.4-27-8z"/><path class="st1" d="M86.3 283.3c-10.9 4-21.5 11.4-32.8 9.2-4.8-.9-9.7-3.8-13.4-10-3.9-6.5-5.8-16.1-7-25.6-2.4-18.7-3.2-37.6-7.8-55-3.7-13.8-9.3-26.2-16.7-33-2.6-2.4-5.2-3.9-7.9-4.7v1.4c6.6 2.3 12.7 9 17.3 18.7 7 14.4 10.4 33 12.2 52 1.7 17 2.7 37.4 10.4 48.8 7 10.3 16.7 10.4 25 8.3 11.7-2.9 23-13 35-9.3 6.7 2 12.3 7.9 17.5 15.5h1.4c-2.1-3.1-4.2-6-6.5-8.6-8.3-9.1-17.6-11.1-26.7-7.7z"/><path class="st1" d="M108.7 295.1c-9.4-7.6-19.2-5.7-28.9-1-4.2 2-8.5 4.1-12.9 5.4H71c1.4-.5 2.8-1.1 4.2-1.7 6.1-2.7 12.1-6.3 18.4-6.7 6.5-.3 12.4 2.9 17.8 8.4h1.9c-1.5-1.7-3-3.2-4.6-4.4zm-72.4-11.6c-2.9-8.1-4-18.1-5-27.6-1.9-18.6-3.4-36.8-8.7-53.3-4.1-12.8-10-23.7-17.5-29.2-1.6-1.1-3.1-2-4.8-2.5v1.5c.8.3 1.5.6 2.3 1 4.2 2.3 8.1 6.6 11.4 12 7.5 12.4 12.1 30.3 14.2 48.6 2.1 17.4 2.1 38.3 8.3 52.9 2.7 6.3 6.2 10.3 10.1 12.6h2.9c-.6-.3-1.3-.6-1.9-.9-4.4-2.5-8.5-7.4-11.3-15.1z"/><path class="st1" d="M30.7 262c-1.8-19.1-3.3-37.8-8.5-54.7-4-13-9.9-24.3-17.2-30.1-1.5-1.1-3-2-4.5-2.6v1.8c4.8 2.1 9.3 6.3 13.3 13.2 7.4 12.8 11.9 31.1 14 49.7 2 17.8 2.1 39 8 54.2.9 2.2 1.9 4.2 2.9 5.9h1.2c-1.7-2.5-3.1-5.4-4.3-8.9-2.8-8.4-4-18.7-4.9-28.5zm55 37.5H90c.8-.2 1.6-.3 2.5-.4 2-.2 4-.1 5.9.4h4.5c-5.7-2.4-11.5-2-17.2 0z"/><path class="st1" d="M21.5 216c-4-12.9-9.7-24.1-17-30-1.3-1-2.6-1.9-4-2.5v1.8c4.7 2.3 9.1 6.7 13.1 13.8 7.2 12.9 11.5 30.9 13.6 49.2 1.9 16.6 2 36.3 6.8 51.3h.9c-2.8-8.6-3.9-18.8-4.8-28.6-1.9-19.2-3.3-38-8.6-55z"/><path class="st1" d="M21 221.3c-3.9-13.2-9.7-24.8-17-30.9-1.1-.9-2.3-1.7-3.5-2.3v1.8c4.6 2.6 8.9 7.3 12.7 14.2 7.1 13.2 11.3 31.4 13.3 49.9 1.6 14.6 1.9 31.3 4.8 45.6h.9c-1.5-7.3-2.3-15.2-2.9-22.8-1.7-19.4-3.2-38.3-8.3-55.5z"/><path class="st1" d="M20.5 227c-4-13.6-9.8-25.6-17.3-31.8-.9-.7-1.8-1.4-2.7-1.9v1.8c4.3 2.7 8.3 7.2 11.8 13.7 7.3 13.5 11.5 32.2 13.6 51.1 1.3 12.7 1.7 26.7 3.6 39.6h1c-.8-5.3-1.4-10.9-1.9-16.5-1.7-19.4-3.1-38.5-8.1-56z"/><path class="st1" d="M19.5 233.5c-4-13.7-10-25.6-17.6-31.7-.5-.4-.9-.7-1.4-1v1.9c13.6 9.8 22 38.5 24.8 67 .9 9.5 1.4 19.8 2.3 29.7h.9c-.3-3.1-.6-6.2-.8-9.3-1.5-19.6-3-39-8.2-56.6z"/><path class="st1" d="M19.3 240.5c-3.9-13.9-9.6-26.2-17.2-32.9-.5-.5-1.1-.9-1.6-1.3v1.6c13.7 10.7 21.7 41.2 24.3 69.2.7 7.2 1.1 14.8 1.6 22.4h.9c-.1-.7-.1-1.4-.2-2.1-1.5-19.7-2.9-39.2-7.8-56.9z"/><path class="st1" d="M1.8 215.7c-.4-.4-.9-.8-1.3-1.1v1.5c13.4 11.3 21.2 41.8 23.6 69.2.4 4.6.7 9.3 1 14.1h.9c-1.3-17.5-2.9-34.8-7.3-50.7-3.8-13.7-9.5-26.1-16.9-33z"/><path class="st1" d="M1.1 220.8c-.2-.2-.4-.3-.6-.5v1.6c13.1 12 20.6 42.7 23 70 .2 2.5.4 5.1.6 7.6h.7c-1.2-15.5-2.8-30.8-6.7-45-3.8-14-9.5-26.7-17-33.7z"/><path class="st1" d="M1.3 228c-.3-.3-.5-.5-.8-.7v1.5c13 12.7 20.1 43.7 22.4 70.7h.7c-1.1-12.7-2.7-25.1-5.7-36.9-3.7-14.1-9.2-27.1-16.6-34.6z"/><path class="st1" d="M.6 232.2c-.1 0-.1 0 0 0l-.1 1.5c11.7 12.5 18.5 40.2 21.2 65.8h.7c-1.1-10.9-2.6-21.5-5.1-31.7C13.6 253.3 8 240 .6 232.2z"/><path class="st1" d="M.5 239.9v1.5c10.3 11.7 16.5 35.1 19.6 58h.8c-1-8.6-2.4-17.1-4.5-25.2-3.6-13.8-8.9-26.5-15.9-34.3zm0 8.4v1.5c8.9 10.6 14.8 29.9 18 49.7h.9c-1-6.5-2.2-12.9-3.9-19.2-3.5-12.7-8.4-24.5-15-32z"/><path class="st1" d="M.5 253.4v1.5c7.8 10 13.1 26.8 16.3 44.6h1c-.7-4.3-1.6-8.5-2.6-12.7C11.8 273.6 7 261.4.5 253.4z"/><path class="st1" d="M.5 259.6v1.6c6.5 9.1 11.2 23.1 14.4 38.3h1c-.6-2.8-1.2-5.6-1.9-8.4-3.2-12.3-7.7-23.6-13.5-31.5zm0 7.9v1.6c5.2 7.7 9.2 18.5 12.1 30.4h1c-.1-.4-.2-.7-.3-1.1-2.9-11.9-7.2-23-12.8-30.9z"/><path class="st1" d="M.5 274.6c4.2 6.6 7.6 15.3 10.3 24.9h1C9 289.4 5.2 280 .5 272.9v1.7zm0 8.2c2.8 4.7 5.3 10.4 7.4 16.7H9C6.7 292.6 4 286.3.6 281v1.8zm0 7c1.7 2.9 3.2 6.2 4.6 9.7h1.1c-1.6-4.2-3.5-8-5.6-11.5v1.8zm0 6.5c.5 1 1.1 2.1 1.6 3.2h1.1c-.8-1.8-1.7-3.6-2.6-5.2v2z"/></svg>